<svg xmlns="http://www.w3.org/2000/svg" viewBox="0 0 334.55 98.21"><defs><style>.cls-1{fill:#0c4384;}</style></defs><title>Ресурс 15</title><g id="Слой_2" data-name="Слой 2"><g id="Слой_4" data-name="Слой 4"><path class="cls-1" d="M19.92,1.81v3H11.78v21.1H8.17V4.83H0v-3Zm1,24.12V8.51h3l.21,4.71h0a7,7,0,0,1,2.54-3.71,6.84,6.84,0,0,1,4.05-1.37v3.09a6,6,0,0,0-4.67,1.92A6.86,6.86,0,0,0,24.33,18v7.93Zm20.83.44a8.77,8.77,0,0,1-6.28-2.63,8.72,8.72,0,0,1-2.72-6.52,8.7,8.7,0,0,1,2.72-6.52,8.72,8.72,0,0,1,6.28-2.63A7.87,7.87,0,0,1,46,9.29a6.27,6.27,0,0,1,2.66,3.17h.07l.12-4h3.06V25.93H48.83l-.12-4h-.07a6.33,6.33,0,0,1-2.7,3.19A7.78,7.78,0,0,1,41.73,26.37ZM38,21.54a6.14,6.14,0,0,0,10.48-4.32,5.94,5.94,0,0,0-1.79-4.33,6.14,6.14,0,0,0-8.69,0,6.12,6.12,0,0,0,0,8.65ZM72.11,0h3.42V25.93h-3l-.16-4h-.07a6.27,6.27,0,0,1-2.7,3.18,8,8,0,0,1-4.24,1.22,8.66,8.66,0,0,1-6.27-2.63,8.86,8.86,0,0,1-2.66-6.57,8.73,8.73,0,0,1,2.66-6.49A8.62,8.62,0,0,1,65.3,8.07a7.56,7.56,0,0,1,4.14,1.22A6.15,6.15,0,0,1,72,12.46h.07ZM61.63,21.54a6.14,6.14,0,0,0,10.48-4.32,6.14,6.14,0,0,0-12.27,0A5.88,5.88,0,0,0,61.63,21.54Zm28.18,1.94A7.67,7.67,0,0,0,93,22.8,4,4,0,0,0,95.1,21h3.39a7.92,7.92,0,0,1-3.42,3.93,10.3,10.3,0,0,1-5.44,1.49,9.51,9.51,0,0,1-6.82-2.63,8.69,8.69,0,0,1-2.76-6.57,8.84,8.84,0,0,1,2.63-6.46,9.15,9.15,0,0,1,6.78-2.64A8.72,8.72,0,0,1,96.35,11a10.65,10.65,0,0,1,2.56,7.31H83.48a6,6,0,0,0,2.13,3.76A6.34,6.34,0,0,0,89.81,23.48ZM89.46,11a6,6,0,0,0-4,1.32,5.68,5.68,0,0,0-1.95,3.39H95.4a5.92,5.92,0,0,0-2-3.45A6,6,0,0,0,89.46,11ZM114.93,0V12.46H115a6.08,6.08,0,0,1,2.59-3.17,7.56,7.56,0,0,1,4.14-1.22A8.58,8.58,0,0,1,128,10.68a8.73,8.73,0,0,1,2.66,6.49,8.84,8.84,0,0,1-2.67,6.56,8.59,8.59,0,0,1-6.25,2.64,7.92,7.92,0,0,1-4.25-1.23A6.31,6.31,0,0,1,114.73,22h-.07l-.14,4h-3V0ZM121,23.34a6.16,6.16,0,0,0,6.16-6.12A6.16,6.16,0,0,0,121,11.09a6.15,6.15,0,0,0-6.11,6.13A6.15,6.15,0,0,0,121,23.34Zm29,.34a9.84,9.84,0,0,1-13.52,0,8.66,8.66,0,0,1-2.81-6.47,8.62,8.62,0,0,1,2.81-6.46,9.87,9.87,0,0,1,13.52,0,8.64,8.64,0,0,1,2.79,6.46A8.68,8.68,0,0,1,150,23.68Zm-11.09-2.14a6.14,6.14,0,0,0,10.46-4.32,5.88,5.88,0,0,0-1.81-4.33,6.11,6.11,0,0,0-8.66,0,6.08,6.08,0,0,0,0,8.65Zm26.54,1.72a8.64,8.64,0,0,0,2.81-.57v3a6.88,6.88,0,0,1-3.35.69,6.3,6.3,0,0,1-4.95-2,7.11,7.11,0,0,1-1.79-4.94V11.23h-3.53V8.51h3.53V3.64h3.43V8.51h6.61v2.72h-6.61v7.93a4.36,4.36,0,0,0,1,2.94A3.53,3.53,0,0,0,165.48,23.26Zm7.26,2.67V0h3.43V12.53h.07a6.51,6.51,0,0,1,2.37-3.24,6.22,6.22,0,0,1,3.71-1.22,7.22,7.22,0,0,1,5.65,2.4,8.64,8.64,0,0,1,2.15,6v9.44h-3.41V16.82a5.79,5.79,0,0,0-1.49-4,4.88,4.88,0,0,0-3.8-1.66,4.8,4.8,0,0,0-3.71,1.73A6,6,0,0,0,176.17,17v8.93Zm55.14-8.39a12.15,12.15,0,0,1-4.58,6.34,13,13,0,0,1-16.72-1.19,11.88,11.88,0,0,1-3.76-8.82A11.9,11.9,0,0,1,206.58,5,13,13,0,0,1,223.3,3.86a12.15,12.15,0,0,1,4.58,6.34h-3.74a9.16,9.16,0,0,0-3.37-4,9.24,9.24,0,0,0-11.65,1.15,8.91,8.91,0,0,0-2.7,6.55,8.91,8.91,0,0,0,2.7,6.55,9.25,9.25,0,0,0,11.66,1.15,9.14,9.14,0,0,0,3.39-4Zm4.75,8.39V8.51h3l.21,4.71h0a7,7,0,0,1,2.54-3.71,6.84,6.84,0,0,1,4.05-1.37v3.09a6,6,0,0,0-4.68,1.92A6.9,6.9,0,0,0,236.06,18v7.93Zm13.71,7.93,5.5-10.45-7.7-14.9h3.75l5.71,11.58,5.77-11.58h3.74L250,33.86Zm20,0V8.51h3l.14,4h.07a6.23,6.23,0,0,1,2.68-3.19,8,8,0,0,1,4.25-1.2,8.66,8.66,0,0,1,6.26,2.63,8.75,8.75,0,0,1,2.69,6.52,8.79,8.79,0,0,1-2.67,6.52,8.49,8.49,0,0,1-6.14,2.63,7.53,7.53,0,0,1-4.21-1.25A6.24,6.24,0,0,1,269.88,22h-.07V33.86Zm5.22-12.32a5.86,5.86,0,0,0,4.32,1.8,6,6,0,0,0,4.34-1.8,6.06,6.06,0,0,0,0-8.65,6.13,6.13,0,0,0-10.46,4.33A5.88,5.88,0,0,0,271.6,21.54Zm26.52,1.72a8.69,8.69,0,0,0,2.82-.57v3a6.89,6.89,0,0,1-3.36.69,6.3,6.3,0,0,1-4.95-2,7.1,7.1,0,0,1-1.78-4.94V11.23h-3.54V8.51h3.54V3.64h3.43V8.51h6.6v2.72h-6.6v7.93a4.41,4.41,0,0,0,1,2.94A3.56,3.56,0,0,0,298.12,23.26Zm22,.42a9.84,9.84,0,0,1-13.52,0,8.66,8.66,0,0,1-2.81-6.47,8.62,8.62,0,0,1,2.81-6.46,9.87,9.87,0,0,1,13.52,0,8.64,8.64,0,0,1,2.79,6.46A8.68,8.68,0,0,1,320.1,23.68ZM309,21.54a6.13,6.13,0,0,0,10.45-4.32A6.13,6.13,0,1,0,309,21.54ZM9.83,58.37a8.79,8.79,0,0,1-6.29-2.63,9.2,9.2,0,0,1,0-13,8.75,8.75,0,0,1,6.29-2.63,7.84,7.84,0,0,1,4.24,1.22,6.22,6.22,0,0,1,2.66,3.17h.07l.13-4H20V57.93H16.93l-.13-4h-.07A6.31,6.31,0,0,1,14,57.16,7.8,7.8,0,0,1,9.83,58.37ZM6.05,53.54a5.89,5.89,0,0,0,4.35,1.8,5.89,5.89,0,0,0,4.34-1.8,6.14,6.14,0,0,0,0-8.65,5.89,5.89,0,0,0-4.34-1.8,5.89,5.89,0,0,0-4.35,1.8,6.1,6.1,0,0,0,0,8.65ZM26,57.93V40.51h3l.21,4h0a6.86,6.86,0,0,1,2.49-3.24,6.53,6.53,0,0,1,3.83-1.22,7.24,7.24,0,0,1,5.65,2.4,8.69,8.69,0,0,1,2.15,6v9.44H39.92V48.82a5.84,5.84,0,0,0-1.49-4,4.89,4.89,0,0,0-3.8-1.66,4.79,4.79,0,0,0-3.71,1.73A6,6,0,0,0,29.37,49v8.93ZM63.23,32h3.43V57.93h-3l-.16-4H63.4a6.3,6.3,0,0,1-2.69,3.18,8,8,0,0,1-4.25,1.22,8.66,8.66,0,0,1-6.27-2.63,8.86,8.86,0,0,1-2.66-6.57,9,9,0,0,1,8.9-9.1,7.61,7.61,0,0,1,4.14,1.22,6.13,6.13,0,0,1,2.59,3.17h.07ZM52.75,53.54A6.12,6.12,0,1,0,51,49.22,5.93,5.93,0,0,0,52.75,53.54ZM97.89,36.83H84.81v7.91H97.38v2.85H84.81V57.93h-3.6V33.81H97.89Zm8.4-.22a2.1,2.1,0,0,1-1.54.65,2.2,2.2,0,0,1-1.57-.65,2.06,2.06,0,0,1-.66-1.54,2.08,2.08,0,0,1,.66-1.55,2.19,2.19,0,0,1,1.57-.64,2.22,2.22,0,0,1,2.2,2.19A2.06,2.06,0,0,1,106.29,36.61ZM103,57.93V40.51h3.42V57.93Zm16.94.44a9.13,9.13,0,0,1-9-9.15,9.13,9.13,0,0,1,9-9.15,7.87,7.87,0,0,1,4.25,1.22,6.27,6.27,0,0,1,2.66,3.17H127l.12-4h3.06V57.93h-3.06L127,54h-.07a6.29,6.29,0,0,1-2.7,3.19A7.78,7.78,0,0,1,120,58.37Zm-3.78-4.83a6.12,6.12,0,1,0-1.79-4.32A5.93,5.93,0,0,0,116.19,53.54Zm28,1.72a8.69,8.69,0,0,0,2.82-.57v3a6.89,6.89,0,0,1-3.36.69,6.3,6.3,0,0,1-5-2,7.1,7.1,0,0,1-1.78-4.94V43.23h-3.54V40.51h3.54V35.64h3.42v4.87H147v2.72h-6.61v7.93a4.41,4.41,0,0,0,1,2.94A3.56,3.56,0,0,0,144.19,55.26Zm30.47.42a9.84,9.84,0,0,1-13.52,0,8.84,8.84,0,0,1,0-12.93,9.87,9.87,0,0,1,13.52,0,8.89,8.89,0,0,1,0,12.93Zm-11.1-2.14a6,6,0,0,0,4.34,1.8,6.16,6.16,0,1,0-4.34-1.8ZM182,57.93V40.51h3l.21,4h0a6.86,6.86,0,0,1,2.49-3.24,6.53,6.53,0,0,1,3.82-1.22,7.24,7.24,0,0,1,5.66,2.4,8.69,8.69,0,0,1,2.15,6v9.44H196V48.82a5.8,5.8,0,0,0-1.5-4,4.86,4.86,0,0,0-3.79-1.66A4.79,4.79,0,0,0,187,44.86,6,6,0,0,0,185.43,49v8.93Zm38.9.44a9.13,9.13,0,0,1-9-9.15,9.13,9.13,0,0,1,9-9.15,7.87,7.87,0,0,1,4.25,1.22,6.27,6.27,0,0,1,2.66,3.17h.07l.13-4h3.05V57.93H228l-.13-4h-.07a6.29,6.29,0,0,1-2.7,3.19A7.75,7.75,0,0,1,220.9,58.37Zm-3.78-4.83a6.12,6.12,0,1,0-1.79-4.32A5.93,5.93,0,0,0,217.12,53.54ZM2.27,89.93V64H5.7V89.93ZM14.92,68.61a2.12,2.12,0,0,1-1.54.65,2.2,2.2,0,0,1-1.57-.65,2.07,2.07,0,0,1-.67-1.54,2.09,2.09,0,0,1,.67-1.55,2.19,2.19,0,0,1,1.57-.64,2.11,2.11,0,0,1,1.54.64,2.07,2.07,0,0,1,.65,1.55A2,2,0,0,1,14.92,68.61ZM11.65,89.93V72.51h3.43V89.93ZM38,84a7.68,7.68,0,0,1-3.09,4.58,9.25,9.25,0,0,1-5.67,1.84,9.52,9.52,0,0,1-6.78-2.69,8.8,8.8,0,0,1,0-12.93,9.51,9.51,0,0,1,6.78-2.68,9.23,9.23,0,0,1,5.69,1.82A7.62,7.62,0,0,1,38,78.45H34.44a4.75,4.75,0,0,0-2-2.44,5.94,5.94,0,0,0-3.29-1,5.87,5.87,0,0,0-4.35,1.82A6,6,0,0,0,23,81.22a6.16,6.16,0,0,0,6.15,6.12,5.73,5.73,0,0,0,3.25-.94,5.22,5.22,0,0,0,2-2.45ZM50.8,87.48A7.72,7.72,0,0,0,54,86.8,3.92,3.92,0,0,0,56.09,85h3.39a8,8,0,0,1-3.41,3.93,10.33,10.33,0,0,1-5.45,1.49,9.53,9.53,0,0,1-6.82-2.63A8.69,8.69,0,0,1,41,81.17a8.84,8.84,0,0,1,2.63-6.46,9.15,9.15,0,0,1,6.78-2.64A8.7,8.7,0,0,1,57.34,75a10.66,10.66,0,0,1,2.57,7.31H44.47a6,6,0,0,0,2.13,3.76A6.37,6.37,0,0,0,50.8,87.48ZM50.45,75a6,6,0,0,0-4,1.32,5.67,5.67,0,0,0-1.94,3.39H56.39a5.92,5.92,0,0,0-2-3.45A6,6,0,0,0,50.45,75Zm13.73,15V72.51h3l.21,4h0a6.78,6.78,0,0,1,2.48-3.24,6.53,6.53,0,0,1,3.83-1.22,7.24,7.24,0,0,1,5.65,2.4,8.69,8.69,0,0,1,2.15,6v9.44H78.15V80.82a5.84,5.84,0,0,0-1.49-4,4.88,4.88,0,0,0-3.8-1.66,4.79,4.79,0,0,0-3.71,1.73A6,6,0,0,0,67.61,81v8.93Zm30.27.44A10.93,10.93,0,0,1,88.8,89a4.71,4.71,0,0,1-2.46-4.1H90c.11,1.81,1.55,2.71,4.3,2.71q3.89,0,3.91-2.27a2.27,2.27,0,0,0-.08-.59,1.79,1.79,0,0,0-.27-.51,3.56,3.56,0,0,0-.38-.39A2.31,2.31,0,0,0,97,83.5l-.61-.27a5.39,5.39,0,0,0-.73-.23l-.78-.2L94,82.6l-.84-.2a14.59,14.59,0,0,1-2.24-.64,12.27,12.27,0,0,1-1.92-1,4.21,4.21,0,0,1-1.53-1.52,4.35,4.35,0,0,1-.54-2.2,4.22,4.22,0,0,1,2-3.69A9,9,0,0,1,94,72.07a10.33,10.33,0,0,1,5.22,1.28,4.47,4.47,0,0,1,2.34,3.94H98a2.19,2.19,0,0,0-1.28-1.86A5.9,5.9,0,0,0,94,74.85a5.45,5.45,0,0,0-2.54.53,1.77,1.77,0,0,0-1,1.66,1.7,1.7,0,0,0,.28,1,2.3,2.3,0,0,0,.61.66,4.65,4.65,0,0,0,1.1.5c.5.17.92.3,1.24.38l1.54.35a24.93,24.93,0,0,1,2.49.62,13,13,0,0,1,2,.9,4.18,4.18,0,0,1,1.65,1.51,4.36,4.36,0,0,1,.54,2.23A4.31,4.31,0,0,1,99.84,89,9.77,9.77,0,0,1,94.45,90.37Zm20.46-2.89a7.67,7.67,0,0,0,3.23-.68A3.91,3.91,0,0,0,120.2,85h3.39a7.92,7.92,0,0,1-3.42,3.93,10.3,10.3,0,0,1-5.44,1.49,9.53,9.53,0,0,1-6.82-2.63,8.69,8.69,0,0,1-2.76-6.57,8.84,8.84,0,0,1,2.63-6.46,9.15,9.15,0,0,1,6.78-2.64A8.7,8.7,0,0,1,121.45,75,10.65,10.65,0,0,1,124,82.3H108.58a6,6,0,0,0,2.13,3.76A6.37,6.37,0,0,0,114.91,87.48ZM114.56,75a6,6,0,0,0-4,1.32,5.62,5.62,0,0,0-1.94,3.39H120.5a5.92,5.92,0,0,0-2-3.45A6,6,0,0,0,114.56,75Zm28-11H146V89.93h-3l-.16-4h-.07a6.27,6.27,0,0,1-2.7,3.18,8,8,0,0,1-4.25,1.22,8.62,8.62,0,0,1-6.26-2.63,8.84,8.84,0,0,1-2.67-6.57,8.7,8.7,0,0,1,2.67-6.49,8.61,8.61,0,0,1,6.23-2.61,7.56,7.56,0,0,1,4.14,1.22,6.13,6.13,0,0,1,2.59,3.17h.07ZM132.06,85.54a6.12,6.12,0,1,0-1.79-4.32A5.93,5.93,0,0,0,132.06,85.54Zm36.5,1.94a7.67,7.67,0,0,0,3.23-.68A4,4,0,0,0,173.85,85h3.39a7.92,7.92,0,0,1-3.42,3.93,10.3,10.3,0,0,1-5.44,1.49,9.51,9.51,0,0,1-6.82-2.63,8.69,8.69,0,0,1-2.76-6.57,8.84,8.84,0,0,1,2.63-6.46,9.15,9.15,0,0,1,6.78-2.64A8.72,8.72,0,0,1,175.1,75a10.65,10.65,0,0,1,2.56,7.31H162.23a6,6,0,0,0,2.13,3.76A6.34,6.34,0,0,0,168.56,87.48ZM168.21,75a6,6,0,0,0-4,1.32,5.68,5.68,0,0,0-2,3.39h11.89a5.88,5.88,0,0,0-2-3.45A6,6,0,0,0,168.21,75Zm30.21,15H194.5l-5.36-6.45-5.41,6.45h-3.92l7.38-8.86-7.14-8.56H184l5.15,6.15,5.13-6.15h3.94l-7.14,8.56Zm20.23-6a7.67,7.67,0,0,1-3.08,4.58,9.3,9.3,0,0,1-5.67,1.84,9.49,9.49,0,0,1-6.78-2.69,8.8,8.8,0,0,1,0-12.93,9.48,9.48,0,0,1,6.78-2.68,9.25,9.25,0,0,1,5.69,1.82,7.65,7.65,0,0,1,3.06,4.56h-3.53a4.75,4.75,0,0,0-2-2.44,6.14,6.14,0,1,0-3.28,11.33,5.76,5.76,0,0,0,3.25-.94,5.22,5.22,0,0,0,2-2.45Zm4.52,6V64h3.43V76.53h.07A6.51,6.51,0,0,1,229,73.29a6.22,6.22,0,0,1,3.71-1.22,7.22,7.22,0,0,1,5.65,2.4,8.65,8.65,0,0,1,2.16,6v9.44h-3.41V80.82a5.8,5.8,0,0,0-1.5-4,4.86,4.86,0,0,0-3.79-1.66,4.77,4.77,0,0,0-3.71,1.73A6,6,0,0,0,226.6,81v8.93Zm30.59.44a9.12,9.12,0,0,1-9-9.15,9.12,9.12,0,0,1,9-9.15A7.84,7.84,0,0,1,258,73.29a6.25,6.25,0,0,1,2.67,3.17h.07l.12-3.95h3.06V89.93h-3.06l-.12-4h-.07a6.38,6.38,0,0,1-2.7,3.19A7.8,7.8,0,0,1,253.76,90.37ZM250,85.54a6.12,6.12,0,1,0-1.79-4.32A5.89,5.89,0,0,0,250,85.54Zm19.9,4.39V72.51h3l.21,4h0a6.78,6.78,0,0,1,2.48-3.24,6.53,6.53,0,0,1,3.83-1.22,7.24,7.24,0,0,1,5.65,2.4,8.69,8.69,0,0,1,2.15,6v9.44h-3.41V80.82a5.84,5.84,0,0,0-1.49-4,4.88,4.88,0,0,0-3.8-1.66,4.79,4.79,0,0,0-3.71,1.73A6,6,0,0,0,273.3,81v8.93Zm31.71,8.28a10.43,10.43,0,0,1-5.84-1.64A8.15,8.15,0,0,1,292.36,92H296a5.18,5.18,0,0,0,2.2,2.51,6.46,6.46,0,0,0,3.39.9,6.28,6.28,0,0,0,4.5-1.71,5.81,5.81,0,0,0,1.79-4.41V85.29l0-.11a6,6,0,0,1-2.67,3.28,8.08,8.08,0,0,1-4.31,1.22,8.62,8.62,0,0,1-6.16-2.5,8.74,8.74,0,0,1,.05-12.55A8.72,8.72,0,0,1,301,72.07a8,8,0,0,1,4.27,1.2,6.23,6.23,0,0,1,2.68,3.19H308l.1-3.95h3.06V88.89a8.82,8.82,0,0,1-2.73,6.79A9.71,9.71,0,0,1,301.59,98.21Zm.24-11.31a5.7,5.7,0,0,0,4.2-1.76,5.9,5.9,0,0,0,1.75-4.28A5.67,5.67,0,0,0,306,76.72a6,6,0,0,0-8.52,0,5.86,5.86,0,0,0,0,8.42A5.91,5.91,0,0,0,301.83,86.9Zm23.61.58a7.72,7.72,0,0,0,3.24-.68A3.92,3.92,0,0,0,330.73,85h3.39a8,8,0,0,1-3.41,3.93,10.32,10.32,0,0,1-5.44,1.49,9.51,9.51,0,0,1-6.82-2.63,8.69,8.69,0,0,1-2.76-6.57,8.83,8.83,0,0,1,2.62-6.46,9.16,9.16,0,0,1,6.78-2.64A8.7,8.7,0,0,1,332,75a10.66,10.66,0,0,1,2.57,7.31H319.11a6,6,0,0,0,2.13,3.76A6.37,6.37,0,0,0,325.44,87.48ZM325.09,75a6,6,0,0,0-4,1.32,5.67,5.67,0,0,0-1.94,3.39H331a5.92,5.92,0,0,0-2-3.45A6,6,0,0,0,325.09,75Z"/></g></g></svg>