<svg xmlns="http://www.w3.org/2000/svg" viewBox="0 0 212.16 42"><defs><style>.cls-1{fill:#68b82e;}.cls-2{fill:#fff;}</style></defs><title>Ресурс 3</title><g id="Слой_2" data-name="Слой 2"><g id="Слой_4" data-name="Слой 4"><rect class="cls-1" width="212.16" height="42" rx="21" ry="21"/><path class="cls-2" d="M38.7,25.88h8.64v2.58H35.62V11.18H38.7Z"/><path class="cls-2" d="M56,26.37a4.94,4.94,0,0,0,2.12-.44,2.7,2.7,0,0,0,1.37-1.21l2.83.15a5.75,5.75,0,0,1-2.46,2.82,7.56,7.56,0,0,1-4,1.09,7,7,0,0,1-5-1.9,6.19,6.19,0,0,1-2-4.72,6.33,6.33,0,0,1,2-4.68,6.76,6.76,0,0,1,4.94-1.92,6.35,6.35,0,0,1,5,2.14,7.79,7.79,0,0,1,1.89,5.35H51.81a3.92,3.92,0,0,0,1.41,2.42A4.25,4.25,0,0,0,56,26.37ZM55.76,18a4,4,0,0,0-2.62.83A3.84,3.84,0,0,0,51.81,21h7.85a3.87,3.87,0,0,0-1.36-2.25A3.92,3.92,0,0,0,55.76,18Z"/><path class="cls-2" d="M71,28.78a6.57,6.57,0,0,1-6.45-6.62A6.59,6.59,0,0,1,71,15.56a5.63,5.63,0,0,1,2.89.79,4.12,4.12,0,0,1,1.84,2h0l.12-2.5h2.59V28.46H75.93L75.81,26h0a4.22,4.22,0,0,1-1.87,2A5.67,5.67,0,0,1,71,28.78ZM68.7,25a4,4,0,0,0,6.84-2.86,4,4,0,0,0-8,0A3.89,3.89,0,0,0,68.7,25Z"/><path class="cls-2" d="M82.61,28.46V15.9h2.61L85.37,19h0a4.73,4.73,0,0,1,1.81-2.47,5,5,0,0,1,2.81-.9v2.63a4.29,4.29,0,0,0-3.28,1.29,4.67,4.67,0,0,0-1.22,3.34v5.56Z"/><path class="cls-2" d="M92.85,28.46V15.9h2.61l.15,2.52h0a4.81,4.81,0,0,1,1.75-2.07,4.66,4.66,0,0,1,2.61-.79,5.22,5.22,0,0,1,4.06,1.73,6.22,6.22,0,0,1,1.54,4.31v6.86h-2.94V21.89a3.73,3.73,0,0,0-1-2.61,3.26,3.26,0,0,0-4.88,0,3.81,3.81,0,0,0-1,2.67v6.47Z"/><path class="cls-2" d="M130.69,15.56a5.21,5.21,0,0,1,4,1.67,5.86,5.86,0,0,1,1.54,4.17v7.06H133.3V21.52a3.43,3.43,0,0,0-.86-2.36,2.83,2.83,0,0,0-4.28,0,3.56,3.56,0,0,0-.89,2.42v6.84h-2.94V21.52a3.42,3.42,0,0,0-.87-2.35,2.79,2.79,0,0,0-2.18-1,2.76,2.76,0,0,0-2.11,1,3.49,3.49,0,0,0-.91,2.42v6.84h-2.93V15.9h2.6l.15,2.32h0a4.35,4.35,0,0,1,1.62-1.93,4.09,4.09,0,0,1,2.33-.73,4.74,4.74,0,0,1,4.28,2.37A4.82,4.82,0,0,1,130.69,15.56Z"/><path class="cls-2" d="M146.08,28.78a6.91,6.91,0,0,1-4.91-1.94,6.35,6.35,0,0,1,0-9.33,7.18,7.18,0,0,1,9.84,0,6.31,6.31,0,0,1,0,9.33A6.94,6.94,0,0,1,146.08,28.78Zm0-2.58a4,4,0,0,0,2.86-6.86,3.93,3.93,0,0,0-2.86-1.17,3.88,3.88,0,0,0-2.82,1.17,3.82,3.82,0,0,0-1.19,2.82A3.88,3.88,0,0,0,143.26,25,3.83,3.83,0,0,0,146.08,26.2Z"/><path class="cls-2" d="M156.13,28.46V15.9h2.61l.15,3.11h.05a4.73,4.73,0,0,1,1.81-2.47,5,5,0,0,1,2.81-.9v2.63a4.29,4.29,0,0,0-3.28,1.29,4.67,4.67,0,0,0-1.22,3.34v5.56Z"/><path class="cls-2" d="M172,26.37a5,5,0,0,0,2.13-.44,2.68,2.68,0,0,0,1.36-1.21l2.83.15a5.65,5.65,0,0,1-2.46,2.82,7.56,7.56,0,0,1-4,1.09,7,7,0,0,1-5-1.9,6.15,6.15,0,0,1-2-4.72,6.36,6.36,0,0,1,1.94-4.68,6.76,6.76,0,0,1,4.95-1.92,6.38,6.38,0,0,1,5,2.14,7.83,7.83,0,0,1,1.88,5.35H167.83a4,4,0,0,0,1.41,2.42A4.27,4.27,0,0,0,172,26.37Zm-.2-8.41a4,4,0,0,0-2.62.83A3.85,3.85,0,0,0,167.83,21h7.85a3.91,3.91,0,0,0-1.35-2.25A4,4,0,0,0,171.79,18Z"/></g></g></svg>