<svg xmlns="http://www.w3.org/2000/svg" viewBox="0 0 901.06 33.86"><defs><style>.cls-1{fill:#0c4384;}</style></defs><title>Ресурс 5</title><g id="Слой_2" data-name="Слой 2"><g id="Слой_4" data-name="Слой 4"><path class="cls-1" d="M19.92,1.81v3H11.78v21.1H8.17V4.83H0v-3Zm1,24.12V8.51h3l.21,4.71h0a7,7,0,0,1,2.54-3.71,6.84,6.84,0,0,1,4.05-1.37v3.09a6,6,0,0,0-4.67,1.92A6.86,6.86,0,0,0,24.33,18v7.93Zm20.83.44a8.77,8.77,0,0,1-6.28-2.63,8.72,8.72,0,0,1-2.72-6.52,8.7,8.7,0,0,1,2.72-6.52,8.72,8.72,0,0,1,6.28-2.63A7.87,7.87,0,0,1,46,9.29a6.27,6.27,0,0,1,2.66,3.17h.07l.12-4h3.06V25.93H48.83l-.12-4h-.07a6.33,6.33,0,0,1-2.7,3.19A7.78,7.78,0,0,1,41.73,26.37ZM38,21.54a6.14,6.14,0,0,0,10.48-4.32,5.94,5.94,0,0,0-1.79-4.33,6.14,6.14,0,0,0-8.69,0,6.12,6.12,0,0,0,0,8.65ZM72.11,0h3.42V25.93h-3l-.16-4h-.07a6.27,6.27,0,0,1-2.7,3.18,8,8,0,0,1-4.24,1.22,8.66,8.66,0,0,1-6.27-2.63,8.86,8.86,0,0,1-2.66-6.57,8.73,8.73,0,0,1,2.66-6.49A8.62,8.62,0,0,1,65.3,8.07a7.56,7.56,0,0,1,4.14,1.22A6.15,6.15,0,0,1,72,12.46h.07ZM61.63,21.54a6.14,6.14,0,0,0,10.48-4.32,6.14,6.14,0,0,0-12.27,0A5.88,5.88,0,0,0,61.63,21.54Zm28.18,1.94A7.67,7.67,0,0,0,93,22.8,4,4,0,0,0,95.1,21h3.39a7.92,7.92,0,0,1-3.42,3.93,10.3,10.3,0,0,1-5.44,1.49,9.51,9.51,0,0,1-6.82-2.63,8.69,8.69,0,0,1-2.76-6.57,8.84,8.84,0,0,1,2.63-6.46,9.15,9.15,0,0,1,6.78-2.64A8.72,8.72,0,0,1,96.35,11a10.65,10.65,0,0,1,2.56,7.31H83.48a6,6,0,0,0,2.13,3.76A6.34,6.34,0,0,0,89.81,23.48ZM89.46,11a6,6,0,0,0-4,1.32,5.68,5.68,0,0,0-1.95,3.39H95.4a5.92,5.92,0,0,0-2-3.45A6,6,0,0,0,89.46,11ZM114.93,0V12.46H115a6.08,6.08,0,0,1,2.59-3.17,7.56,7.56,0,0,1,4.14-1.22A8.58,8.58,0,0,1,128,10.68a8.73,8.73,0,0,1,2.66,6.49,8.84,8.84,0,0,1-2.67,6.56,8.59,8.59,0,0,1-6.25,2.64,7.92,7.92,0,0,1-4.25-1.23A6.31,6.31,0,0,1,114.73,22h-.07l-.14,4h-3V0ZM121,23.34a6.16,6.16,0,0,0,6.16-6.12A6.16,6.16,0,0,0,121,11.09a6.15,6.15,0,0,0-6.11,6.13A6.15,6.15,0,0,0,121,23.34Zm29,.34a9.84,9.84,0,0,1-13.52,0,8.66,8.66,0,0,1-2.81-6.47,8.62,8.62,0,0,1,2.81-6.46,9.87,9.87,0,0,1,13.52,0,8.64,8.64,0,0,1,2.79,6.46A8.68,8.68,0,0,1,150,23.68Zm-11.09-2.14a6.14,6.14,0,0,0,10.46-4.32,5.88,5.88,0,0,0-1.81-4.33,6.11,6.11,0,0,0-8.66,0,6.08,6.08,0,0,0,0,8.65Zm26.54,1.72a8.64,8.64,0,0,0,2.81-.57v3a6.88,6.88,0,0,1-3.35.69,6.3,6.3,0,0,1-4.95-2,7.11,7.11,0,0,1-1.79-4.94V11.23h-3.53V8.51h3.53V3.64h3.43V8.51h6.61v2.72h-6.61v7.93a4.36,4.36,0,0,0,1,2.94A3.53,3.53,0,0,0,165.48,23.26Zm7.26,2.67V0h3.43V12.53h.07a6.51,6.51,0,0,1,2.37-3.24,6.22,6.22,0,0,1,3.71-1.22,7.22,7.22,0,0,1,5.65,2.4,8.64,8.64,0,0,1,2.15,6v9.44h-3.41V16.82a5.79,5.79,0,0,0-1.49-4,4.88,4.88,0,0,0-3.8-1.66,4.8,4.8,0,0,0-3.71,1.73A6,6,0,0,0,176.17,17v8.93Zm55.14-8.39a12.15,12.15,0,0,1-4.58,6.34,13,13,0,0,1-16.72-1.19,11.88,11.88,0,0,1-3.76-8.82A11.9,11.9,0,0,1,206.58,5,13,13,0,0,1,223.3,3.86a12.15,12.15,0,0,1,4.58,6.34h-3.74a9.16,9.16,0,0,0-3.37-4,9.24,9.24,0,0,0-11.65,1.15,8.91,8.91,0,0,0-2.7,6.55,8.91,8.91,0,0,0,2.7,6.55,9.25,9.25,0,0,0,11.66,1.15,9.14,9.14,0,0,0,3.39-4Zm4.75,8.39V8.51h3l.21,4.71h0a7,7,0,0,1,2.54-3.71,6.84,6.84,0,0,1,4.05-1.37v3.09a6,6,0,0,0-4.68,1.92A6.9,6.9,0,0,0,236.06,18v7.93Zm13.71,7.93,5.5-10.45-7.7-14.9h3.75l5.71,11.58,5.77-11.58h3.74L250,33.86Zm20,0V8.51h3l.14,4h.07a6.23,6.23,0,0,1,2.68-3.19,8,8,0,0,1,4.25-1.2,8.66,8.66,0,0,1,6.26,2.63,8.75,8.75,0,0,1,2.69,6.52,8.79,8.79,0,0,1-2.67,6.52,8.49,8.49,0,0,1-6.14,2.63,7.53,7.53,0,0,1-4.21-1.25A6.24,6.24,0,0,1,269.88,22h-.07V33.86Zm5.22-12.32a5.86,5.86,0,0,0,4.32,1.8,6,6,0,0,0,4.34-1.8,6.06,6.06,0,0,0,0-8.65,6.13,6.13,0,0,0-10.46,4.33A5.88,5.88,0,0,0,271.6,21.54Zm26.52,1.72a8.69,8.69,0,0,0,2.82-.57v3a6.89,6.89,0,0,1-3.36.69,6.3,6.3,0,0,1-4.95-2,7.1,7.1,0,0,1-1.78-4.94V11.23h-3.54V8.51h3.54V3.64h3.43V8.51h6.6v2.72h-6.6v7.93a4.41,4.41,0,0,0,1,2.94A3.56,3.56,0,0,0,298.12,23.26Zm22,.42a9.84,9.84,0,0,1-13.52,0,8.66,8.66,0,0,1-2.81-6.47,8.62,8.62,0,0,1,2.81-6.46,9.87,9.87,0,0,1,13.52,0,8.64,8.64,0,0,1,2.79,6.46A8.68,8.68,0,0,1,320.1,23.68ZM309,21.54a6.13,6.13,0,0,0,10.45-4.32A6.13,6.13,0,1,0,309,21.54Zm34.31,4.83a9.12,9.12,0,0,1-9-9.15A8.69,8.69,0,0,1,337,10.7a8.75,8.75,0,0,1,6.29-2.63,7.84,7.84,0,0,1,4.24,1.22,6.25,6.25,0,0,1,2.67,3.17h.07l.12-4h3.06V25.93h-3.06l-.12-4h-.07a6.38,6.38,0,0,1-2.7,3.19A7.8,7.8,0,0,1,343.32,26.37Zm-3.78-4.83A6.14,6.14,0,0,0,350,17.22a6.14,6.14,0,0,0-12.27,0A5.88,5.88,0,0,0,339.54,21.54Zm19.9,4.39V8.51h3l.21,4h0a6.78,6.78,0,0,1,2.48-3.24A6.53,6.53,0,0,1,369,8.07a7.24,7.24,0,0,1,5.65,2.4,8.69,8.69,0,0,1,2.15,6v9.44h-3.41V16.82a5.84,5.84,0,0,0-1.49-4,4.88,4.88,0,0,0-3.8-1.66,4.79,4.79,0,0,0-3.71,1.73A6,6,0,0,0,362.87,17v8.93ZM396.72,0h3.43V25.93h-3L397,22h-.07a6.27,6.27,0,0,1-2.7,3.18A8,8,0,0,1,390,26.37a8.62,8.62,0,0,1-6.26-2.63A8.84,8.84,0,0,1,381,17.17a8.7,8.7,0,0,1,2.67-6.49,8.61,8.61,0,0,1,6.23-2.61,7.56,7.56,0,0,1,4.14,1.22,6.13,6.13,0,0,1,2.59,3.17h.07ZM386.24,21.54a6.13,6.13,0,0,0,10.48-4.32,6.14,6.14,0,1,0-10.48,4.32ZM431.38,4.83H418.31v7.91h12.57v2.85H418.31V25.93H414.7V1.81h16.68Zm8.41-.22a2.14,2.14,0,0,1-1.55.65,2.16,2.16,0,0,1-1.56-.65A2,2,0,0,1,436,3.07a2.05,2.05,0,0,1,.67-1.55,2.15,2.15,0,0,1,1.56-.64,2.13,2.13,0,0,1,1.55.64,2.11,2.11,0,0,1,.65,1.55A2.09,2.09,0,0,1,439.79,4.61Zm-3.27,21.32V8.51H440V25.93Zm16.94.44a8.77,8.77,0,0,1-6.28-2.63,8.72,8.72,0,0,1-2.72-6.52,8.7,8.7,0,0,1,2.72-6.52,8.72,8.72,0,0,1,6.28-2.63,7.87,7.87,0,0,1,4.25,1.22,6.27,6.27,0,0,1,2.66,3.17h.07l.12-4h3.06V25.93h-3.06l-.12-4h-.07a6.29,6.29,0,0,1-2.7,3.19A7.78,7.78,0,0,1,453.46,26.37Zm-3.78-4.83a6.13,6.13,0,0,0,10.48-4.32,6.14,6.14,0,1,0-10.48,4.32Zm28,1.72a8.69,8.69,0,0,0,2.81-.57v3a6.89,6.89,0,0,1-3.36.69,6.3,6.3,0,0,1-4.95-2,7.1,7.1,0,0,1-1.78-4.94V11.23h-3.53V8.51h3.53V3.64h3.43V8.51h6.61v2.72h-6.61v7.93a4.41,4.41,0,0,0,1,2.94A3.57,3.57,0,0,0,477.69,23.26ZM510.19,20a7.68,7.68,0,0,1-3.09,4.58,9.25,9.25,0,0,1-5.67,1.84,9.52,9.52,0,0,1-6.78-2.69,8.61,8.61,0,0,1-2.83-6.47,8.57,8.57,0,0,1,2.83-6.46,9.51,9.51,0,0,1,6.78-2.68,9.23,9.23,0,0,1,5.69,1.82,7.67,7.67,0,0,1,3.07,4.56h-3.54a4.73,4.73,0,0,0-2-2.44,5.94,5.94,0,0,0-3.29-.95,5.87,5.87,0,0,0-4.35,1.82,6,6,0,0,0-1.8,4.34,6.16,6.16,0,0,0,6.15,6.12,5.73,5.73,0,0,0,3.25-.94,5.22,5.22,0,0,0,2-2.45ZM531.26,8.51V25.93h-3l-.21-4h0a6.71,6.71,0,0,1-2.4,3.25,6.11,6.11,0,0,1-3.68,1.22A6.87,6.87,0,0,1,516.48,24a8.9,8.9,0,0,1-2.09-6V8.51h3.41v9.14a5.85,5.85,0,0,0,1.42,4,4.68,4.68,0,0,0,7.14-.07,6,6,0,0,0,1.49-4.13v-9Zm6,17.42V8.51h3l.21,4.71h0a7,7,0,0,1,2.54-3.71,6.84,6.84,0,0,1,4.05-1.37v3.09a6,6,0,0,0-4.67,1.92A6.86,6.86,0,0,0,540.67,18v7.93Zm14,0V8.51h3l.21,4.71h0a6.92,6.92,0,0,1,2.54-3.71,6.84,6.84,0,0,1,4-1.37v3.09a6,6,0,0,0-4.68,1.92A6.9,6.9,0,0,0,554.7,18v7.93Zm21.58-2.45a7.72,7.72,0,0,0,3.24-.68,3.88,3.88,0,0,0,2-1.85h3.4a8,8,0,0,1-3.42,3.93,10.32,10.32,0,0,1-5.44,1.49,9.51,9.51,0,0,1-6.82-2.63,8.69,8.69,0,0,1-2.76-6.57,8.8,8.8,0,0,1,2.63-6.46,9.14,9.14,0,0,1,6.77-2.64A8.7,8.7,0,0,1,579.39,11,10.66,10.66,0,0,1,582,18.3H566.53a6,6,0,0,0,2.12,3.76A6.37,6.37,0,0,0,572.85,23.48ZM572.5,11a6,6,0,0,0-4,1.32,5.72,5.72,0,0,0-1.94,3.39h11.88a5.87,5.87,0,0,0-2-3.45A6,6,0,0,0,572.5,11Zm13.73,15V8.51h3l.21,4h0A6.74,6.74,0,0,1,592,9.29a6.5,6.5,0,0,1,3.82-1.22,7.22,7.22,0,0,1,5.65,2.4,8.65,8.65,0,0,1,2.16,6v9.44h-3.41V16.82a5.8,5.8,0,0,0-1.5-4,4.88,4.88,0,0,0-3.8-1.66,4.77,4.77,0,0,0-3.7,1.73A6,6,0,0,0,589.66,17v8.93Zm40-6a7.68,7.68,0,0,1-3.09,4.58,9.3,9.3,0,0,1-5.67,1.84,9.49,9.49,0,0,1-6.78-2.69,8.61,8.61,0,0,1-2.83-6.47,8.57,8.57,0,0,1,2.83-6.46,9.48,9.48,0,0,1,6.78-2.68,9.25,9.25,0,0,1,5.69,1.82,7.67,7.67,0,0,1,3.07,4.56h-3.54a4.7,4.7,0,0,0-2-2.44,6.12,6.12,0,0,0-7.63.87,6.08,6.08,0,0,0,0,8.66,6,6,0,0,0,4.35,1.8,5.73,5.73,0,0,0,3.25-.94,5.22,5.22,0,0,0,2-2.45ZM634,4.61a2.12,2.12,0,0,1-1.54.65,2.2,2.2,0,0,1-1.57-.65,2.07,2.07,0,0,1-.67-1.54,2.09,2.09,0,0,1,.67-1.55,2.19,2.19,0,0,1,1.57-.64,2.11,2.11,0,0,1,1.54.64,2.07,2.07,0,0,1,.65,1.55A2,2,0,0,1,634,4.61ZM630.7,25.93V8.51h3.43V25.93Zm17.7-2.45a7.72,7.72,0,0,0,3.24-.68A4,4,0,0,0,653.7,21h3.39a8,8,0,0,1-3.42,3.93,10.32,10.32,0,0,1-5.44,1.49,9.51,9.51,0,0,1-6.82-2.63,8.69,8.69,0,0,1-2.76-6.57,8.8,8.8,0,0,1,2.63-6.46,9.14,9.14,0,0,1,6.77-2.64A8.69,8.69,0,0,1,654.94,11a10.66,10.66,0,0,1,2.57,7.31H642.08a6,6,0,0,0,2.12,3.76A6.37,6.37,0,0,0,648.4,23.48ZM648.05,11a6,6,0,0,0-4,1.32,5.72,5.72,0,0,0-1.94,3.39H654a5.87,5.87,0,0,0-2-3.45A6,6,0,0,0,648.05,11Zm21,15.42A11,11,0,0,1,663.37,25a4.72,4.72,0,0,1-2.45-4.1h3.67q.18,2.72,4.31,2.71,3.89,0,3.9-2.27a1.91,1.91,0,0,0-.08-.59,1.4,1.4,0,0,0-.27-.51,2.83,2.83,0,0,0-.38-.39,2.22,2.22,0,0,0-.53-.33l-.61-.27a5.62,5.62,0,0,0-.74-.23l-.77-.2-.85-.2-.85-.2a14.44,14.44,0,0,1-2.23-.64,12.27,12.27,0,0,1-1.92-1A4.06,4.06,0,0,1,662,15.28a4.35,4.35,0,0,1-.54-2.2,4.2,4.2,0,0,1,2-3.69,9,9,0,0,1,5.09-1.32,10.36,10.36,0,0,1,5.22,1.28,4.47,4.47,0,0,1,2.34,3.94h-3.54a2.18,2.18,0,0,0-1.27-1.86,5.9,5.9,0,0,0-2.68-.58,5.4,5.4,0,0,0-2.54.53,1.75,1.75,0,0,0-1,1.66,1.69,1.69,0,0,0,.27,1,2.32,2.32,0,0,0,.62.66,4.46,4.46,0,0,0,1.1.5c.5.17.91.3,1.24.38s.83.2,1.53.35a24.53,24.53,0,0,1,2.5.62,13.39,13.39,0,0,1,2.05.9A4.09,4.09,0,0,1,676,18.92a4.26,4.26,0,0,1,.55,2.23A4.31,4.31,0,0,1,674.42,25,9.83,9.83,0,0,1,669,26.37ZM692.75,4.61a2.12,2.12,0,0,1-1.54.65,2.2,2.2,0,0,1-1.57-.65A2.07,2.07,0,0,1,689,3.07a2.09,2.09,0,0,1,.67-1.55,2.19,2.19,0,0,1,1.57-.64,2.11,2.11,0,0,1,1.54.64,2.07,2.07,0,0,1,.65,1.55A2,2,0,0,1,692.75,4.61Zm-3.27,21.32V8.51h3.43V25.93Zm9.39,0V8.51h3l.22,4h0a6.74,6.74,0,0,1,2.49-3.24,6.5,6.5,0,0,1,3.82-1.22,7.22,7.22,0,0,1,5.65,2.4,8.65,8.65,0,0,1,2.16,6v9.44h-3.41V16.82a5.8,5.8,0,0,0-1.5-4,4.86,4.86,0,0,0-3.8-1.66,4.77,4.77,0,0,0-3.7,1.73A6,6,0,0,0,702.3,17v8.93Zm46.23-2.25a9.84,9.84,0,0,1-13.52,0,8.66,8.66,0,0,1-2.81-6.47,8.62,8.62,0,0,1,2.81-6.46,9.87,9.87,0,0,1,13.52,0,8.61,8.61,0,0,1,2.8,6.46A8.65,8.65,0,0,1,745.1,23.68ZM734,21.54a6.13,6.13,0,0,0,10.46-4.32A6.14,6.14,0,1,0,734,21.54Zm18.44,4.39V8.51h3l.21,4h0a6.74,6.74,0,0,1,2.49-3.24A6.5,6.5,0,0,1,762,8.07a7.22,7.22,0,0,1,5.65,2.4,8.64,8.64,0,0,1,2.15,6v9.44h-3.41V16.82a5.79,5.79,0,0,0-1.49-4,4.88,4.88,0,0,0-3.8-1.66,4.8,4.8,0,0,0-3.71,1.73A6,6,0,0,0,755.88,17v8.93Zm31.34-2.45A7.72,7.72,0,0,0,787,22.8,3.92,3.92,0,0,0,789.08,21h3.4a8,8,0,0,1-3.42,3.93,10.32,10.32,0,0,1-5.44,1.49,9.51,9.51,0,0,1-6.82-2.63A8.69,8.69,0,0,1,774,17.17a8.83,8.83,0,0,1,2.62-6.46,9.16,9.16,0,0,1,6.78-2.64A8.7,8.7,0,0,1,790.33,11a10.66,10.66,0,0,1,2.57,7.31H777.46a6,6,0,0,0,2.13,3.76A6.37,6.37,0,0,0,783.79,23.48ZM783.44,11a6,6,0,0,0-4,1.32,5.67,5.67,0,0,0-1.94,3.39h11.88a5.92,5.92,0,0,0-2-3.45A6,6,0,0,0,783.44,11Zm22,22.91V8.51h3l.14,4h.07a6.18,6.18,0,0,1,2.68-3.19,8,8,0,0,1,4.24-1.2,8.65,8.65,0,0,1,6.26,2.63,8.75,8.75,0,0,1,2.69,6.52,8.82,8.82,0,0,1-2.66,6.52,8.53,8.53,0,0,1-6.15,2.63,7.58,7.58,0,0,1-4.21-1.25A6.29,6.29,0,0,1,809,22h-.07V33.86Zm5.22-12.32a5.89,5.89,0,0,0,4.32,1.8,6,6,0,0,0,4.34-1.8,6.07,6.07,0,0,0,0-8.65,6.14,6.14,0,0,0-10.47,4.33A5.92,5.92,0,0,0,810.7,21.54Zm18.43,4.39V0h3.42V25.93Zm16.94.44a8.77,8.77,0,0,1-6.28-2.63,8.72,8.72,0,0,1-2.72-6.52,8.7,8.7,0,0,1,2.72-6.52,8.72,8.72,0,0,1,6.28-2.63,7.87,7.87,0,0,1,4.25,1.22A6.27,6.27,0,0,1,853,12.46h.07l.12-4h3.06V25.93h-3.06l-.12-4H853a6.29,6.29,0,0,1-2.7,3.19A7.78,7.78,0,0,1,846.07,26.37Zm-3.78-4.83a6.14,6.14,0,0,0,10.48-4.32A5.94,5.94,0,0,0,851,12.89a6.14,6.14,0,0,0-8.69,0,6.12,6.12,0,0,0,0,8.65ZM879.12,20A7.68,7.68,0,0,1,876,24.53a9.25,9.25,0,0,1-5.67,1.84,9.52,9.52,0,0,1-6.78-2.69,8.61,8.61,0,0,1-2.83-6.47,8.57,8.57,0,0,1,2.83-6.46,9.51,9.51,0,0,1,6.78-2.68,9.23,9.23,0,0,1,5.69,1.82,7.62,7.62,0,0,1,3.07,4.56h-3.54a4.73,4.73,0,0,0-2-2.44,5.94,5.94,0,0,0-3.29-.95A5.87,5.87,0,0,0,866,12.88a6,6,0,0,0-1.8,4.34,6.16,6.16,0,0,0,6.15,6.12,5.73,5.73,0,0,0,3.25-.94,5.22,5.22,0,0,0,2-2.45ZM892,23.48a7.64,7.64,0,0,0,3.23-.68A3.91,3.91,0,0,0,897.24,21h3.39a7.92,7.92,0,0,1-3.42,3.93,10.27,10.27,0,0,1-5.44,1.49A9.53,9.53,0,0,1,885,23.74a8.69,8.69,0,0,1-2.76-6.57,8.84,8.84,0,0,1,2.63-6.46,9.15,9.15,0,0,1,6.78-2.64A8.7,8.7,0,0,1,898.49,11a10.66,10.66,0,0,1,2.57,7.31H885.62a6,6,0,0,0,2.13,3.76A6.37,6.37,0,0,0,892,23.48ZM891.6,11a6,6,0,0,0-4,1.32,5.62,5.62,0,0,0-1.94,3.39h11.88a5.92,5.92,0,0,0-2-3.45A6,6,0,0,0,891.6,11Z"/></g></g></svg>