<svg xmlns="http://www.w3.org/2000/svg" viewBox="0 0 1084.89 34.63"><defs><style>.cls-1{fill:#0c4384;}</style></defs><title>Ресурс 8</title><g id="Слой_2" data-name="Слой 2"><g id="Слой_4" data-name="Слой 4"><path class="cls-1" d="M0,26.35V2.23H3.6V26.35Zm9.86,0V8.93h3l.22,4h0a6.76,6.76,0,0,1,2.49-3.25,6.5,6.5,0,0,1,3.82-1.22,7.22,7.22,0,0,1,5.65,2.4,8.67,8.67,0,0,1,2.16,6v9.44H23.84V17.24a5.8,5.8,0,0,0-1.5-4,4.86,4.86,0,0,0-3.8-1.66,4.8,4.8,0,0,0-3.7,1.73,6,6,0,0,0-1.55,4.14v8.93Zm31-2.67a8.92,8.92,0,0,0,2.81-.56v3a6.89,6.89,0,0,1-3.36.69,6.3,6.3,0,0,1-5-2,7.1,7.1,0,0,1-1.78-4.94V11.65H30V8.93h3.53V4.06H37V8.93h6.61v2.72H37v7.93a4.45,4.45,0,0,0,1,3A3.59,3.59,0,0,0,40.82,23.68Zm7.26,2.67V8.93h3l.21,4.71h0a6.92,6.92,0,0,1,2.54-3.71,6.84,6.84,0,0,1,4-1.37v3.09a6,6,0,0,0-4.68,1.92,6.9,6.9,0,0,0-1.76,4.85v7.93ZM76.24,24.1a9.84,9.84,0,0,1-13.52,0,8.61,8.61,0,0,1-2.81-6.47,8.59,8.59,0,0,1,2.81-6.46,9.87,9.87,0,0,1,13.52,0A8.64,8.64,0,0,1,79,17.63,8.66,8.66,0,0,1,76.24,24.1ZM65.14,22a5.92,5.92,0,0,0,4.34,1.81A5.86,5.86,0,0,0,73.8,22a6.08,6.08,0,0,0,0-8.64,6.14,6.14,0,0,0-10.47,4.32A5.9,5.9,0,0,0,65.14,22ZM97.84.42h3.43V26.35h-3l-.15-4H98a6.23,6.23,0,0,1-2.7,3.18,8,8,0,0,1-4.25,1.22,8.62,8.62,0,0,1-6.26-2.63,8.83,8.83,0,0,1-2.67-6.56,8.73,8.73,0,0,1,2.67-6.5A8.61,8.61,0,0,1,91,8.49a7.56,7.56,0,0,1,4.14,1.22,6.17,6.17,0,0,1,2.59,3.17h.07ZM87.36,22a6.13,6.13,0,0,0,10.48-4.32A6.14,6.14,0,1,0,87.36,22Zm36.43-13V26.35h-3l-.21-4h0a6.71,6.71,0,0,1-2.4,3.25,6.16,6.16,0,0,1-3.69,1.22A6.87,6.87,0,0,1,109,24.37a8.9,8.9,0,0,1-2.09-6V8.93h3.41v9.14a5.87,5.87,0,0,0,1.42,4,4.7,4.7,0,0,0,7.14-.07,6,6,0,0,0,1.5-4.14v-9Zm22.9,11.44A7.68,7.68,0,0,1,143.6,25a9.18,9.18,0,0,1-5.66,1.84,9.53,9.53,0,0,1-6.79-2.69,8.59,8.59,0,0,1-2.83-6.47,8.57,8.57,0,0,1,2.83-6.46,9.52,9.52,0,0,1,6.79-2.68,9.29,9.29,0,0,1,5.68,1.82,7.62,7.62,0,0,1,3.07,4.56h-3.53a4.76,4.76,0,0,0-2-2.43,6.11,6.11,0,0,0-7.64.86,6,6,0,0,0-1.8,4.34,6.18,6.18,0,0,0,6.15,6.13,5.81,5.81,0,0,0,3.25-.94,5.29,5.29,0,0,0,2-2.46ZM154.48,5a2.17,2.17,0,0,1-1.55.64A2.19,2.19,0,0,1,151.37,5a2.07,2.07,0,0,1-.67-1.55,2.07,2.07,0,0,1,.67-1.55,2.19,2.19,0,0,1,1.56-.64,2.17,2.17,0,0,1,1.55.64,2.12,2.12,0,0,1,.65,1.55A2.12,2.12,0,0,1,154.48,5Zm-3.27,21.31V8.93h3.42V26.35Zm9.38,0V8.93h3l.21,4h0a6.88,6.88,0,0,1,2.49-3.25,6.5,6.5,0,0,1,3.82-1.22,7.24,7.24,0,0,1,5.66,2.4,8.71,8.71,0,0,1,2.15,6v9.44h-3.41V17.24a5.8,5.8,0,0,0-1.5-4,5,5,0,0,0-7.5.07A6,6,0,0,0,164,17.42v8.93Zm31.71,8.28A10.4,10.4,0,0,1,186.47,33a8.06,8.06,0,0,1-3.39-4.62h3.63a5.18,5.18,0,0,0,2.2,2.51,6.51,6.51,0,0,0,3.39.9,6.28,6.28,0,0,0,4.5-1.7,5.82,5.82,0,0,0,1.8-4.42V21.71l0-.11a6,6,0,0,1-2.66,3.28,8,8,0,0,1-4.32,1.22,8.64,8.64,0,0,1-6.16-2.5,8.34,8.34,0,0,1-2.63-6.29,8.31,8.31,0,0,1,2.69-6.26,8.68,8.68,0,0,1,6.21-2.56A7.92,7.92,0,0,1,196,9.7a6.12,6.12,0,0,1,2.68,3.18h.07l.11-4h3.06V25.31a8.79,8.79,0,0,1-2.74,6.79A9.64,9.64,0,0,1,192.3,34.63Zm.25-11.3a5.67,5.67,0,0,0,4.19-1.77,5.84,5.84,0,0,0,1.75-4.28,5.7,5.7,0,0,0-1.76-4.14,5.81,5.81,0,0,0-4.26-1.77,5.87,5.87,0,0,0-4.26,1.75,5.75,5.75,0,0,0-1.78,4.23,5.67,5.67,0,0,0,1.81,4.19A5.92,5.92,0,0,0,192.55,23.33Zm47.94-9.94c0,.49.07.89.08,1.22a11.76,11.76,0,0,1-3.76,8.63,13.22,13.22,0,0,1-18.16-.12,11.94,11.94,0,0,1-3.76-8.83,11.92,11.92,0,0,1,3.76-8.82,12.54,12.54,0,0,1,9.09-3.68,13.07,13.07,0,0,1,7,2A12.75,12.75,0,0,1,239.59,9l-3.81.24a9.59,9.59,0,0,0-3.42-3.15A9.41,9.41,0,0,0,227.74,5a8.91,8.91,0,0,0-6.53,2.72,9,9,0,0,0-2.71,6.58,8.86,8.86,0,0,0,2.75,6.56,9.12,9.12,0,0,0,6.65,2.72,9.31,9.31,0,0,0,6-2.07,8.85,8.85,0,0,0,3.2-5.23H227V13.39Zm12.78,10.52a7.71,7.71,0,0,0,3.23-.69,4,4,0,0,0,2.06-1.84H262a8,8,0,0,1-3.42,3.92,10.3,10.3,0,0,1-5.44,1.49,9.51,9.51,0,0,1-6.82-2.63,8.68,8.68,0,0,1-2.76-6.56,8.81,8.81,0,0,1,2.63-6.46,9.11,9.11,0,0,1,6.77-2.65,8.69,8.69,0,0,1,6.89,2.92,10.61,10.61,0,0,1,2.57,7.31H246.94a6.07,6.07,0,0,0,2.12,3.76A6.39,6.39,0,0,0,253.27,23.91Zm-.36-12.54a6,6,0,0,0-4,1.32A5.68,5.68,0,0,0,247,16.08h11.89a5.88,5.88,0,0,0-2-3.45A6,6,0,0,0,252.91,11.37Zm21.84,12.31a8.92,8.92,0,0,0,2.81-.56v3a6.89,6.89,0,0,1-3.36.69,6.3,6.3,0,0,1-4.95-2,7.1,7.1,0,0,1-1.78-4.94V11.65h-3.53V8.93h3.53V4.06h3.43V8.93h6.61v2.72H270.9v7.93a4.45,4.45,0,0,0,1,3A3.59,3.59,0,0,0,274.75,23.68Zm15.39.23a7.72,7.72,0,0,0,3.24-.69,4,4,0,0,0,2.06-1.84h3.39a8,8,0,0,1-3.42,3.92A10.32,10.32,0,0,1,290,26.79a9.51,9.51,0,0,1-6.82-2.63,8.68,8.68,0,0,1-2.76-6.56A8.77,8.77,0,0,1,283,11.14a9.11,9.11,0,0,1,6.77-2.65,8.69,8.69,0,0,1,6.89,2.92,10.66,10.66,0,0,1,2.57,7.31H283.82a6,6,0,0,0,2.12,3.76A6.38,6.38,0,0,0,290.14,23.91Zm-.35-12.54a6,6,0,0,0-4,1.32,5.72,5.72,0,0,0-1.94,3.39h11.88a5.87,5.87,0,0,0-2-3.45A6,6,0,0,0,289.79,11.37Zm30.22,15h-3.92l-5.36-6.45-5.42,6.45h-3.92l7.39-8.86-7.14-8.56h3.94l5.15,6.15,5.13-6.15h3.94l-7.14,8.56Zm21.34-10.27V19H331.21V16.08Zm20.86,10.71a9.13,9.13,0,0,1-9-9.15,9.13,9.13,0,0,1,9-9.15,7.85,7.85,0,0,1,4.25,1.22,6.31,6.31,0,0,1,2.66,3.17h.07l.13-4h3.06V26.35h-3.06l-.13-4h-.07a6.35,6.35,0,0,1-2.7,3.2A7.83,7.83,0,0,1,362.21,26.79ZM358.44,22a6.13,6.13,0,0,0,10.47-4.32A6.14,6.14,0,1,0,358.44,22ZM391,6.84V8.93h6.59v2.72H391v14.7h-3.43V11.65h-3.37V8.93h3.37V6.56a6.47,6.47,0,0,1,1.82-4.69,6.67,6.67,0,0,1,5-1.87A9.14,9.14,0,0,1,398,.69l-.39,2.72a6,6,0,0,0-2.63-.56A3.74,3.74,0,0,0,392,4,4.24,4.24,0,0,0,391,6.84Zm27.07,2.09V26.35h-3l-.21-4h0a6.71,6.71,0,0,1-2.4,3.25,6.16,6.16,0,0,1-3.68,1.22,6.87,6.87,0,0,1-5.44-2.42,8.9,8.9,0,0,1-2.09-6V8.93h3.41v9.14a5.88,5.88,0,0,0,1.43,4,4.69,4.69,0,0,0,7.13-.07,6,6,0,0,0,1.5-4.14v-9Zm6,17.42V.42h3.43V26.35Zm9.39,0V.42h3.43V26.35Zm9.07,7.93L448,23.84l-7.7-14.91h3.75l5.71,11.58,5.77-11.58h3.74L446.13,34.28Zm28.36-7.93V.42h3.42V26.35ZM483.52,5a2.15,2.15,0,0,1-1.55.64A2.23,2.23,0,0,1,480.41,5a2.07,2.07,0,0,1-.67-1.55,2.07,2.07,0,0,1,.67-1.55A2.23,2.23,0,0,1,482,1.3a2.15,2.15,0,0,1,1.55.64,2.09,2.09,0,0,1,.65,1.55A2.09,2.09,0,0,1,483.52,5Zm-3.27,21.31V8.93h3.43V26.35Zm26.32-6A7.68,7.68,0,0,1,503.48,25a9.21,9.21,0,0,1-5.67,1.84A9.5,9.5,0,0,1,491,24.1a8.59,8.59,0,0,1-2.83-6.47A8.57,8.57,0,0,1,491,11.17a9.49,9.49,0,0,1,6.78-2.68,9.32,9.32,0,0,1,5.69,1.82,7.67,7.67,0,0,1,3.07,4.56H503a4.71,4.71,0,0,0-2-2.43,5.82,5.82,0,0,0-3.28-1,5.91,5.91,0,0,0-4.35,1.82,6,6,0,0,0-1.81,4.34,6.2,6.2,0,0,0,6.16,6.13,5.81,5.81,0,0,0,3.25-.94,5.29,5.29,0,0,0,2-2.46Zm12.83,3.54a7.68,7.68,0,0,0,3.23-.69,3.93,3.93,0,0,0,2.06-1.84h3.39a7.94,7.94,0,0,1-3.42,3.92,10.3,10.3,0,0,1-5.44,1.49,9.53,9.53,0,0,1-6.82-2.63,8.68,8.68,0,0,1-2.76-6.56,8.81,8.81,0,0,1,2.63-6.46,9.12,9.12,0,0,1,6.78-2.65,8.7,8.7,0,0,1,6.89,2.92,10.65,10.65,0,0,1,2.56,7.31H513.07a6,6,0,0,0,2.13,3.76A6.38,6.38,0,0,0,519.4,23.91Zm-.35-12.54a6,6,0,0,0-4,1.32,5.62,5.62,0,0,0-1.94,3.39H525a5.92,5.92,0,0,0-2-3.45A6,6,0,0,0,519.05,11.37Zm13.73,15V8.93h3l.21,4h0a6.88,6.88,0,0,1,2.49-3.25,6.53,6.53,0,0,1,3.83-1.22,7.24,7.24,0,0,1,5.65,2.4,8.71,8.71,0,0,1,2.15,6v9.44h-3.41V17.24a5.84,5.84,0,0,0-1.49-4,4.89,4.89,0,0,0-3.8-1.66,4.82,4.82,0,0,0-3.71,1.73,6,6,0,0,0-1.55,4.14v8.93Zm30.26.44a10.88,10.88,0,0,1-5.65-1.39,4.72,4.72,0,0,1-2.45-4.1h3.68c.11,1.81,1.55,2.71,4.3,2.71,2.59,0,3.89-.75,3.9-2.27a2.15,2.15,0,0,0-.07-.58,1.41,1.41,0,0,0-.28-.51,3,3,0,0,0-.38-.4,2.23,2.23,0,0,0-.53-.32l-.61-.28a6.89,6.89,0,0,0-.74-.23c-.32-.08-.58-.14-.77-.2l-.85-.2-.85-.19a15.65,15.65,0,0,1-2.23-.64,13.21,13.21,0,0,1-1.92-1,4.23,4.23,0,0,1-1.53-1.53,4.32,4.32,0,0,1-.54-2.2,4.2,4.2,0,0,1,2-3.69,9,9,0,0,1,5.09-1.32,10.36,10.36,0,0,1,5.22,1.28,4.47,4.47,0,0,1,2.34,3.94H566.6a2.17,2.17,0,0,0-1.28-1.85,5.78,5.78,0,0,0-2.68-.59,5.55,5.55,0,0,0-2.54.53,1.77,1.77,0,0,0-1,1.66,1.69,1.69,0,0,0,.27,1,2.47,2.47,0,0,0,.62.66,4.12,4.12,0,0,0,1.1.5c.5.17.92.3,1.24.38s.83.2,1.54.35a22.14,22.14,0,0,1,2.49.63,12.37,12.37,0,0,1,2,.89A4.11,4.11,0,0,1,570,19.35a4.2,4.2,0,0,1,.55,2.22,4.34,4.34,0,0,1-2.13,3.87A9.92,9.92,0,0,1,563,26.79Zm20.47-2.88a7.71,7.71,0,0,0,3.23-.69,4,4,0,0,0,2.06-1.84h3.39a8,8,0,0,1-3.42,3.92,10.3,10.3,0,0,1-5.44,1.49,9.51,9.51,0,0,1-6.82-2.63,8.68,8.68,0,0,1-2.76-6.56,8.81,8.81,0,0,1,2.63-6.46,9.11,9.11,0,0,1,6.77-2.65A8.69,8.69,0,0,1,590,11.41a10.61,10.61,0,0,1,2.57,7.31H577.18a6.07,6.07,0,0,0,2.12,3.76A6.39,6.39,0,0,0,583.51,23.91Zm-.36-12.54a6,6,0,0,0-4,1.32,5.68,5.68,0,0,0-1.95,3.39H589.1a5.88,5.88,0,0,0-2-3.45A6,6,0,0,0,583.15,11.37Zm28-10.95h3.43V26.35h-3l-.16-4h-.07a6.26,6.26,0,0,1-2.69,3.18,8,8,0,0,1-4.25,1.22,8.66,8.66,0,0,1-6.27-2.63,8.86,8.86,0,0,1-2.66-6.56,8.75,8.75,0,0,1,2.66-6.5,8.65,8.65,0,0,1,6.24-2.61,7.61,7.61,0,0,1,4.14,1.22,6.17,6.17,0,0,1,2.59,3.17h.07ZM600.66,22A5.9,5.9,0,0,0,605,23.77,5.83,5.83,0,0,0,609.35,22a6.11,6.11,0,0,0,0-8.64A5.87,5.87,0,0,0,605,11.51a6.15,6.15,0,0,0-6.14,6.13A5.92,5.92,0,0,0,600.66,22Zm45.11-1.59A7.68,7.68,0,0,1,642.68,25,9.19,9.19,0,0,1,637,26.79a9.52,9.52,0,0,1-6.78-2.69,8.59,8.59,0,0,1-2.83-6.47,8.57,8.57,0,0,1,2.83-6.46A9.51,9.51,0,0,1,637,8.49a9.3,9.3,0,0,1,5.69,1.82,7.67,7.67,0,0,1,3.07,4.56h-3.54a4.74,4.74,0,0,0-2-2.43,6.11,6.11,0,0,0-7.64.86,6,6,0,0,0-1.8,4.34A6.18,6.18,0,0,0,637,23.77a5.81,5.81,0,0,0,3.25-.94,5.29,5.29,0,0,0,2-2.46Zm4.52,6V8.93h3l.21,4.71h0a7,7,0,0,1,2.54-3.71,6.89,6.89,0,0,1,4.06-1.37v3.09a6,6,0,0,0-4.68,1.92,6.9,6.9,0,0,0-1.76,4.85v7.93ZM664,34.28l5.5-10.44L661.8,8.93h3.74l5.72,11.58L677,8.93h3.75L667.62,34.28Zm20,0V8.93h3l.14,4h.07A6.12,6.12,0,0,1,690,9.7a7.91,7.91,0,0,1,4.25-1.21,8.68,8.68,0,0,1,6.25,2.63,8.71,8.71,0,0,1,2.69,6.52,8.8,8.8,0,0,1-2.66,6.52,8.5,8.5,0,0,1-6.14,2.63,7.53,7.53,0,0,1-4.21-1.25,6.26,6.26,0,0,1-2.6-3.15h-.07V34.28ZM689.26,22a5.82,5.82,0,0,0,4.31,1.81A5.92,5.92,0,0,0,697.91,22a6.06,6.06,0,0,0,0-8.64,6.14,6.14,0,0,0-10.47,4.32A5.89,5.89,0,0,0,689.26,22Zm26.52,1.72a8.82,8.82,0,0,0,2.81-.56v3a6.88,6.88,0,0,1-3.35.69,6.3,6.3,0,0,1-5-2,7.11,7.11,0,0,1-1.79-4.94V11.65H705V8.93h3.53V4.06h3.43V8.93h6.61v2.72h-6.61v7.93a4.41,4.41,0,0,0,1,3A3.56,3.56,0,0,0,715.78,23.68Zm22,.42a9.83,9.83,0,0,1-13.51,0,8.62,8.62,0,0,1-2.82-6.47,8.6,8.6,0,0,1,2.82-6.46,9.85,9.85,0,0,1,13.51,0,8.61,8.61,0,0,1,2.8,6.46A8.63,8.63,0,0,1,737.75,24.1ZM726.66,22a6.13,6.13,0,0,0,10.46-4.32A6.14,6.14,0,1,0,726.66,22ZM762,20.37A7.68,7.68,0,0,1,758.94,25a9.18,9.18,0,0,1-5.66,1.84,9.53,9.53,0,0,1-6.79-2.69,8.59,8.59,0,0,1-2.83-6.47,8.57,8.57,0,0,1,2.83-6.46,9.52,9.52,0,0,1,6.79-2.68A9.29,9.29,0,0,1,759,10.31,7.62,7.62,0,0,1,762,14.87H758.5a4.76,4.76,0,0,0-2-2.43,6.11,6.11,0,0,0-7.64.86,6,6,0,0,0-1.8,4.34,6.18,6.18,0,0,0,6.15,6.13,5.81,5.81,0,0,0,3.25-.94,5.29,5.29,0,0,0,2-2.46ZM783.11,8.93V26.35h-3l-.21-4h0a6.71,6.71,0,0,1-2.4,3.25,6.16,6.16,0,0,1-3.69,1.22,6.87,6.87,0,0,1-5.43-2.42,8.9,8.9,0,0,1-2.09-6V8.93h3.41v9.14a5.92,5.92,0,0,0,1.42,4A4.7,4.7,0,0,0,778.2,22a6,6,0,0,0,1.5-4.14v-9Zm6,17.42V8.93h3l.21,4.71h0a7,7,0,0,1,2.54-3.71,6.86,6.86,0,0,1,4.05-1.37v3.09a6,6,0,0,0-4.67,1.92,6.9,6.9,0,0,0-1.76,4.85v7.93Zm14,0V8.93h3l.21,4.71h0a7,7,0,0,1,2.54-3.71A6.84,6.84,0,0,1,813,8.56v3.09a6,6,0,0,0-4.67,1.92,6.86,6.86,0,0,0-1.76,4.85v7.93Zm21.59-2.44a7.71,7.71,0,0,0,3.23-.69A4,4,0,0,0,830,21.38h3.39A8,8,0,0,1,830,25.3a10.3,10.3,0,0,1-5.44,1.49,9.51,9.51,0,0,1-6.82-2.63,8.68,8.68,0,0,1-2.76-6.56,8.81,8.81,0,0,1,2.63-6.46,9.11,9.11,0,0,1,6.77-2.65,8.69,8.69,0,0,1,6.89,2.92,10.61,10.61,0,0,1,2.57,7.31H818.37a6.07,6.07,0,0,0,2.12,3.76A6.39,6.39,0,0,0,824.7,23.91Zm-.36-12.54a6,6,0,0,0-4,1.32,5.68,5.68,0,0,0-2,3.39h11.89a5.88,5.88,0,0,0-2-3.45A6,6,0,0,0,824.34,11.37Zm13.73,15V8.93h3l.21,4h0a6.88,6.88,0,0,1,2.49-3.25,6.5,6.5,0,0,1,3.82-1.22,7.22,7.22,0,0,1,5.65,2.4,8.67,8.67,0,0,1,2.16,6v9.44h-3.41V17.24a5.8,5.8,0,0,0-1.5-4,4.86,4.86,0,0,0-3.79-1.66,4.81,4.81,0,0,0-3.71,1.73,6,6,0,0,0-1.55,4.14v8.93Zm40-6A7.68,7.68,0,0,1,874.94,25a9.19,9.19,0,0,1-5.67,1.84,9.52,9.52,0,0,1-6.78-2.69,8.59,8.59,0,0,1-2.83-6.47,8.57,8.57,0,0,1,2.83-6.46,9.51,9.51,0,0,1,6.78-2.68A9.3,9.3,0,0,1,875,10.31,7.62,7.62,0,0,1,878,14.87h-3.54a4.74,4.74,0,0,0-2-2.43,6.11,6.11,0,0,0-7.64.86,6,6,0,0,0-1.8,4.34,6.18,6.18,0,0,0,6.15,6.13,5.81,5.81,0,0,0,3.25-.94,5.29,5.29,0,0,0,2-2.46Zm4.2,13.91,5.5-10.44L880,8.93h3.75l5.71,11.58,5.76-11.58H899L885.85,34.28ZM918.9,23.91a7.68,7.68,0,0,0,3.23-.69,4,4,0,0,0,2.06-1.84h3.39a7.94,7.94,0,0,1-3.42,3.92,10.3,10.3,0,0,1-5.44,1.49,9.51,9.51,0,0,1-6.82-2.63,8.68,8.68,0,0,1-2.76-6.56,8.81,8.81,0,0,1,2.63-6.46,9.12,9.12,0,0,1,6.78-2.65,8.7,8.7,0,0,1,6.89,2.92A10.65,10.65,0,0,1,928,18.72H912.57a6,6,0,0,0,2.13,3.76A6.34,6.34,0,0,0,918.9,23.91Zm-.35-12.54a6,6,0,0,0-4,1.32,5.68,5.68,0,0,0-1.95,3.39h11.89a5.92,5.92,0,0,0-2-3.45A6,6,0,0,0,918.55,11.37Zm30.21,15h-3.92l-5.36-6.45-5.41,6.45h-3.92l7.38-8.86-7.14-8.56h3.94l5.15,6.15,5.13-6.15h3.94l-7.14,8.56Zm20.23-6A7.67,7.67,0,0,1,965.91,25a9.23,9.23,0,0,1-5.67,1.84,9.49,9.49,0,0,1-6.78-2.69,8.59,8.59,0,0,1-2.83-6.47,8.57,8.57,0,0,1,2.83-6.46,9.48,9.48,0,0,1,6.78-2.68,9.32,9.32,0,0,1,5.69,1.82A7.65,7.65,0,0,1,969,14.87h-3.53a4.71,4.71,0,0,0-2-2.43,5.84,5.84,0,0,0-3.28-1,6.18,6.18,0,0,0-6.16,6.16,6.18,6.18,0,0,0,6.16,6.13,5.84,5.84,0,0,0,3.25-.94,5.29,5.29,0,0,0,2-2.46Zm4.52,6V.42h3.43V13H977a6.54,6.54,0,0,1,2.37-3.25,6.22,6.22,0,0,1,3.71-1.22,7.22,7.22,0,0,1,5.65,2.4,8.67,8.67,0,0,1,2.16,6v9.44h-3.41V17.24a5.8,5.8,0,0,0-1.5-4,4.86,4.86,0,0,0-3.79-1.66,4.81,4.81,0,0,0-3.71,1.73,6,6,0,0,0-1.55,4.14v8.93Zm30.59.44a8.79,8.79,0,0,1-6.29-2.63,8.69,8.69,0,0,1-2.71-6.52,8.69,8.69,0,0,1,2.71-6.52,8.79,8.79,0,0,1,6.29-2.63,7.84,7.84,0,0,1,4.24,1.22,6.29,6.29,0,0,1,2.67,3.17h.07l.12-4h3.06V26.35h-3.06l-.12-4H1011a6.45,6.45,0,0,1-2.7,3.2A7.88,7.88,0,0,1,1004.1,26.79ZM1000.32,22a6.12,6.12,0,0,0,8.69,0,6.11,6.11,0,0,0,0-8.64,6.14,6.14,0,0,0-10.48,4.32A5.88,5.88,0,0,0,1000.32,22Zm19.9,4.39V8.93h3l.21,4h0A6.8,6.8,0,0,1,1026,9.71a6.53,6.53,0,0,1,3.83-1.22,7.24,7.24,0,0,1,5.65,2.4,8.71,8.71,0,0,1,2.15,6v9.44h-3.41V17.24a5.84,5.84,0,0,0-1.49-4,4.88,4.88,0,0,0-3.8-1.66,4.82,4.82,0,0,0-3.71,1.73,6,6,0,0,0-1.54,4.14v8.93Zm31.71,8.28a10.43,10.43,0,0,1-5.84-1.64,8.15,8.15,0,0,1-3.39-4.62h3.64a5.18,5.18,0,0,0,2.2,2.51,6.46,6.46,0,0,0,3.39.9,6.31,6.31,0,0,0,4.5-1.7,5.85,5.85,0,0,0,1.79-4.42V21.71l0-.11a6,6,0,0,1-2.67,3.28,8,8,0,0,1-4.31,1.22,8.62,8.62,0,0,1-6.16-2.5,8.3,8.3,0,0,1-2.63-6.29,8.3,8.3,0,0,1,2.68-6.26,8.72,8.72,0,0,1,6.21-2.56,8,8,0,0,1,4.27,1.21,6.17,6.17,0,0,1,2.68,3.18h.07l.1-4h3.06V25.31a8.82,8.82,0,0,1-2.73,6.79A9.65,9.65,0,0,1,1051.93,34.63Zm.24-11.3a5.71,5.71,0,0,0,4.2-1.77,5.88,5.88,0,0,0,1.75-4.28,5.67,5.67,0,0,0-1.77-4.14,5.8,5.8,0,0,0-4.25-1.77,5.91,5.91,0,0,0-4.27,1.75,5.86,5.86,0,0,0,0,8.42A5.92,5.92,0,0,0,1052.17,23.33Zm23.61.58a7.72,7.72,0,0,0,3.24-.69,4,4,0,0,0,2-1.84h3.4a8,8,0,0,1-3.42,3.92,10.32,10.32,0,0,1-5.44,1.49,9.51,9.51,0,0,1-6.82-2.63A8.68,8.68,0,0,1,1066,17.6a8.8,8.8,0,0,1,2.62-6.46,9.13,9.13,0,0,1,6.78-2.65,8.7,8.7,0,0,1,6.89,2.92,10.66,10.66,0,0,1,2.57,7.31h-15.44a6,6,0,0,0,2.13,3.76A6.38,6.38,0,0,0,1075.78,23.91Zm-.35-12.54a6,6,0,0,0-4,1.32,5.67,5.67,0,0,0-1.94,3.39h11.88a5.87,5.87,0,0,0-2-3.45A6,6,0,0,0,1075.43,11.37Z"/></g></g></svg>