<svg xmlns="http://www.w3.org/2000/svg" viewBox="0 0 457.49 98.21"><defs><style>.cls-1{fill:#0c4384;}</style></defs><title>Ресурс 6</title><g id="Слой_2" data-name="Слой 2"><g id="Слой_4" data-name="Слой 4"><path class="cls-1" d="M1.72,25.93V1.81H5.33V25.93Zm9.86,0V8.51h3l.21,4h0a6.86,6.86,0,0,1,2.49-3.24,6.53,6.53,0,0,1,3.82-1.22,7.24,7.24,0,0,1,5.66,2.4,8.69,8.69,0,0,1,2.15,6v9.44H25.56V16.82a5.8,5.8,0,0,0-1.5-4,4.86,4.86,0,0,0-3.79-1.66,4.79,4.79,0,0,0-3.71,1.73A6,6,0,0,0,15,17v8.93Zm31-2.67a8.64,8.64,0,0,0,2.81-.57v3a6.89,6.89,0,0,1-3.36.69,6.28,6.28,0,0,1-4.94-2,7.11,7.11,0,0,1-1.79-4.94V11.23H31.73V8.51h3.53V3.64h3.43V8.51H45.3v2.72H38.69v7.93a4.36,4.36,0,0,0,1,2.94A3.53,3.53,0,0,0,42.54,23.26Zm7.26,2.67V8.51h3L53,13.22h0a7,7,0,0,1,2.54-3.71,6.84,6.84,0,0,1,4-1.37v3.09A6,6,0,0,0,55,13.15,6.9,6.9,0,0,0,53.23,18v7.93ZM78,23.68a9.84,9.84,0,0,1-13.52,0,8.66,8.66,0,0,1-2.81-6.47,8.62,8.62,0,0,1,2.81-6.46,9.87,9.87,0,0,1,13.52,0,8.64,8.64,0,0,1,2.79,6.46A8.68,8.68,0,0,1,78,23.68ZM66.87,21.54a6.14,6.14,0,0,0,10.46-4.32,6.14,6.14,0,1,0-10.46,4.32ZM99.56,0H103V25.93h-3l-.16-4h-.07A6.27,6.27,0,0,1,97,25.15a8,8,0,0,1-4.25,1.22,8.62,8.62,0,0,1-6.26-2.63,8.83,8.83,0,0,1-2.66-6.57,8.69,8.69,0,0,1,2.66-6.49,8.61,8.61,0,0,1,6.23-2.61A7.56,7.56,0,0,1,96.9,9.29a6.08,6.08,0,0,1,2.59,3.17h.07ZM89.09,21.54a6.13,6.13,0,0,0,10.47-4.32,6.14,6.14,0,1,0-10.47,4.32Zm36.42-13V25.93h-3l-.21-4h0a6.71,6.71,0,0,1-2.4,3.25,6.16,6.16,0,0,1-3.68,1.22A6.87,6.87,0,0,1,110.72,24a8.9,8.9,0,0,1-2.09-6V8.51H112v9.14a5.85,5.85,0,0,0,1.43,4,4.67,4.67,0,0,0,7.13-.07,6,6,0,0,0,1.5-4.13v-9ZM148.41,20a7.71,7.71,0,0,1-3.08,4.58,9.3,9.3,0,0,1-5.67,1.84,9.53,9.53,0,0,1-6.79-2.69,8.8,8.8,0,0,1,0-12.93,9.52,9.52,0,0,1,6.79-2.68,9.23,9.23,0,0,1,5.68,1.82,7.62,7.62,0,0,1,3.07,4.56h-3.53a4.75,4.75,0,0,0-2-2.44,6.17,6.17,0,0,0-9.44,5.21,5.86,5.86,0,0,0,1.81,4.32,6,6,0,0,0,4.34,1.8,5.77,5.77,0,0,0,3.26-.94,5.26,5.26,0,0,0,2-2.45ZM156.2,4.61a2.12,2.12,0,0,1-1.55.65,2.16,2.16,0,0,1-1.56-.65,2,2,0,0,1-.67-1.54,2.05,2.05,0,0,1,.67-1.55,2.15,2.15,0,0,1,1.56-.64,2.11,2.11,0,0,1,1.55.64,2.11,2.11,0,0,1,.65,1.55A2.09,2.09,0,0,1,156.2,4.61Zm-3.27,21.32V8.51h3.43V25.93Zm9.39,0V8.51h3l.21,4h0a6.78,6.78,0,0,1,2.48-3.24,6.53,6.53,0,0,1,3.83-1.22,7.24,7.24,0,0,1,5.65,2.4,8.69,8.69,0,0,1,2.15,6v9.44h-3.41V16.82a5.84,5.84,0,0,0-1.49-4,4.88,4.88,0,0,0-3.8-1.66,4.79,4.79,0,0,0-3.71,1.73A6,6,0,0,0,165.74,17v8.93ZM194,34.21a10.43,10.43,0,0,1-5.84-1.64A8.15,8.15,0,0,1,184.8,28h3.64a5.16,5.16,0,0,0,2.19,2.51,6.52,6.52,0,0,0,3.4.9,6.28,6.28,0,0,0,4.5-1.71,5.81,5.81,0,0,0,1.79-4.41V21.29l0-.11a6,6,0,0,1-2.67,3.28,8.08,8.08,0,0,1-4.31,1.22,8.62,8.62,0,0,1-6.16-2.5,8.3,8.3,0,0,1-2.63-6.29,8.3,8.3,0,0,1,2.68-6.26,8.72,8.72,0,0,1,6.21-2.56,8,8,0,0,1,4.26,1.2,6.2,6.2,0,0,1,2.69,3.19h.07l.1-4h3.06V24.89a8.82,8.82,0,0,1-2.73,6.79A9.71,9.71,0,0,1,194,34.21Zm.24-11.31a5.7,5.7,0,0,0,4.2-1.76,5.89,5.89,0,0,0,1.74-4.28,5.66,5.66,0,0,0-1.76-4.14,6,6,0,0,0-8.52,0,5.86,5.86,0,0,0,0,8.42A5.91,5.91,0,0,0,194.27,22.9ZM242.21,13c0,.48.08.89.09,1.22a11.79,11.79,0,0,1-3.76,8.63,12.64,12.64,0,0,1-9.08,3.55,12.51,12.51,0,0,1-9.08-3.68,11.88,11.88,0,0,1-3.76-8.82A11.9,11.9,0,0,1,220.38,5a12.54,12.54,0,0,1,9.08-3.67,13,13,0,0,1,7,2,12.72,12.72,0,0,1,4.81,5.25l-3.81.25a9.61,9.61,0,0,0-3.42-3.16,9.38,9.38,0,0,0-4.62-1.16,8.89,8.89,0,0,0-6.53,2.72,9,9,0,0,0-2.71,6.57A8.9,8.9,0,0,0,223,20.4a9.12,9.12,0,0,0,6.65,2.72,9.29,9.29,0,0,0,6-2.07,8.83,8.83,0,0,0,3.2-5.23H228.71V13ZM255,23.48a7.67,7.67,0,0,0,3.23-.68A3.91,3.91,0,0,0,260.28,21h3.39a7.92,7.92,0,0,1-3.42,3.93,10.3,10.3,0,0,1-5.44,1.49A9.53,9.53,0,0,1,248,23.74a8.69,8.69,0,0,1-2.76-6.57,8.84,8.84,0,0,1,2.63-6.46,9.15,9.15,0,0,1,6.78-2.64A8.7,8.7,0,0,1,261.53,11a10.65,10.65,0,0,1,2.56,7.31H248.66a6,6,0,0,0,2.13,3.76A6.37,6.37,0,0,0,255,23.48ZM254.64,11a6,6,0,0,0-4,1.32,5.62,5.62,0,0,0-1.94,3.39h11.88a5.92,5.92,0,0,0-2-3.45A6,6,0,0,0,254.64,11Zm21.83,12.31a8.64,8.64,0,0,0,2.81-.57v3a6.89,6.89,0,0,1-3.36.69,6.28,6.28,0,0,1-4.94-2,7.11,7.11,0,0,1-1.79-4.94V11.23h-3.53V8.51h3.53V3.64h3.43V8.51h6.61v2.72h-6.61v7.93a4.36,4.36,0,0,0,1,2.94A3.53,3.53,0,0,0,276.47,23.26Zm15.4.22a7.67,7.67,0,0,0,3.23-.68A4,4,0,0,0,297.16,21h3.39a7.92,7.92,0,0,1-3.42,3.93,10.3,10.3,0,0,1-5.44,1.49,9.51,9.51,0,0,1-6.82-2.63,8.69,8.69,0,0,1-2.76-6.57,8.84,8.84,0,0,1,2.63-6.46,9.15,9.15,0,0,1,6.78-2.64A8.7,8.7,0,0,1,298.41,11,10.65,10.65,0,0,1,301,18.3H285.54a6,6,0,0,0,2.13,3.76A6.34,6.34,0,0,0,291.87,23.48ZM291.52,11a6,6,0,0,0-4,1.32,5.68,5.68,0,0,0-1.95,3.39h11.89a5.92,5.92,0,0,0-2-3.45A6,6,0,0,0,291.52,11Zm30.21,15h-3.92l-5.36-6.45L307,25.93h-3.92l7.38-8.86-7.14-8.56h3.94l5.15,6.15,5.13-6.15h3.94l-7.14,8.56Zm21.34-10.27v2.92H332.93V15.66ZM9,58.37a8.77,8.77,0,0,1-6.28-2.63,9.17,9.17,0,0,1,0-13A8.72,8.72,0,0,1,9,40.07a7.87,7.87,0,0,1,4.25,1.22,6.27,6.27,0,0,1,2.66,3.17H16l.12-4h3.06V57.93H16.1L16,54h-.07a6.38,6.38,0,0,1-2.7,3.19A7.78,7.78,0,0,1,9,58.37ZM5.22,53.54a5.93,5.93,0,0,0,4.35,1.8,5.87,5.87,0,0,0,4.34-1.8,6.12,6.12,0,0,0,0-8.65,5.87,5.87,0,0,0-4.34-1.8,5.93,5.93,0,0,0-4.35,1.8,6.12,6.12,0,0,0,0,8.65ZM37.79,38.42v2.09h6.59v2.72H37.79v14.7H34.37V43.23H31V40.51h3.38V38.13a6.46,6.46,0,0,1,1.81-4.68,6.68,6.68,0,0,1,5-1.87,9.37,9.37,0,0,1,3.54.68L44.35,35a5.89,5.89,0,0,0-2.64-.56,3.7,3.7,0,0,0-2.93,1.11A4.18,4.18,0,0,0,37.79,38.42Zm27.07,2.09V57.93h-3l-.21-4h0a6.71,6.71,0,0,1-2.4,3.25,6.11,6.11,0,0,1-3.68,1.22A6.85,6.85,0,0,1,50.08,56a8.9,8.9,0,0,1-2.09-6V40.51H51.4v9.14a5.85,5.85,0,0,0,1.42,4A4.68,4.68,0,0,0,60,53.6a6,6,0,0,0,1.49-4.13v-9Zm6,17.42V32h3.43V57.93Zm9.39,0V32h3.42V57.93Zm9.07,7.93,5.5-10.45-7.7-14.9h3.74l5.72,11.58,5.76-11.58h3.75L92.92,65.86Zm28.35-7.93V32h3.43V57.93Zm12.66-21.32a2.14,2.14,0,0,1-1.55.65,2.16,2.16,0,0,1-1.56-.65,2,2,0,0,1-.67-1.54,2.05,2.05,0,0,1,.67-1.55,2.15,2.15,0,0,1,1.56-.64,2.13,2.13,0,0,1,1.55.64,2.11,2.11,0,0,1,.65,1.55A2.09,2.09,0,0,1,130.31,36.61ZM127,57.93V40.51h3.42V57.93Zm26.31-6a7.71,7.71,0,0,1-3.08,4.58,9.3,9.3,0,0,1-5.67,1.84,9.53,9.53,0,0,1-6.79-2.69,8.8,8.8,0,0,1,0-12.93,9.52,9.52,0,0,1,6.79-2.68,9.23,9.23,0,0,1,5.68,1.82,7.62,7.62,0,0,1,3.07,4.56h-3.53a4.75,4.75,0,0,0-2-2.44,6.14,6.14,0,1,0-3.29,11.33,5.71,5.71,0,0,0,3.25-.94,5.22,5.22,0,0,0,2-2.45Zm12.83,3.53a7.72,7.72,0,0,0,3.24-.68A3.88,3.88,0,0,0,171.47,53h3.4a8,8,0,0,1-3.42,3.93A10.32,10.32,0,0,1,166,58.37a9.51,9.51,0,0,1-6.82-2.63,8.69,8.69,0,0,1-2.76-6.57,8.8,8.8,0,0,1,2.63-6.46,9.14,9.14,0,0,1,6.77-2.64A8.7,8.7,0,0,1,172.72,43a10.66,10.66,0,0,1,2.57,7.31H159.86A6,6,0,0,0,162,54.06,6.37,6.37,0,0,0,166.18,55.48ZM165.83,43a6,6,0,0,0-4,1.32,5.72,5.72,0,0,0-1.94,3.39h11.88a5.87,5.87,0,0,0-2-3.45A6,6,0,0,0,165.83,43Zm13.73,15V40.51h3l.21,4h0a6.74,6.74,0,0,1,2.49-3.24,6.5,6.5,0,0,1,3.82-1.22,7.22,7.22,0,0,1,5.65,2.4,8.65,8.65,0,0,1,2.16,6v9.44h-3.41V48.82a5.8,5.8,0,0,0-1.5-4,4.88,4.88,0,0,0-3.8-1.66,4.77,4.77,0,0,0-3.7,1.73A6,6,0,0,0,183,49v8.93Zm30.27.44A11,11,0,0,1,204.18,57a4.7,4.7,0,0,1-2.45-4.1h3.67c.12,1.81,1.55,2.71,4.31,2.71q3.89,0,3.9-2.27a2.27,2.27,0,0,0-.08-.59,1.4,1.4,0,0,0-.27-.51,3.56,3.56,0,0,0-.38-.39,2.11,2.11,0,0,0-.54-.33l-.6-.27A5.62,5.62,0,0,0,211,51l-.77-.2-.86-.2-.84-.2a14.12,14.12,0,0,1-2.23-.64,12.35,12.35,0,0,1-1.93-1,4.21,4.21,0,0,1-1.53-1.52,4.45,4.45,0,0,1-.53-2.2,4.2,4.2,0,0,1,2-3.69,8.92,8.92,0,0,1,5.09-1.32,10.36,10.36,0,0,1,5.22,1.28,4.48,4.48,0,0,1,2.33,3.94h-3.53a2.18,2.18,0,0,0-1.27-1.86,5.93,5.93,0,0,0-2.68-.58,5.4,5.4,0,0,0-2.54.53,1.75,1.75,0,0,0-1,1.66,1.69,1.69,0,0,0,.27,1,2.32,2.32,0,0,0,.62.66,4.36,4.36,0,0,0,1.09.5c.51.17.92.3,1.24.38l1.54.35c1,.21,1.86.42,2.5.62a13.83,13.83,0,0,1,2,.9,4.09,4.09,0,0,1,1.64,1.51A4.67,4.67,0,0,1,215.23,57,9.83,9.83,0,0,1,209.83,58.37Zm20.46-2.89a7.72,7.72,0,0,0,3.24-.68A3.92,3.92,0,0,0,235.58,53H239a8,8,0,0,1-3.41,3.93,10.32,10.32,0,0,1-5.44,1.49,9.54,9.54,0,0,1-6.83-2.63,8.72,8.72,0,0,1-2.75-6.57,8.83,8.83,0,0,1,2.62-6.46,9.16,9.16,0,0,1,6.78-2.64A8.7,8.7,0,0,1,236.83,43a10.66,10.66,0,0,1,2.57,7.31H224a6,6,0,0,0,2.13,3.76A6.37,6.37,0,0,0,230.29,55.48ZM229.94,43a6,6,0,0,0-4,1.32A5.67,5.67,0,0,0,224,47.66h11.88a5.92,5.92,0,0,0-2-3.45A6,6,0,0,0,229.94,43Zm28-11h3.43V57.93h-3l-.16-4h-.07a6.27,6.27,0,0,1-2.7,3.18,8,8,0,0,1-4.24,1.22,8.64,8.64,0,0,1-6.27-2.63,8.83,8.83,0,0,1-2.66-6.57,9,9,0,0,1,8.89-9.1,7.56,7.56,0,0,1,4.14,1.22,6.08,6.08,0,0,1,2.59,3.17h.07ZM247.45,53.54a6.1,6.1,0,1,0-1.8-4.32A5.89,5.89,0,0,0,247.45,53.54ZM18.37,84a7.68,7.68,0,0,1-3.09,4.58,9.25,9.25,0,0,1-5.66,1.84,9.53,9.53,0,0,1-6.79-2.69,8.8,8.8,0,0,1,0-12.93,9.52,9.52,0,0,1,6.79-2.68,9.23,9.23,0,0,1,5.68,1.82,7.62,7.62,0,0,1,3.07,4.56H14.84a4.75,4.75,0,0,0-2-2.44,5.94,5.94,0,0,0-3.29-1,5.87,5.87,0,0,0-4.35,1.82,6,6,0,0,0-1.8,4.34,5.86,5.86,0,0,0,1.81,4.32,5.94,5.94,0,0,0,4.34,1.8,5.73,5.73,0,0,0,3.25-.94,5.22,5.22,0,0,0,2-2.45Zm4.52,6V72.51h3l.21,4.71h0a6.92,6.92,0,0,1,2.54-3.71,6.84,6.84,0,0,1,4.05-1.37v3.09a6,6,0,0,0-4.68,1.92A6.9,6.9,0,0,0,26.31,82v7.93ZM36.6,97.86l5.5-10.45-7.7-14.9h3.74l5.72,11.58,5.76-11.58h3.75L40.22,97.86Zm20,0V72.51h3l.14,3.95h.07a6.23,6.23,0,0,1,2.68-3.19,8,8,0,0,1,4.25-1.2,8.63,8.63,0,0,1,6.25,2.63,9.28,9.28,0,0,1,0,13,8.49,8.49,0,0,1-6.14,2.63,7.53,7.53,0,0,1-4.21-1.25A6.31,6.31,0,0,1,60.13,86h-.07V97.86Zm5.22-12.32a5.85,5.85,0,0,0,4.31,1.8,6,6,0,0,0,4.34-1.8,5.83,5.83,0,0,0,1.82-4.32,6.14,6.14,0,1,0-10.47,4.32Zm26.52,1.72a8.69,8.69,0,0,0,2.82-.57v3a6.89,6.89,0,0,1-3.36.69,6.3,6.3,0,0,1-5-2,7.1,7.1,0,0,1-1.78-4.94V75.23H77.57V72.51h3.54V67.64h3.42v4.87h6.61v2.72H84.53v7.93a4.41,4.41,0,0,0,1,2.94A3.55,3.55,0,0,0,88.38,87.26Zm22,.42a9.84,9.84,0,0,1-13.52,0,8.84,8.84,0,0,1,0-12.93,9.87,9.87,0,0,1,13.52,0,8.89,8.89,0,0,1,0,12.93Zm-11.1-2.14a6,6,0,0,0,4.34,1.8,6.13,6.13,0,0,0,0-12.25,6.15,6.15,0,0,0-6.16,6.13A5.9,5.9,0,0,0,99.26,85.54ZM134.63,84a7.71,7.71,0,0,1-3.08,4.58,9.3,9.3,0,0,1-5.67,1.84,9.53,9.53,0,0,1-6.79-2.69,8.8,8.8,0,0,1,0-12.93,9.52,9.52,0,0,1,6.79-2.68,9.23,9.23,0,0,1,5.68,1.82,7.62,7.62,0,0,1,3.07,4.56H131.1a4.75,4.75,0,0,0-2-2.44,6.14,6.14,0,1,0-3.29,11.33,5.73,5.73,0,0,0,3.25-.94,5.22,5.22,0,0,0,2-2.45Zm21.08-11.44V89.93h-3l-.21-4h0a6.71,6.71,0,0,1-2.4,3.25,6.16,6.16,0,0,1-3.68,1.22A6.87,6.87,0,0,1,140.92,88a8.9,8.9,0,0,1-2.09-6V72.51h3.41v9.14a5.85,5.85,0,0,0,1.43,4,4.67,4.67,0,0,0,7.13-.07,6,6,0,0,0,1.5-4.13v-9Zm6,17.42V72.51h3l.21,4.71h0a7,7,0,0,1,2.54-3.71,6.88,6.88,0,0,1,4-1.37v3.09a6,6,0,0,0-4.67,1.92A6.9,6.9,0,0,0,165.11,82v7.93Zm14,0V72.51h3l.22,4.71h0a7,7,0,0,1,2.54-3.71,6.84,6.84,0,0,1,4-1.37v3.09a6,6,0,0,0-4.67,1.92A6.86,6.86,0,0,0,179.14,82v7.93Zm21.59-2.45a7.67,7.67,0,0,0,3.23-.68A4,4,0,0,0,202.59,85H206a7.92,7.92,0,0,1-3.42,3.93,10.3,10.3,0,0,1-5.44,1.49,9.51,9.51,0,0,1-6.82-2.63,8.69,8.69,0,0,1-2.76-6.57,8.84,8.84,0,0,1,2.63-6.46A9.15,9.15,0,0,1,197,72.07,8.72,8.72,0,0,1,203.84,75a10.65,10.65,0,0,1,2.56,7.31H191a6,6,0,0,0,2.13,3.76A6.34,6.34,0,0,0,197.3,87.48ZM197,75a6,6,0,0,0-4,1.32A5.68,5.68,0,0,0,191,79.66h11.89a5.92,5.92,0,0,0-2-3.45A6,6,0,0,0,197,75Zm13.72,15V72.51h3l.21,4h0a6.86,6.86,0,0,1,2.49-3.24,6.5,6.5,0,0,1,3.82-1.22,7.24,7.24,0,0,1,5.66,2.4,8.69,8.69,0,0,1,2.15,6v9.44h-3.41V80.82a5.8,5.8,0,0,0-1.5-4,4.86,4.86,0,0,0-3.79-1.66,4.79,4.79,0,0,0-3.71,1.73A6,6,0,0,0,214.1,81v8.93Zm40-6a7.68,7.68,0,0,1-3.09,4.58,9.25,9.25,0,0,1-5.66,1.84,9.53,9.53,0,0,1-6.79-2.69,8.8,8.8,0,0,1,0-12.93,9.52,9.52,0,0,1,6.79-2.68,9.23,9.23,0,0,1,5.68,1.82,7.62,7.62,0,0,1,3.07,4.56H247.1a4.75,4.75,0,0,0-2-2.44,5.94,5.94,0,0,0-3.29-1,5.87,5.87,0,0,0-4.35,1.82,6,6,0,0,0-1.8,4.34,5.86,5.86,0,0,0,1.81,4.32,5.94,5.94,0,0,0,4.34,1.8,5.73,5.73,0,0,0,3.25-.94,5.22,5.22,0,0,0,2-2.45Zm4.2,13.91,5.5-10.45-7.7-14.9h3.75l5.71,11.58,5.77-11.58h3.74L258.45,97.86ZM291.5,87.48a7.67,7.67,0,0,0,3.23-.68A3.91,3.91,0,0,0,296.79,85h3.39a7.92,7.92,0,0,1-3.42,3.93,10.3,10.3,0,0,1-5.44,1.49,9.53,9.53,0,0,1-6.82-2.63,8.69,8.69,0,0,1-2.76-6.57,8.84,8.84,0,0,1,2.63-6.46,9.15,9.15,0,0,1,6.78-2.64A8.7,8.7,0,0,1,298,75a10.65,10.65,0,0,1,2.56,7.31H285.17a6,6,0,0,0,2.13,3.76A6.37,6.37,0,0,0,291.5,87.48ZM291.15,75a6,6,0,0,0-4,1.32,5.62,5.62,0,0,0-1.94,3.39h11.88a5.92,5.92,0,0,0-2-3.45A6,6,0,0,0,291.15,75Zm30.21,15h-3.92l-5.36-6.45-5.41,6.45h-3.92l7.38-8.86L303,72.51h3.94l5.15,6.15,5.13-6.15h3.94L314,81.07Zm20.24-6a7.68,7.68,0,0,1-3.09,4.58,9.3,9.3,0,0,1-5.67,1.84,9.5,9.5,0,0,1-6.78-2.69,8.8,8.8,0,0,1,0-12.93,9.49,9.49,0,0,1,6.78-2.68,9.25,9.25,0,0,1,5.69,1.82,7.67,7.67,0,0,1,3.07,4.56h-3.54a4.7,4.7,0,0,0-2-2.44,6.14,6.14,0,0,0-7.63,9.53,6,6,0,0,0,4.35,1.8,5.73,5.73,0,0,0,3.25-.94,5.22,5.22,0,0,0,2-2.45Zm4.51,6V64h3.43V76.53h.07A6.51,6.51,0,0,1,352,73.29a6.24,6.24,0,0,1,3.71-1.22,7.21,7.21,0,0,1,5.65,2.4,8.65,8.65,0,0,1,2.16,6v9.44h-3.41V80.82a5.8,5.8,0,0,0-1.5-4,4.86,4.86,0,0,0-3.79-1.66,4.79,4.79,0,0,0-3.71,1.73A6,6,0,0,0,349.54,81v8.93Zm30.59.44a9.13,9.13,0,0,1-9-9.15,9.13,9.13,0,0,1,9-9.15,7.84,7.84,0,0,1,4.24,1.22,6.25,6.25,0,0,1,2.67,3.17h.07l.12-3.95h3.06V89.93H383.8l-.12-4h-.07a6.38,6.38,0,0,1-2.7,3.19A7.8,7.8,0,0,1,376.7,90.37Zm-3.78-4.83a6.12,6.12,0,1,0-1.79-4.32A5.93,5.93,0,0,0,372.92,85.54Zm19.9,4.39V72.51h3l.21,4h0a6.74,6.74,0,0,1,2.49-3.24,6.48,6.48,0,0,1,3.82-1.22,7.24,7.24,0,0,1,5.65,2.4,8.64,8.64,0,0,1,2.15,6v9.44h-3.41V80.82a5.84,5.84,0,0,0-1.49-4,4.88,4.88,0,0,0-3.8-1.66,4.79,4.79,0,0,0-3.71,1.73A6,6,0,0,0,396.25,81v8.93Zm31.71,8.28a10.43,10.43,0,0,1-5.84-1.64A8.15,8.15,0,0,1,415.3,92h3.64a5.18,5.18,0,0,0,2.2,2.51,6.49,6.49,0,0,0,3.39.9,6.28,6.28,0,0,0,4.5-1.71,5.81,5.81,0,0,0,1.79-4.41V85.29l0-.11a6,6,0,0,1-2.67,3.28,8.05,8.05,0,0,1-4.31,1.22,8.62,8.62,0,0,1-6.16-2.5,8.74,8.74,0,0,1,.05-12.55,8.72,8.72,0,0,1,6.21-2.56,8,8,0,0,1,4.27,1.2,6.23,6.23,0,0,1,2.68,3.19h.07l.1-3.95h3.06V88.89a8.82,8.82,0,0,1-2.73,6.79A9.7,9.7,0,0,1,424.53,98.21Zm.25-11.31A5.69,5.69,0,0,0,429,85.14a5.9,5.9,0,0,0,1.75-4.28A5.67,5.67,0,0,0,429,76.72,5.8,5.8,0,0,0,424.7,75a5.87,5.87,0,0,0-4.27,1.75,5.86,5.86,0,0,0,0,8.42A5.91,5.91,0,0,0,424.78,86.9Zm23.6.58a7.72,7.72,0,0,0,3.24-.68A3.92,3.92,0,0,0,453.67,85h3.4a8,8,0,0,1-3.42,3.93,10.32,10.32,0,0,1-5.44,1.49,9.51,9.51,0,0,1-6.82-2.63,8.69,8.69,0,0,1-2.76-6.57,8.83,8.83,0,0,1,2.62-6.46A9.18,9.18,0,0,1,448,72.07,8.7,8.7,0,0,1,454.92,75a10.66,10.66,0,0,1,2.57,7.31H442.05a6,6,0,0,0,2.13,3.76A6.37,6.37,0,0,0,448.38,87.48ZM448,75a6,6,0,0,0-4,1.32,5.72,5.72,0,0,0-1.94,3.39H454a5.87,5.87,0,0,0-2-3.45A6,6,0,0,0,448,75Z"/></g></g></svg>