<svg xmlns="http://www.w3.org/2000/svg" viewBox="0 0 616.29 66.63"><defs><style>.cls-1{fill:#0c4384;}</style></defs><title>Ресурс 7</title><g id="Слой_2" data-name="Слой 2"><g id="Слой_4" data-name="Слой 4"><path class="cls-1" d="M1.72,26.35V2.23H5.33V26.35Zm9.86,0V8.93h3l.21,4h0a6.88,6.88,0,0,1,2.49-3.25,6.53,6.53,0,0,1,3.82-1.22,7.24,7.24,0,0,1,5.66,2.4,8.71,8.71,0,0,1,2.15,6v9.44H25.56V17.24a5.8,5.8,0,0,0-1.5-4,5,5,0,0,0-7.5.07A6,6,0,0,0,15,17.42v8.93Zm31-2.67a8.87,8.87,0,0,0,2.81-.56v3a6.89,6.89,0,0,1-3.36.69,6.28,6.28,0,0,1-4.94-2,7.11,7.11,0,0,1-1.79-4.94V11.65H31.73V8.93h3.53V4.06h3.43V8.93H45.3v2.72H38.69v7.93a4.41,4.41,0,0,0,1,3A3.56,3.56,0,0,0,42.54,23.68Zm7.26,2.67V8.93h3L53,13.64h0a7,7,0,0,1,2.54-3.71,6.84,6.84,0,0,1,4-1.37v3.09A6,6,0,0,0,55,13.57a6.9,6.9,0,0,0-1.75,4.85v7.93ZM78,24.1a9.84,9.84,0,0,1-13.52,0,8.64,8.64,0,0,1-2.81-6.47,8.62,8.62,0,0,1,2.81-6.46,9.87,9.87,0,0,1,13.52,0,8.64,8.64,0,0,1,2.79,6.46A8.66,8.66,0,0,1,78,24.1ZM66.87,22a6.14,6.14,0,0,0,10.46-4.32,5.86,5.86,0,0,0-1.81-4.32,6.08,6.08,0,0,0-8.66,0,6.07,6.07,0,0,0,0,8.64ZM99.56.42H103V26.35h-3l-.16-4h-.07A6.23,6.23,0,0,1,97,25.57a8,8,0,0,1-4.25,1.22,8.62,8.62,0,0,1-6.26-2.63,8.82,8.82,0,0,1-2.66-6.56,8.72,8.72,0,0,1,2.66-6.5,8.61,8.61,0,0,1,6.23-2.61A7.56,7.56,0,0,1,96.9,9.71a6.12,6.12,0,0,1,2.59,3.17h.07ZM89.09,22a6.13,6.13,0,0,0,10.47-4.32,5.91,5.91,0,0,0-1.78-4.32,6.12,6.12,0,0,0-8.69,0,6.08,6.08,0,0,0,0,8.64Zm36.42-13V26.35h-3l-.21-4h0a6.71,6.71,0,0,1-2.4,3.25,6.16,6.16,0,0,1-3.68,1.22,6.87,6.87,0,0,1-5.44-2.42,8.9,8.9,0,0,1-2.09-6V8.93H112v9.14a5.88,5.88,0,0,0,1.43,4A4.69,4.69,0,0,0,120.6,22a6,6,0,0,0,1.5-4.14v-9Zm22.9,11.44A7.71,7.71,0,0,1,145.33,25a9.23,9.23,0,0,1-5.67,1.84,9.53,9.53,0,0,1-6.79-2.69,8.8,8.8,0,0,1,0-12.93,9.52,9.52,0,0,1,6.79-2.68,9.29,9.29,0,0,1,5.68,1.82,7.62,7.62,0,0,1,3.07,4.56h-3.53a4.76,4.76,0,0,0-2-2.43,6.11,6.11,0,0,0-7.64.86,6,6,0,0,0-1.8,4.34A5.86,5.86,0,0,0,135.28,22a5.92,5.92,0,0,0,4.34,1.81,5.85,5.85,0,0,0,3.26-.94,5.33,5.33,0,0,0,2-2.46ZM156.2,5a2.15,2.15,0,0,1-1.55.64A2.19,2.19,0,0,1,153.09,5a2.07,2.07,0,0,1-.67-1.55,2.07,2.07,0,0,1,.67-1.55,2.15,2.15,0,0,1,1.56-.64,2.11,2.11,0,0,1,1.55.64,2.12,2.12,0,0,1,.65,1.55A2.12,2.12,0,0,1,156.2,5Zm-3.27,21.31V8.93h3.43V26.35Zm9.39,0V8.93h3l.21,4h0a6.8,6.8,0,0,1,2.48-3.25,6.53,6.53,0,0,1,3.83-1.22,7.24,7.24,0,0,1,5.65,2.4,8.71,8.71,0,0,1,2.15,6v9.44h-3.41V17.24a5.84,5.84,0,0,0-1.49-4,4.88,4.88,0,0,0-3.8-1.66,4.82,4.82,0,0,0-3.71,1.73,6,6,0,0,0-1.55,4.14v8.93ZM194,34.63A10.43,10.43,0,0,1,188.19,33a8.15,8.15,0,0,1-3.39-4.62h3.64a5.16,5.16,0,0,0,2.19,2.51,6.52,6.52,0,0,0,3.4.9,6.31,6.31,0,0,0,4.5-1.7,5.85,5.85,0,0,0,1.79-4.42V21.71l0-.11a6,6,0,0,1-2.67,3.28,8,8,0,0,1-4.31,1.22,8.62,8.62,0,0,1-6.16-2.5,8.3,8.3,0,0,1-2.63-6.29,8.3,8.3,0,0,1,2.68-6.26,8.72,8.72,0,0,1,6.21-2.56,8,8,0,0,1,4.26,1.2,6.2,6.2,0,0,1,2.69,3.19h.07l.1-4h3.06V25.31a8.82,8.82,0,0,1-2.73,6.79A9.67,9.67,0,0,1,194,34.63Zm.24-11.3a5.71,5.71,0,0,0,4.2-1.77,5.87,5.87,0,0,0,1.74-4.28,5.66,5.66,0,0,0-1.76-4.14,5.81,5.81,0,0,0-4.26-1.77,5.9,5.9,0,0,0-4.26,1.75,5.86,5.86,0,0,0,0,8.42A5.92,5.92,0,0,0,194.27,23.33Zm47.94-9.94c0,.49.08.89.09,1.22a11.79,11.79,0,0,1-3.76,8.63,13.22,13.22,0,0,1-18.16-.12,11.9,11.9,0,0,1-3.76-8.83,11.88,11.88,0,0,1,3.76-8.82,12.51,12.51,0,0,1,9.08-3.68,13.07,13.07,0,0,1,7,2A12.75,12.75,0,0,1,241.31,9l-3.81.24a9.59,9.59,0,0,0-3.42-3.15A9.39,9.39,0,0,0,229.46,5a8.93,8.93,0,0,0-6.53,2.72,9,9,0,0,0-2.71,6.58A8.9,8.9,0,0,0,223,20.82a9.12,9.12,0,0,0,6.65,2.72,9.29,9.29,0,0,0,6-2.07,8.83,8.83,0,0,0,3.2-5.23H228.71V13.39ZM255,23.91a7.68,7.68,0,0,0,3.23-.69,3.93,3.93,0,0,0,2.06-1.84h3.39a7.94,7.94,0,0,1-3.42,3.92,10.3,10.3,0,0,1-5.44,1.49A9.53,9.53,0,0,1,248,24.16a8.68,8.68,0,0,1-2.76-6.56,8.81,8.81,0,0,1,2.63-6.46,9.12,9.12,0,0,1,6.78-2.65,8.7,8.7,0,0,1,6.89,2.92,10.65,10.65,0,0,1,2.56,7.31H248.66a6,6,0,0,0,2.13,3.76A6.38,6.38,0,0,0,255,23.91Zm-.35-12.54a6,6,0,0,0-4,1.32,5.62,5.62,0,0,0-1.94,3.39h11.88a5.92,5.92,0,0,0-2-3.45A6,6,0,0,0,254.64,11.37Zm21.83,12.31a8.87,8.87,0,0,0,2.81-.56v3a6.89,6.89,0,0,1-3.36.69,6.28,6.28,0,0,1-4.94-2,7.11,7.11,0,0,1-1.79-4.94V11.65h-3.53V8.93h3.53V4.06h3.43V8.93h6.61v2.72h-6.61v7.93a4.41,4.41,0,0,0,1,3A3.56,3.56,0,0,0,276.47,23.68Zm15.4.23a7.68,7.68,0,0,0,3.23-.69,4,4,0,0,0,2.06-1.84h3.39a7.94,7.94,0,0,1-3.42,3.92,10.3,10.3,0,0,1-5.44,1.49,9.51,9.51,0,0,1-6.82-2.63,8.68,8.68,0,0,1-2.76-6.56,8.81,8.81,0,0,1,2.63-6.46,9.12,9.12,0,0,1,6.78-2.65,8.7,8.7,0,0,1,6.89,2.92A10.65,10.65,0,0,1,301,18.72H285.54a6,6,0,0,0,2.13,3.76A6.34,6.34,0,0,0,291.87,23.91Zm-.35-12.54a6,6,0,0,0-4,1.32,5.68,5.68,0,0,0-1.95,3.39h11.89a5.92,5.92,0,0,0-2-3.45A6,6,0,0,0,291.52,11.37Zm30.21,15h-3.92l-5.36-6.45L307,26.35h-3.92l7.38-8.86-7.14-8.56h3.94l5.15,6.15,5.13-6.15h3.94l-7.14,8.56Zm21.34-10.27V19H332.93V16.08Zm20.87,10.71a8.79,8.79,0,0,1-6.29-2.63,8.69,8.69,0,0,1-2.71-6.52,8.69,8.69,0,0,1,2.71-6.52,8.79,8.79,0,0,1,6.29-2.63,7.84,7.84,0,0,1,4.24,1.22,6.29,6.29,0,0,1,2.67,3.17h.07l.12-4h3.06V26.35H371l-.12-4h-.07a6.38,6.38,0,0,1-2.7,3.19A7.8,7.8,0,0,1,363.94,26.79ZM360.16,22a6.13,6.13,0,0,0,10.47-4.32,5.91,5.91,0,0,0-1.78-4.32,6.12,6.12,0,0,0-8.69,0,5.88,5.88,0,0,0-1.79,4.32A5.88,5.88,0,0,0,360.16,22ZM392.73,6.84V8.93h6.59v2.72h-6.59v14.7H389.3V11.65h-3.37V8.93h3.37V6.56a6.47,6.47,0,0,1,1.82-4.69,6.67,6.67,0,0,1,5-1.87,9.14,9.14,0,0,1,3.53.69l-.38,2.72a6.09,6.09,0,0,0-2.64-.56A3.74,3.74,0,0,0,393.71,4,4.24,4.24,0,0,0,392.73,6.84ZM419.8,8.93V26.35h-3l-.21-4h0a6.71,6.71,0,0,1-2.4,3.25,6.13,6.13,0,0,1-3.68,1.22A6.84,6.84,0,0,1,405,24.37a8.85,8.85,0,0,1-2.09-6V8.93h3.41v9.14a5.87,5.87,0,0,0,1.42,4A4.7,4.7,0,0,0,414.9,22a6.07,6.07,0,0,0,1.49-4.14v-9Zm6,17.42V.42h3.43V26.35Zm9.38,0V.42h3.43V26.35Zm9.07,7.93,5.51-10.44L442,8.93h3.74l5.71,11.58,5.77-11.58H461L447.86,34.28Zm28.36-7.93V.42H476V26.35ZM485.24,5a2.15,2.15,0,0,1-1.54.64A2.23,2.23,0,0,1,482.13,5a2.13,2.13,0,0,1,0-3.1,2.19,2.19,0,0,1,1.57-.64,2.11,2.11,0,0,1,1.54.64,2.09,2.09,0,0,1,.65,1.55A2.09,2.09,0,0,1,485.24,5ZM482,26.35V8.93h3.43V26.35Zm26.32-6A7.68,7.68,0,0,1,505.2,25a9.18,9.18,0,0,1-5.66,1.84,9.53,9.53,0,0,1-6.79-2.69,8.59,8.59,0,0,1-2.83-6.47,8.57,8.57,0,0,1,2.83-6.46,9.52,9.52,0,0,1,6.79-2.68,9.29,9.29,0,0,1,5.68,1.82,7.62,7.62,0,0,1,3.07,4.56h-3.53a4.76,4.76,0,0,0-2-2.43,6.11,6.11,0,0,0-7.64.86,6,6,0,0,0-1.8,4.34,6.18,6.18,0,0,0,6.15,6.13,5.81,5.81,0,0,0,3.25-.94,5.29,5.29,0,0,0,2-2.46Zm12.83,3.54a7.72,7.72,0,0,0,3.24-.69,4,4,0,0,0,2-1.84h3.39a8,8,0,0,1-3.41,3.92A10.32,10.32,0,0,1,521,26.79a9.54,9.54,0,0,1-6.83-2.63,8.71,8.71,0,0,1-2.75-6.56A8.8,8.8,0,0,1,514,11.14a9.13,9.13,0,0,1,6.78-2.65,8.7,8.7,0,0,1,6.89,2.92,10.66,10.66,0,0,1,2.57,7.31H514.79a6,6,0,0,0,2.13,3.76A6.38,6.38,0,0,0,521.12,23.91Zm-.35-12.54a6,6,0,0,0-4,1.32,5.67,5.67,0,0,0-1.94,3.39h11.88a5.92,5.92,0,0,0-2-3.45A6,6,0,0,0,520.77,11.37Zm13.73,15V8.93h3l.21,4h0a6.8,6.8,0,0,1,2.48-3.25,6.53,6.53,0,0,1,3.83-1.22,7.24,7.24,0,0,1,5.65,2.4,8.66,8.66,0,0,1,2.15,6v9.44h-3.41V17.24a5.84,5.84,0,0,0-1.49-4,4.88,4.88,0,0,0-3.8-1.66,4.82,4.82,0,0,0-3.71,1.73,6,6,0,0,0-1.54,4.14v8.93Zm30.27.44a10.83,10.83,0,0,1-5.65-1.39,4.71,4.71,0,0,1-2.46-4.1h3.68q.18,2.72,4.3,2.71c2.59,0,3.9-.75,3.91-2.27a2.14,2.14,0,0,0-.08-.58,1.39,1.39,0,0,0-.27-.51,3.72,3.72,0,0,0-.38-.4,2.71,2.71,0,0,0-.54-.33l-.61-.27a7.35,7.35,0,0,0-.73-.23l-.78-.2-.85-.2-.84-.19a15.73,15.73,0,0,1-2.24-.65,13.11,13.11,0,0,1-1.92-.95,4.12,4.12,0,0,1-2.07-3.73,4.22,4.22,0,0,1,2-3.69,9,9,0,0,1,5.09-1.32,10.3,10.3,0,0,1,5.22,1.28,4.47,4.47,0,0,1,2.34,3.94h-3.53A2.17,2.17,0,0,0,567,11.86a5.78,5.78,0,0,0-2.68-.59,5.58,5.58,0,0,0-2.54.53,1.77,1.77,0,0,0-1,1.66,1.7,1.7,0,0,0,.28,1,2.3,2.3,0,0,0,.61.66,4.28,4.28,0,0,0,1.1.5c.51.17.92.3,1.24.38l1.54.35a22.14,22.14,0,0,1,2.49.63,12,12,0,0,1,2.05.89,4.26,4.26,0,0,1,1.65,1.51,4.36,4.36,0,0,1,.54,2.23,4.34,4.34,0,0,1-2.13,3.87A9.86,9.86,0,0,1,564.77,26.79Zm20.46-2.88a7.65,7.65,0,0,0,3.23-.69,3.93,3.93,0,0,0,2.06-1.84h3.39a7.94,7.94,0,0,1-3.42,3.92,10.3,10.3,0,0,1-5.44,1.49,9.53,9.53,0,0,1-6.82-2.63,8.68,8.68,0,0,1-2.76-6.56,8.81,8.81,0,0,1,2.63-6.46,9.12,9.12,0,0,1,6.78-2.65,8.7,8.7,0,0,1,6.89,2.92,10.65,10.65,0,0,1,2.56,7.31H578.9A6,6,0,0,0,581,22.48,6.38,6.38,0,0,0,585.23,23.91Zm-.35-12.54a6,6,0,0,0-4,1.32,5.62,5.62,0,0,0-1.94,3.39h11.88a5.92,5.92,0,0,0-2-3.45A6,6,0,0,0,584.88,11.37Zm28-10.95h3.43V26.35h-3l-.16-4H613a6.23,6.23,0,0,1-2.7,3.18,8,8,0,0,1-4.25,1.22,8.62,8.62,0,0,1-6.26-2.63,8.83,8.83,0,0,1-2.67-6.56,8.73,8.73,0,0,1,2.67-6.5,8.61,8.61,0,0,1,6.23-2.61,7.56,7.56,0,0,1,4.14,1.22,6.17,6.17,0,0,1,2.59,3.17h.07ZM602.38,22a6.13,6.13,0,0,0,10.48-4.32,5.91,5.91,0,0,0-1.78-4.32,6.13,6.13,0,0,0-8.7,0,6.11,6.11,0,0,0,0,8.64Zm-584,30.41A7.68,7.68,0,0,1,15.28,57a9.18,9.18,0,0,1-5.66,1.84A9.53,9.53,0,0,1,2.83,56.1a8.8,8.8,0,0,1,0-12.93,9.52,9.52,0,0,1,6.79-2.68,9.29,9.29,0,0,1,5.68,1.82,7.62,7.62,0,0,1,3.07,4.56H14.84a4.76,4.76,0,0,0-2-2.43,5.87,5.87,0,0,0-3.29-1A5.87,5.87,0,0,0,5.23,45.3a6,6,0,0,0-1.8,4.34A5.86,5.86,0,0,0,5.24,54a5.91,5.91,0,0,0,4.34,1.81,5.81,5.81,0,0,0,3.25-.94,5.29,5.29,0,0,0,2-2.46Zm4.52,6V40.93h3l.21,4.71h0a6.92,6.92,0,0,1,2.54-3.71,6.84,6.84,0,0,1,4.05-1.37v3.09a6,6,0,0,0-4.68,1.92,6.9,6.9,0,0,0-1.76,4.85v7.93ZM36.6,66.28l5.5-10.44L34.4,40.93h3.74l5.72,11.58,5.76-11.58h3.75L40.22,66.28Zm20,0V40.93h3l.14,4h.07a6.23,6.23,0,0,1,2.68-3.19,8,8,0,0,1,4.25-1.2,9.08,9.08,0,0,1,8.94,9.15,8.76,8.76,0,0,1-2.66,6.52,8.49,8.49,0,0,1-6.14,2.63,7.53,7.53,0,0,1-4.21-1.25,6.31,6.31,0,0,1-2.6-3.15h-.07V66.28ZM61.86,54a5.82,5.82,0,0,0,4.31,1.81A5.92,5.92,0,0,0,70.51,54a6.06,6.06,0,0,0,0-8.64A6.12,6.12,0,1,0,61.86,54Zm26.52,1.72a8.92,8.92,0,0,0,2.82-.56v3a6.89,6.89,0,0,1-3.36.69,6.3,6.3,0,0,1-5-2,7.1,7.1,0,0,1-1.78-4.94V43.65H77.57V40.93h3.54V36.06h3.42v4.87h6.61v2.72H84.53v7.93a4.46,4.46,0,0,0,1,3A3.57,3.57,0,0,0,88.38,55.68Zm22,.42a9.84,9.84,0,0,1-13.52,0,8.84,8.84,0,0,1,0-12.93,9.87,9.87,0,0,1,13.52,0,8.89,8.89,0,0,1,0,12.93ZM99.26,54a5.92,5.92,0,0,0,4.34,1.81,6.12,6.12,0,0,0,4.32-10.45,5.86,5.86,0,0,0-4.31-1.81A6.11,6.11,0,0,0,99.26,54Zm35.37-1.59A7.71,7.71,0,0,1,131.55,57a9.23,9.23,0,0,1-5.67,1.84,9.53,9.53,0,0,1-6.79-2.69,8.8,8.8,0,0,1,0-12.93,9.52,9.52,0,0,1,6.79-2.68,9.29,9.29,0,0,1,5.68,1.82,7.62,7.62,0,0,1,3.07,4.56H131.1a4.76,4.76,0,0,0-2-2.43,6.11,6.11,0,0,0-7.64.86,6,6,0,0,0-1.8,4.34,6.14,6.14,0,0,0,9.4,5.19,5.29,5.29,0,0,0,2-2.46Zm21.08-11.44V58.35h-3l-.21-4h0a6.71,6.71,0,0,1-2.4,3.25,6.16,6.16,0,0,1-3.68,1.22,6.87,6.87,0,0,1-5.44-2.42,8.9,8.9,0,0,1-2.09-6V40.93h3.41v9.14a5.88,5.88,0,0,0,1.43,4A4.69,4.69,0,0,0,150.8,54a6,6,0,0,0,1.5-4.14v-9Zm6,17.42V40.93h3l.21,4.71h0a7,7,0,0,1,2.54-3.71,6.88,6.88,0,0,1,4-1.37v3.09a6,6,0,0,0-4.67,1.92,6.9,6.9,0,0,0-1.76,4.85v7.93Zm14,0V40.93h3l.22,4.71h0a7,7,0,0,1,2.54-3.71,6.84,6.84,0,0,1,4-1.37v3.09a6,6,0,0,0-4.67,1.92,6.86,6.86,0,0,0-1.76,4.85v7.93Zm21.59-2.44a7.68,7.68,0,0,0,3.23-.69,4,4,0,0,0,2.06-1.84H206a7.94,7.94,0,0,1-3.42,3.92,10.3,10.3,0,0,1-5.44,1.49,9.51,9.51,0,0,1-6.82-2.63,8.68,8.68,0,0,1-2.76-6.56,8.81,8.81,0,0,1,2.63-6.46A9.12,9.12,0,0,1,197,40.49a8.72,8.72,0,0,1,6.89,2.92,10.65,10.65,0,0,1,2.56,7.31H191a6,6,0,0,0,2.13,3.76A6.34,6.34,0,0,0,197.3,55.91ZM197,43.37a6,6,0,0,0-4,1.32A5.68,5.68,0,0,0,191,48.08h11.89a5.92,5.92,0,0,0-2-3.45A6,6,0,0,0,197,43.37Zm13.72,15V40.93h3l.21,4h0a6.88,6.88,0,0,1,2.49-3.25,6.5,6.5,0,0,1,3.82-1.22,7.24,7.24,0,0,1,5.66,2.4,8.71,8.71,0,0,1,2.15,6v9.44h-3.41V49.24a5.8,5.8,0,0,0-1.5-4,5,5,0,0,0-7.5.07,6,6,0,0,0-1.55,4.14v8.93Zm40-6A7.68,7.68,0,0,1,247.54,57a9.18,9.18,0,0,1-5.66,1.84,9.53,9.53,0,0,1-6.79-2.69,8.8,8.8,0,0,1,0-12.93,9.52,9.52,0,0,1,6.79-2.68,9.29,9.29,0,0,1,5.68,1.82,7.62,7.62,0,0,1,3.07,4.56H247.1a4.76,4.76,0,0,0-2-2.43,6.11,6.11,0,0,0-7.64.86,6,6,0,0,0-1.8,4.34,6.14,6.14,0,0,0,9.4,5.19,5.29,5.29,0,0,0,2-2.46Zm4.2,13.91,5.5-10.44-7.7-14.91h3.75l5.71,11.58,5.77-11.58h3.74L258.45,66.28ZM291.5,55.91a7.68,7.68,0,0,0,3.23-.69,3.93,3.93,0,0,0,2.06-1.84h3.39a7.94,7.94,0,0,1-3.42,3.92,10.3,10.3,0,0,1-5.44,1.49,9.53,9.53,0,0,1-6.82-2.63,8.68,8.68,0,0,1-2.76-6.56,8.81,8.81,0,0,1,2.63-6.46,9.12,9.12,0,0,1,6.78-2.65A8.7,8.7,0,0,1,298,43.41a10.65,10.65,0,0,1,2.56,7.31H285.17a6,6,0,0,0,2.13,3.76A6.38,6.38,0,0,0,291.5,55.91Zm-.35-12.54a6,6,0,0,0-4,1.32,5.62,5.62,0,0,0-1.94,3.39h11.88a5.92,5.92,0,0,0-2-3.45A6,6,0,0,0,291.15,43.37Zm30.21,15h-3.92l-5.36-6.45-5.41,6.45h-3.92l7.38-8.86L303,40.93h3.94l5.15,6.15,5.13-6.15h3.94L314,49.49Zm20.24-6A7.68,7.68,0,0,1,338.51,57a9.23,9.23,0,0,1-5.67,1.84,9.5,9.5,0,0,1-6.78-2.69,8.8,8.8,0,0,1,0-12.93,9.49,9.49,0,0,1,6.78-2.68,9.32,9.32,0,0,1,5.69,1.82,7.67,7.67,0,0,1,3.07,4.56h-3.54a4.71,4.71,0,0,0-2-2.43,6.1,6.1,0,0,0-7.63.86,6.14,6.14,0,0,0,4.35,10.47,5.81,5.81,0,0,0,3.25-.94,5.29,5.29,0,0,0,2-2.46Zm4.51,6V32.42h3.43V45h.07A6.54,6.54,0,0,1,352,41.71a6.24,6.24,0,0,1,3.71-1.22,7.21,7.21,0,0,1,5.65,2.4,8.67,8.67,0,0,1,2.16,6v9.44h-3.41V49.24a5.8,5.8,0,0,0-1.5-4,5,5,0,0,0-7.5.07,6,6,0,0,0-1.55,4.14v8.93Zm30.59.44a8.77,8.77,0,0,1-6.28-2.63,9.17,9.17,0,0,1,0-13,8.77,8.77,0,0,1,6.28-2.63,7.84,7.84,0,0,1,4.24,1.22,6.29,6.29,0,0,1,2.67,3.17h.07l.12-4h3.06V58.35H383.8l-.12-4h-.07a6.38,6.38,0,0,1-2.7,3.19A7.8,7.8,0,0,1,376.7,58.79ZM372.92,54a6.13,6.13,0,1,0,8.69-8.64A6.13,6.13,0,1,0,372.92,54Zm19.9,4.39V40.93h3l.21,4h0a6.76,6.76,0,0,1,2.49-3.25,6.48,6.48,0,0,1,3.82-1.22,7.24,7.24,0,0,1,5.65,2.4,8.66,8.66,0,0,1,2.15,6v9.44h-3.41V49.24a5.84,5.84,0,0,0-1.49-4,4.88,4.88,0,0,0-3.8-1.66,4.82,4.82,0,0,0-3.71,1.73,6,6,0,0,0-1.54,4.14v8.93Zm31.71,8.28A10.43,10.43,0,0,1,418.69,65a8.15,8.15,0,0,1-3.39-4.62h3.64a5.18,5.18,0,0,0,2.2,2.51,6.49,6.49,0,0,0,3.39.9,6.31,6.31,0,0,0,4.5-1.7,5.85,5.85,0,0,0,1.79-4.42V53.71l0-.11a6,6,0,0,1-2.67,3.28,8,8,0,0,1-4.31,1.22,8.62,8.62,0,0,1-6.16-2.5,8.74,8.74,0,0,1,.05-12.55,8.72,8.72,0,0,1,6.21-2.56,8,8,0,0,1,4.27,1.2,6.23,6.23,0,0,1,2.68,3.19h.07l.1-4h3.06V57.31a8.82,8.82,0,0,1-2.73,6.79A9.65,9.65,0,0,1,424.53,66.63Zm.25-11.3A5.7,5.7,0,0,0,429,53.56a5.88,5.88,0,0,0,1.75-4.28A5.67,5.67,0,0,0,429,45.14a5.8,5.8,0,0,0-4.25-1.77,5.91,5.91,0,0,0-4.27,1.75,5.86,5.86,0,0,0,0,8.42A5.92,5.92,0,0,0,424.78,55.33Zm23.6.58a7.72,7.72,0,0,0,3.24-.69,4,4,0,0,0,2.05-1.84h3.4a8,8,0,0,1-3.42,3.92,10.32,10.32,0,0,1-5.44,1.49,9.51,9.51,0,0,1-6.82-2.63,8.68,8.68,0,0,1-2.76-6.56,8.8,8.8,0,0,1,2.62-6.46A9.15,9.15,0,0,1,448,40.49a8.7,8.7,0,0,1,6.89,2.92,10.66,10.66,0,0,1,2.57,7.31H442.05a6,6,0,0,0,2.13,3.76A6.38,6.38,0,0,0,448.38,55.91ZM448,43.37a6,6,0,0,0-4,1.32,5.72,5.72,0,0,0-1.94,3.39H454a5.87,5.87,0,0,0-2-3.45A6,6,0,0,0,448,43.37Z"/></g></g></svg>