<svg xmlns="http://www.w3.org/2000/svg" viewBox="0 0 826.17 34.21"><defs><style>.cls-1{fill:#0c4384;}</style></defs><title>Ресурс 18</title><g id="Слой_2" data-name="Слой 2"><g id="Слой_4" data-name="Слой 4"><path class="cls-1" d="M0,25.93V1.81H3.6V25.93Zm9.86,0V8.51h3l.22,4h0a6.74,6.74,0,0,1,2.49-3.24,6.5,6.5,0,0,1,3.82-1.22,7.22,7.22,0,0,1,5.65,2.4,8.65,8.65,0,0,1,2.16,6v9.44H23.84V16.82a5.8,5.8,0,0,0-1.5-4,4.86,4.86,0,0,0-3.8-1.66,4.77,4.77,0,0,0-3.7,1.73A6,6,0,0,0,13.29,17v8.93Zm31-2.67a8.69,8.69,0,0,0,2.81-.57v3a6.89,6.89,0,0,1-3.36.69,6.3,6.3,0,0,1-5-2,7.1,7.1,0,0,1-1.78-4.94V11.23H30V8.51h3.53V3.64H37V8.51h6.61v2.72H37v7.93a4.41,4.41,0,0,0,1,2.94A3.57,3.57,0,0,0,40.82,23.26Zm7.26,2.67V8.51h3l.21,4.71h0a6.92,6.92,0,0,1,2.54-3.71,6.84,6.84,0,0,1,4-1.37v3.09a6,6,0,0,0-4.68,1.92A6.9,6.9,0,0,0,51.5,18v7.93Zm28.16-2.25a9.84,9.84,0,0,1-13.52,0,8.62,8.62,0,0,1-2.81-6.47,8.59,8.59,0,0,1,2.81-6.46,9.87,9.87,0,0,1,13.52,0A8.64,8.64,0,0,1,79,17.21,8.68,8.68,0,0,1,76.24,23.68Zm-11.1-2.14a6,6,0,0,0,4.34,1.8,6.15,6.15,0,0,0,6.12-6.12,6.14,6.14,0,1,0-10.46,4.32ZM97.84,0h3.43V25.93h-3l-.15-4H98a6.27,6.27,0,0,1-2.7,3.18,8,8,0,0,1-4.25,1.22,8.62,8.62,0,0,1-6.26-2.63,8.84,8.84,0,0,1-2.67-6.57,8.7,8.7,0,0,1,2.67-6.49A8.61,8.61,0,0,1,91,8.07a7.56,7.56,0,0,1,4.14,1.22,6.13,6.13,0,0,1,2.59,3.17h.07ZM87.36,21.54a6.13,6.13,0,0,0,10.48-4.32,6.14,6.14,0,1,0-10.48,4.32Zm36.43-13V25.93h-3l-.21-4h0a6.71,6.71,0,0,1-2.4,3.25,6.16,6.16,0,0,1-3.69,1.22A6.87,6.87,0,0,1,109,24a8.9,8.9,0,0,1-2.09-6V8.51h3.41v9.14a5.85,5.85,0,0,0,1.42,4,4.68,4.68,0,0,0,7.14-.07,6,6,0,0,0,1.5-4.13v-9ZM146.69,20a7.68,7.68,0,0,1-3.09,4.58,9.25,9.25,0,0,1-5.66,1.84,9.53,9.53,0,0,1-6.79-2.69,8.61,8.61,0,0,1-2.83-6.47,8.57,8.57,0,0,1,2.83-6.46,9.52,9.52,0,0,1,6.79-2.68,9.23,9.23,0,0,1,5.68,1.82,7.62,7.62,0,0,1,3.07,4.56h-3.53a4.75,4.75,0,0,0-2-2.44,5.94,5.94,0,0,0-3.29-.95,5.87,5.87,0,0,0-4.35,1.82,6,6,0,0,0-1.8,4.34,5.86,5.86,0,0,0,1.81,4.32,5.94,5.94,0,0,0,4.34,1.8,5.73,5.73,0,0,0,3.25-.94,5.22,5.22,0,0,0,2-2.45Zm7.79-15.34a2.14,2.14,0,0,1-1.55.65,2.16,2.16,0,0,1-1.56-.65,2,2,0,0,1-.67-1.54,2.05,2.05,0,0,1,.67-1.55,2.15,2.15,0,0,1,1.56-.64,2.13,2.13,0,0,1,1.55.64,2.11,2.11,0,0,1,.65,1.55A2.09,2.09,0,0,1,154.48,4.61Zm-3.27,21.32V8.51h3.42V25.93Zm9.38,0V8.51h3l.21,4h0a6.86,6.86,0,0,1,2.49-3.24,6.5,6.5,0,0,1,3.82-1.22,7.24,7.24,0,0,1,5.66,2.4,8.69,8.69,0,0,1,2.15,6v9.44h-3.41V16.82a5.8,5.8,0,0,0-1.5-4,4.86,4.86,0,0,0-3.79-1.66,4.79,4.79,0,0,0-3.71,1.73A6,6,0,0,0,164,17v8.93Zm31.71,8.28a10.4,10.4,0,0,1-5.83-1.64A8.06,8.06,0,0,1,183.08,28h3.63a5.18,5.18,0,0,0,2.2,2.51,6.51,6.51,0,0,0,3.39.9,6.24,6.24,0,0,0,4.5-1.71,5.78,5.78,0,0,0,1.8-4.41V21.29l0-.11a6,6,0,0,1-2.66,3.28,8.11,8.11,0,0,1-4.32,1.22,8.64,8.64,0,0,1-6.16-2.5,8.34,8.34,0,0,1-2.63-6.29,8.31,8.31,0,0,1,2.69-6.26,8.68,8.68,0,0,1,6.21-2.56A8,8,0,0,1,196,9.27a6.18,6.18,0,0,1,2.68,3.19h.07l.11-4h3.06V24.89a8.79,8.79,0,0,1-2.74,6.79A9.68,9.68,0,0,1,192.3,34.21Zm.25-11.31a5.66,5.66,0,0,0,4.19-1.76,5.86,5.86,0,0,0,1.75-4.28,5.7,5.7,0,0,0-1.76-4.14,6,6,0,0,0-10.3,4.21,5.69,5.69,0,0,0,1.81,4.19A5.91,5.91,0,0,0,192.55,22.9ZM240.49,13c0,.48.07.89.08,1.22a11.76,11.76,0,0,1-3.76,8.63,13.21,13.21,0,0,1-18.16-.13,11.92,11.92,0,0,1-3.76-8.82A11.94,11.94,0,0,1,218.65,5a12.58,12.58,0,0,1,9.09-3.67,13,13,0,0,1,7,2,12.72,12.72,0,0,1,4.81,5.25l-3.81.25a9.61,9.61,0,0,0-3.42-3.16,9.41,9.41,0,0,0-4.62-1.16,8.87,8.87,0,0,0-6.53,2.72,9,9,0,0,0-2.71,6.57,8.87,8.87,0,0,0,2.75,6.57,9.12,9.12,0,0,0,6.65,2.72,9.31,9.31,0,0,0,6-2.07,8.88,8.88,0,0,0,3.2-5.23H227V13Zm12.78,10.51a7.7,7.7,0,0,0,3.23-.68A4,4,0,0,0,258.56,21H262a8,8,0,0,1-3.42,3.93,10.3,10.3,0,0,1-5.44,1.49,9.51,9.51,0,0,1-6.82-2.63,8.69,8.69,0,0,1-2.76-6.57,8.84,8.84,0,0,1,2.63-6.46,9.14,9.14,0,0,1,6.77-2.64A8.69,8.69,0,0,1,259.8,11a10.61,10.61,0,0,1,2.57,7.31H246.94a6.07,6.07,0,0,0,2.12,3.76A6.38,6.38,0,0,0,253.27,23.48ZM252.91,11a6,6,0,0,0-4,1.32A5.68,5.68,0,0,0,247,15.66h11.89a5.88,5.88,0,0,0-2-3.45A6,6,0,0,0,252.91,11Zm21.84,12.31a8.69,8.69,0,0,0,2.81-.57v3a6.89,6.89,0,0,1-3.36.69,6.3,6.3,0,0,1-4.95-2,7.1,7.1,0,0,1-1.78-4.94V11.23h-3.53V8.51h3.53V3.64h3.43V8.51h6.61v2.72H270.9v7.93a4.41,4.41,0,0,0,1,2.94A3.57,3.57,0,0,0,274.75,23.26Zm15.39.22a7.72,7.72,0,0,0,3.24-.68A4,4,0,0,0,295.44,21h3.39a8,8,0,0,1-3.42,3.93A10.32,10.32,0,0,1,290,26.37a9.51,9.51,0,0,1-6.82-2.63,8.69,8.69,0,0,1-2.76-6.57A8.8,8.8,0,0,1,283,10.71a9.14,9.14,0,0,1,6.77-2.64A8.69,8.69,0,0,1,296.68,11a10.66,10.66,0,0,1,2.57,7.31H283.82a6,6,0,0,0,2.12,3.76A6.37,6.37,0,0,0,290.14,23.48ZM289.79,11a6,6,0,0,0-4,1.32,5.72,5.72,0,0,0-1.94,3.39h11.88a5.87,5.87,0,0,0-2-3.45A6,6,0,0,0,289.79,11Zm30.22,15h-3.92l-5.36-6.45-5.42,6.45h-3.92l7.39-8.86-7.14-8.56h3.94l5.15,6.15,5.13-6.15h3.94l-7.14,8.56Zm21.34-10.27v2.92H331.21V15.66Zm20.86,10.71a8.78,8.78,0,0,1-6.28-2.63,8.72,8.72,0,0,1-2.72-6.52,8.7,8.7,0,0,1,2.72-6.52,8.74,8.74,0,0,1,6.28-2.63,7.85,7.85,0,0,1,4.25,1.22,6.27,6.27,0,0,1,2.66,3.17h.07l.13-4h3.06V25.93h-3.06l-.13-4h-.07a6.29,6.29,0,0,1-2.7,3.19A7.75,7.75,0,0,1,362.21,26.37Zm-3.77-4.83a6.13,6.13,0,0,0,10.47-4.32,6.14,6.14,0,1,0-10.47,4.32Zm28.49,4.39V1.81h3.6V12.74h0l11.3-10.93h4.43L394.21,13.59l12.16,12.34h-4.46L390.57,14.48h0V25.93ZM425.2,8.51V25.93h-3l-.21-4h0a6.71,6.71,0,0,1-2.4,3.25,6.16,6.16,0,0,1-3.68,1.22A6.87,6.87,0,0,1,410.41,24a8.9,8.9,0,0,1-2.09-6V8.51h3.41v9.14a5.85,5.85,0,0,0,1.43,4,4.67,4.67,0,0,0,7.13-.07,6,6,0,0,0,1.5-4.13v-9Zm29.77,9a12.18,12.18,0,0,1-4.57,6.34,13,13,0,0,1-16.73-1.19,11.88,11.88,0,0,1-3.76-8.82A11.9,11.9,0,0,1,433.67,5,13,13,0,0,1,450.4,3.86,12.18,12.18,0,0,1,455,10.2h-3.74a9.1,9.1,0,0,0-3.37-4,9.24,9.24,0,0,0-11.65,1.15,8.91,8.91,0,0,0-2.7,6.55,8.91,8.91,0,0,0,2.7,6.55,9.25,9.25,0,0,0,11.66,1.15,9.23,9.23,0,0,0,3.4-4Zm19.64,6.14a9.84,9.84,0,0,1-13.52,0,8.66,8.66,0,0,1-2.81-6.47,8.62,8.62,0,0,1,2.81-6.46,9.87,9.87,0,0,1,13.52,0,8.64,8.64,0,0,1,2.79,6.46A8.68,8.68,0,0,1,474.61,23.68Zm-11.09-2.14A6.14,6.14,0,0,0,474,17.22a5.88,5.88,0,0,0-1.81-4.33,6.11,6.11,0,0,0-8.66,0,6.08,6.08,0,0,0,0,8.65ZM485.23,4.61a2.14,2.14,0,0,1-1.55.65,2.16,2.16,0,0,1-1.56-.65,2,2,0,0,1-.67-1.54,2.05,2.05,0,0,1,.67-1.55,2.15,2.15,0,0,1,1.56-.64,2.13,2.13,0,0,1,1.55.64,2.11,2.11,0,0,1,.65,1.55A2.09,2.09,0,0,1,485.23,4.61ZM482,25.93V8.51h3.42V25.93Zm9.38,0V8.51h3l.21,4h0a6.86,6.86,0,0,1,2.49-3.24,6.5,6.5,0,0,1,3.82-1.22,7.24,7.24,0,0,1,5.66,2.4,8.69,8.69,0,0,1,2.15,6v9.44h-3.41V16.82a5.8,5.8,0,0,0-1.5-4A4.86,4.86,0,0,0,500,11.13a4.79,4.79,0,0,0-3.71,1.73A6,6,0,0,0,494.77,17v8.93Zm38.59.44A10.93,10.93,0,0,1,524.28,25a4.71,4.71,0,0,1-2.46-4.1h3.68q.18,2.72,4.3,2.71c2.59,0,3.9-.76,3.91-2.27a2.27,2.27,0,0,0-.08-.59,1.57,1.57,0,0,0-.27-.51,3.56,3.56,0,0,0-.38-.39,2.31,2.31,0,0,0-.54-.33l-.61-.27a5,5,0,0,0-.73-.23l-.78-.2-.85-.2-.84-.2a14.59,14.59,0,0,1-2.24-.64,12.27,12.27,0,0,1-1.92-1,4.21,4.21,0,0,1-1.53-1.52,4.35,4.35,0,0,1-.54-2.2,4.22,4.22,0,0,1,2-3.69,9,9,0,0,1,5.09-1.32,10.3,10.3,0,0,1,5.22,1.28A4.47,4.47,0,0,1,537,13.29h-3.53a2.19,2.19,0,0,0-1.28-1.86,5.9,5.9,0,0,0-2.68-.58,5.45,5.45,0,0,0-2.54.53A1.76,1.76,0,0,0,526,13a1.69,1.69,0,0,0,.27,1,2.3,2.3,0,0,0,.61.66,4.65,4.65,0,0,0,1.1.5c.51.17.92.3,1.24.38l1.54.35a24.93,24.93,0,0,1,2.49.62,13,13,0,0,1,2,.9,4.12,4.12,0,0,1,1.65,1.51,4.36,4.36,0,0,1,.54,2.23A4.31,4.31,0,0,1,535.32,25,9.77,9.77,0,0,1,529.93,26.37Zm20.25-3.11a8.69,8.69,0,0,0,2.81-.57v3a6.89,6.89,0,0,1-3.36.69,6.3,6.3,0,0,1-5-2,7.15,7.15,0,0,1-1.78-4.94V11.23h-3.53V8.51h3.53V3.64h3.43V8.51h6.61v2.72h-6.61v7.93a4.41,4.41,0,0,0,1,2.94A3.57,3.57,0,0,0,550.18,23.26Zm7.26,2.67V8.51h3l.21,4.71h0a6.92,6.92,0,0,1,2.54-3.71,6.84,6.84,0,0,1,4-1.37v3.09a6,6,0,0,0-4.68,1.92A6.9,6.9,0,0,0,560.87,18v7.93Zm20.83.44a9.12,9.12,0,0,1-9-9.15A8.69,8.69,0,0,1,572,10.7a8.75,8.75,0,0,1,6.29-2.63,7.84,7.84,0,0,1,4.24,1.22,6.25,6.25,0,0,1,2.67,3.17h.07l.12-4h3.06V25.93h-3.06l-.12-4h-.07a6.38,6.38,0,0,1-2.7,3.19A7.8,7.8,0,0,1,578.27,26.37Zm-3.78-4.83A6.13,6.13,0,0,0,585,17.22a6.13,6.13,0,1,0-12.26,0A5.88,5.88,0,0,0,574.49,21.54Zm28,1.72a8.64,8.64,0,0,0,2.81-.57v3a6.88,6.88,0,0,1-3.35.69,6.3,6.3,0,0,1-5-2,7.11,7.11,0,0,1-1.79-4.94V11.23h-3.53V8.51h3.53V3.64h3.43V8.51h6.61v2.72h-6.61v7.93a4.36,4.36,0,0,0,1,2.94A3.53,3.53,0,0,0,602.49,23.26Zm15.4.22a7.64,7.64,0,0,0,3.23-.68A3.91,3.91,0,0,0,623.18,21h3.39a7.92,7.92,0,0,1-3.42,3.93,10.27,10.27,0,0,1-5.44,1.49,9.53,9.53,0,0,1-6.82-2.63,8.69,8.69,0,0,1-2.76-6.57,8.84,8.84,0,0,1,2.63-6.46,9.15,9.15,0,0,1,6.78-2.64A8.7,8.7,0,0,1,624.43,11,10.65,10.65,0,0,1,627,18.3H611.56a6,6,0,0,0,2.13,3.76A6.37,6.37,0,0,0,617.89,23.48ZM617.54,11a6,6,0,0,0-4,1.32,5.62,5.62,0,0,0-1.94,3.39h11.88a5.92,5.92,0,0,0-2-3.45A6,6,0,0,0,617.54,11ZM640,34.21a10.43,10.43,0,0,1-5.84-1.64A8.15,8.15,0,0,1,630.72,28h3.64a5.18,5.18,0,0,0,2.2,2.51,6.49,6.49,0,0,0,3.39.9,6.28,6.28,0,0,0,4.5-1.71,5.81,5.81,0,0,0,1.79-4.41V21.29l0-.11a6,6,0,0,1-2.67,3.28,8.05,8.05,0,0,1-4.31,1.22,8.62,8.62,0,0,1-6.16-2.5,8.34,8.34,0,0,1-2.63-6.29,8.3,8.3,0,0,1,2.68-6.26,8.72,8.72,0,0,1,6.21-2.56,8,8,0,0,1,4.27,1.2,6.23,6.23,0,0,1,2.68,3.19h.07l.1-4h3.06V24.89a8.82,8.82,0,0,1-2.73,6.79A9.7,9.7,0,0,1,640,34.21Zm.25-11.31a5.69,5.69,0,0,0,4.19-1.76,5.9,5.9,0,0,0,1.75-4.28,5.67,5.67,0,0,0-1.77-4.14A5.8,5.8,0,0,0,640.12,11a5.87,5.87,0,0,0-4.27,1.75,5.86,5.86,0,0,0,0,8.42A5.91,5.91,0,0,0,640.2,22.9ZM658.76,4.61a2.14,2.14,0,0,1-1.55.65,2.16,2.16,0,0,1-1.56-.65A2,2,0,0,1,655,3.07a2.05,2.05,0,0,1,.67-1.55,2.15,2.15,0,0,1,1.56-.64,2.13,2.13,0,0,1,1.55.64,2.11,2.11,0,0,1,.65,1.55A2.09,2.09,0,0,1,658.76,4.61Zm-3.27,21.32V8.51h3.43V25.93Zm26.31-6a7.71,7.71,0,0,1-3.08,4.58,9.3,9.3,0,0,1-5.67,1.84,9.53,9.53,0,0,1-6.79-2.69,8.8,8.8,0,0,1,0-12.93,9.52,9.52,0,0,1,6.79-2.68,9.25,9.25,0,0,1,5.69,1.82,7.65,7.65,0,0,1,3.06,4.56h-3.53a4.75,4.75,0,0,0-2-2.44,6.17,6.17,0,0,0-9.44,5.21,5.86,5.86,0,0,0,1.81,4.32,6,6,0,0,0,4.34,1.8,5.77,5.77,0,0,0,3.26-.94,5.26,5.26,0,0,0,2-2.45Zm12.83,13.91V8.51h3l.14,4h.07a6.18,6.18,0,0,1,2.68-3.19,8,8,0,0,1,4.24-1.2,8.65,8.65,0,0,1,6.26,2.63,8.71,8.71,0,0,1,2.69,6.52,8.82,8.82,0,0,1-2.66,6.52,8.5,8.5,0,0,1-6.14,2.63,7.53,7.53,0,0,1-4.21-1.25,6.26,6.26,0,0,1-2.6-3.15h-.07V33.86Zm5.23-12.32a5.85,5.85,0,0,0,4.31,1.8,6,6,0,0,0,4.34-1.8,5.83,5.83,0,0,0,1.82-4.32,6.14,6.14,0,1,0-10.47,4.32Zm26,4.83a9.12,9.12,0,0,1-9-9.15,8.69,8.69,0,0,1,2.71-6.52,8.75,8.75,0,0,1,6.29-2.63,7.84,7.84,0,0,1,4.24,1.22,6.22,6.22,0,0,1,2.66,3.17h.07l.13-4H736V25.93h-3.06l-.13-4h-.07a6.31,6.31,0,0,1-2.69,3.19A7.8,7.8,0,0,1,725.84,26.37Zm-3.78-4.83a6.13,6.13,0,0,0,10.47-4.32,6.14,6.14,0,1,0-10.47,4.32ZM742,25.93V8.51h3l.21,4.71h0a6.92,6.92,0,0,1,2.54-3.71,6.84,6.84,0,0,1,4.05-1.37v3.09a6,6,0,0,0-4.68,1.92A6.9,6.9,0,0,0,745.38,18v7.93Zm22.37-2.67a8.69,8.69,0,0,0,2.82-.57v3a6.92,6.92,0,0,1-3.36.69,6.3,6.3,0,0,1-4.95-2,7.1,7.1,0,0,1-1.78-4.94V11.23h-3.54V8.51h3.54V3.64h3.42V8.51h6.61v2.72h-6.61v7.93a4.41,4.41,0,0,0,1,2.94A3.55,3.55,0,0,0,764.33,23.26Zm7.26,2.67V8.51h3l.21,4h0a6.8,6.8,0,0,1,2.49-3.24,6.5,6.5,0,0,1,3.82-1.22,7.22,7.22,0,0,1,5.65,2.4,8.65,8.65,0,0,1,2.16,6v9.44h-3.41V16.82a5.8,5.8,0,0,0-1.5-4,4.86,4.86,0,0,0-3.79-1.66,4.77,4.77,0,0,0-3.71,1.73A6,6,0,0,0,775,17v8.93Zm31.34-2.45a7.72,7.72,0,0,0,3.24-.68A4,4,0,0,0,808.23,21h3.39a8,8,0,0,1-3.42,3.93,10.32,10.32,0,0,1-5.44,1.49,9.51,9.51,0,0,1-6.82-2.63,8.69,8.69,0,0,1-2.76-6.57,8.8,8.8,0,0,1,2.63-6.46,9.14,9.14,0,0,1,6.77-2.64A8.69,8.69,0,0,1,809.47,11,10.66,10.66,0,0,1,812,18.3H796.61a6,6,0,0,0,2.12,3.76A6.37,6.37,0,0,0,802.93,23.48ZM802.58,11a6,6,0,0,0-4,1.32,5.72,5.72,0,0,0-1.94,3.39h11.88a5.87,5.87,0,0,0-2-3.45A6,6,0,0,0,802.58,11Zm13.73,15V8.51h3l.22,4.71h0a7,7,0,0,1,2.54-3.71,6.84,6.84,0,0,1,4-1.37v3.09a6,6,0,0,0-4.67,1.92A6.86,6.86,0,0,0,819.74,18v7.93Z"/></g></g></svg>