<svg xmlns="http://www.w3.org/2000/svg" viewBox="0 0 321.26 94.21"><defs><style>.cls-1{fill:#0c4384;}</style></defs><title>Ресурс 20</title><g id="Слой_2" data-name="Слой 2"><g id="Слой_4" data-name="Слой 4"><path class="cls-1" d="M1.25,25.93V1.81h3.6V25.93Zm9.86,0V8.51h3l.21,4h0a6.74,6.74,0,0,1,2.49-3.24,6.48,6.48,0,0,1,3.82-1.22,7.22,7.22,0,0,1,5.65,2.4,8.64,8.64,0,0,1,2.15,6v9.44H25.08V16.82a5.79,5.79,0,0,0-1.49-4,4.88,4.88,0,0,0-3.8-1.66,4.8,4.8,0,0,0-3.71,1.73A6,6,0,0,0,14.54,17v8.93Zm31-2.67a8.69,8.69,0,0,0,2.82-.57v3a6.89,6.89,0,0,1-3.36.69,6.3,6.3,0,0,1-5-2,7.1,7.1,0,0,1-1.78-4.94V11.23H31.25V8.51h3.54V3.64h3.42V8.51h6.61v2.72H38.21v7.93a4.41,4.41,0,0,0,1,2.94A3.56,3.56,0,0,0,42.06,23.26Zm7.26,2.67V8.51h3l.21,4.71h0a7,7,0,0,1,2.54-3.71,6.89,6.89,0,0,1,4.06-1.37v3.09a6,6,0,0,0-4.68,1.92A6.9,6.9,0,0,0,52.75,18v7.93Zm28.16-2.25a9.83,9.83,0,0,1-13.51,0,8.63,8.63,0,0,1-2.82-6.47A8.6,8.6,0,0,1,64,10.75a9.85,9.85,0,0,1,13.51,0,8.61,8.61,0,0,1,2.8,6.46A8.65,8.65,0,0,1,77.48,23.68ZM66.39,21.54a6.13,6.13,0,0,0,10.46-4.32,6.14,6.14,0,1,0-10.46,4.32ZM99.09,0h3.43V25.93h-3l-.16-4h-.07a6.3,6.3,0,0,1-2.69,3.18,8,8,0,0,1-4.25,1.22,8.66,8.66,0,0,1-6.27-2.63,8.86,8.86,0,0,1-2.66-6.57,8.73,8.73,0,0,1,2.66-6.49,8.65,8.65,0,0,1,6.24-2.61,7.55,7.55,0,0,1,4.13,1.22A6.1,6.1,0,0,1,99,12.46h.07ZM88.61,21.54a6.14,6.14,0,0,0,10.48-4.32,5.94,5.94,0,0,0-1.79-4.33,6.14,6.14,0,0,0-8.69,0,6.12,6.12,0,0,0,0,8.65ZM125,8.51V25.93h-3l-.21-4h0a6.71,6.71,0,0,1-2.4,3.25,6.11,6.11,0,0,1-3.68,1.22A6.85,6.85,0,0,1,110.25,24a8.9,8.9,0,0,1-2.09-6V8.51h3.41v9.14a5.85,5.85,0,0,0,1.42,4,4.68,4.68,0,0,0,7.14-.07,6,6,0,0,0,1.49-4.13v-9ZM147.94,20a7.68,7.68,0,0,1-3.09,4.58,9.25,9.25,0,0,1-5.67,1.84,9.52,9.52,0,0,1-6.78-2.69,8.61,8.61,0,0,1-2.83-6.47,8.57,8.57,0,0,1,2.83-6.46,9.51,9.51,0,0,1,6.78-2.68,9.23,9.23,0,0,1,5.69,1.82,7.67,7.67,0,0,1,3.07,4.56H144.4a4.73,4.73,0,0,0-2-2.44,5.94,5.94,0,0,0-3.29-.95,5.87,5.87,0,0,0-4.35,1.82,6,6,0,0,0-1.8,4.34,6.16,6.16,0,0,0,6.15,6.12,5.73,5.73,0,0,0,3.25-.94,5.22,5.22,0,0,0,2-2.45Zm7.78-15.34a2.1,2.1,0,0,1-1.54.65,2.2,2.2,0,0,1-1.57-.65A2.06,2.06,0,0,1,152,3.07a2.08,2.08,0,0,1,.66-1.55,2.19,2.19,0,0,1,1.57-.64,2.09,2.09,0,0,1,1.54.64,2.08,2.08,0,0,1,.66,1.55A2.06,2.06,0,0,1,155.72,4.61Zm-3.26,21.32V8.51h3.42V25.93Zm9.38,0V8.51h3l.21,4h0a6.8,6.8,0,0,1,2.49-3.24,6.5,6.5,0,0,1,3.82-1.22,7.22,7.22,0,0,1,5.65,2.4,8.65,8.65,0,0,1,2.16,6v9.44h-3.41V16.82a5.8,5.8,0,0,0-1.5-4,4.86,4.86,0,0,0-3.79-1.66,4.77,4.77,0,0,0-3.71,1.73A6,6,0,0,0,165.27,17v8.93Zm31.71,8.28a10.4,10.4,0,0,1-5.83-1.64,8.12,8.12,0,0,1-3.4-4.62H188a5.18,5.18,0,0,0,2.2,2.51,6.51,6.51,0,0,0,3.39.9,6.24,6.24,0,0,0,4.5-1.71,5.78,5.78,0,0,0,1.8-4.41V21.29l0-.11a6,6,0,0,1-2.66,3.28,8.11,8.11,0,0,1-4.32,1.22,8.64,8.64,0,0,1-6.16-2.5A8.34,8.34,0,0,1,184,16.89a8.33,8.33,0,0,1,2.68-6.26,8.72,8.72,0,0,1,6.22-2.56,8,8,0,0,1,4.26,1.2,6.18,6.18,0,0,1,2.68,3.19H200l.11-4h3.06V24.89a8.82,8.82,0,0,1-2.74,6.79A9.7,9.7,0,0,1,193.55,34.21Zm.25-11.31A5.66,5.66,0,0,0,198,21.14a5.86,5.86,0,0,0,1.75-4.28A5.67,5.67,0,0,0,198,12.72,5.77,5.77,0,0,0,193.72,11a5.83,5.83,0,0,0-4.26,1.75,5.85,5.85,0,0,0,0,8.42A5.91,5.91,0,0,0,193.8,22.9ZM241.73,13c.05.48.08.89.09,1.22a11.76,11.76,0,0,1-3.76,8.63,13.21,13.21,0,0,1-18.16-.13,11.88,11.88,0,0,1-3.76-8.82A11.9,11.9,0,0,1,219.9,5,12.58,12.58,0,0,1,229,1.37a13,13,0,0,1,7,2,12.72,12.72,0,0,1,4.81,5.25L237,8.86a9.52,9.52,0,0,0-8-4.32,8.87,8.87,0,0,0-6.53,2.72,9,9,0,0,0-2.72,6.57,8.88,8.88,0,0,0,2.76,6.57,9.12,9.12,0,0,0,6.65,2.72,9.31,9.31,0,0,0,6-2.07,8.87,8.87,0,0,0,3.19-5.23H228.23V13Zm12.78,10.51a7.72,7.72,0,0,0,3.24-.68A3.88,3.88,0,0,0,259.8,21h3.4a8,8,0,0,1-3.42,3.93,10.32,10.32,0,0,1-5.44,1.49,9.51,9.51,0,0,1-6.82-2.63,8.69,8.69,0,0,1-2.76-6.57,8.8,8.8,0,0,1,2.63-6.46,9.14,9.14,0,0,1,6.77-2.64A8.7,8.7,0,0,1,261.05,11a10.66,10.66,0,0,1,2.57,7.31H248.19a6,6,0,0,0,2.12,3.76A6.37,6.37,0,0,0,254.51,23.48ZM254.16,11a6,6,0,0,0-4,1.32,5.72,5.72,0,0,0-1.94,3.39H260.1a5.87,5.87,0,0,0-2-3.45A6,6,0,0,0,254.16,11ZM276,23.26a8.69,8.69,0,0,0,2.82-.57v3a6.89,6.89,0,0,1-3.36.69,6.3,6.3,0,0,1-4.95-2,7.1,7.1,0,0,1-1.78-4.94V11.23h-3.54V8.51h3.54V3.64h3.42V8.51h6.61v2.72h-6.61v7.93a4.41,4.41,0,0,0,1,2.94A3.56,3.56,0,0,0,276,23.26Zm15.4.22a7.72,7.72,0,0,0,3.24-.68A3.92,3.92,0,0,0,296.68,21h3.4a8,8,0,0,1-3.42,3.93,10.32,10.32,0,0,1-5.44,1.49,9.51,9.51,0,0,1-6.82-2.63,8.69,8.69,0,0,1-2.76-6.57,8.83,8.83,0,0,1,2.62-6.46A9.18,9.18,0,0,1,291,8.07,8.7,8.7,0,0,1,297.93,11a10.66,10.66,0,0,1,2.57,7.31H285.06a6,6,0,0,0,2.13,3.76A6.37,6.37,0,0,0,291.39,23.48ZM291,11a6,6,0,0,0-4,1.32,5.67,5.67,0,0,0-1.94,3.39H297a5.87,5.87,0,0,0-2-3.45A6,6,0,0,0,291,11Zm30.22,15h-3.92L312,19.48l-5.42,6.45h-3.92L310,17.07l-7.14-8.56h3.94L312,14.66l5.13-6.15h3.94l-7.14,8.56ZM10.14,45.66v2.92H0V45.66ZM31,56.37a9.12,9.12,0,0,1-9-9.15,9.12,9.12,0,0,1,9-9.15,7.84,7.84,0,0,1,4.24,1.22,6.25,6.25,0,0,1,2.67,3.17H38l.12-4h3.06V55.93H38.11L38,52h-.07a6.38,6.38,0,0,1-2.7,3.19A7.8,7.8,0,0,1,31,56.37Zm-3.78-4.83a6.14,6.14,0,0,0,8.69,0,6.13,6.13,0,0,0-4.34-10.45,6.12,6.12,0,0,0-4.35,10.45Zm28.49,4.39V31.81h3.61V42.74h0l11.3-10.93h4.43L63,43.59,75.16,55.93H70.7L59.36,44.48h0V55.93ZM94,38.51V55.93H91l-.21-4h0a6.71,6.71,0,0,1-2.4,3.25,6.16,6.16,0,0,1-3.68,1.22A6.84,6.84,0,0,1,79.21,54a8.85,8.85,0,0,1-2.09-6V38.51h3.41v9.14a5.85,5.85,0,0,0,1.42,4,4.68,4.68,0,0,0,7.14-.07,6,6,0,0,0,1.49-4.13v-9Zm29.78,9a12.26,12.26,0,0,1-4.58,6.34,13,13,0,0,1-16.73-1.19,12.24,12.24,0,0,1,0-17.65,13,13,0,0,1,16.73-1.18,12.26,12.26,0,0,1,4.58,6.34H120a9.07,9.07,0,0,0-3.36-4,9.23,9.23,0,0,0-14.36,7.7,9.25,9.25,0,0,0,14.37,7.7,9.27,9.27,0,0,0,3.39-4Zm19.63,6.14a9.38,9.38,0,0,1-6.75,2.69,9.48,9.48,0,0,1-6.77-2.69,8.84,8.84,0,0,1,0-12.93,9.47,9.47,0,0,1,6.77-2.68,9.37,9.37,0,0,1,6.75,2.68,8.86,8.86,0,0,1,0,12.93Zm-11.09-2.14a6.08,6.08,0,1,0-1.81-4.32A5.86,5.86,0,0,0,132.31,51.54ZM154,34.61a2.12,2.12,0,0,1-1.55.65,2.18,2.18,0,0,1-1.56-.65,2,2,0,0,1-.67-1.54,2.05,2.05,0,0,1,.67-1.55,2.17,2.17,0,0,1,1.56-.64,2.2,2.2,0,0,1,2.2,2.19A2.09,2.09,0,0,1,154,34.61Zm-3.27,21.32V38.51h3.43V55.93Zm9.39,0V38.51h3l.21,4h0a6.78,6.78,0,0,1,2.48-3.24,6.53,6.53,0,0,1,3.83-1.22,7.24,7.24,0,0,1,5.65,2.4,8.69,8.69,0,0,1,2.15,6v9.44h-3.41V46.82a5.84,5.84,0,0,0-1.49-4,4.88,4.88,0,0,0-3.8-1.66,4.79,4.79,0,0,0-3.71,1.73A6,6,0,0,0,163.56,47v8.93ZM8.21,86.37A11,11,0,0,1,2.56,85a4.7,4.7,0,0,1-2.45-4.1H3.78c.12,1.81,1.55,2.71,4.31,2.71q3.89,0,3.9-2.27a2.27,2.27,0,0,0-.08-.59,1.4,1.4,0,0,0-.27-.51,3.56,3.56,0,0,0-.38-.39,2.11,2.11,0,0,0-.54-.33l-.6-.27A5.62,5.62,0,0,0,9.38,79l-.78-.2-.85-.2-.84-.2a14.12,14.12,0,0,1-2.23-.64,11.93,11.93,0,0,1-1.93-1,4.21,4.21,0,0,1-1.53-1.52,4.34,4.34,0,0,1-.53-2.2,4.2,4.2,0,0,1,2-3.69,8.91,8.91,0,0,1,5.08-1.32A10.37,10.37,0,0,1,13,69.35a4.48,4.48,0,0,1,2.33,3.94H11.76a2.2,2.2,0,0,0-1.27-1.86,6,6,0,0,0-2.69-.58,5.45,5.45,0,0,0-2.54.53,1.76,1.76,0,0,0-1,1.66,1.69,1.69,0,0,0,.27,1,2.44,2.44,0,0,0,.61.66,4.65,4.65,0,0,0,1.1.5c.51.17.92.3,1.24.38L9,75.89c1,.21,1.86.42,2.5.62a13.31,13.31,0,0,1,2,.9,4.12,4.12,0,0,1,1.65,1.51A4.67,4.67,0,0,1,13.61,85,9.83,9.83,0,0,1,8.21,86.37Zm20.25-3.11a8.64,8.64,0,0,0,2.81-.57v3a6.89,6.89,0,0,1-3.36.69,6.28,6.28,0,0,1-4.94-2,7.11,7.11,0,0,1-1.79-4.94V71.23H17.65V68.51h3.53V63.64h3.43v4.87h6.61v2.72H24.61v7.93a4.36,4.36,0,0,0,1,2.94A3.53,3.53,0,0,0,28.46,83.26Zm7.26,2.67V68.51h3L39,73.22h0a7,7,0,0,1,2.54-3.71,6.84,6.84,0,0,1,4-1.37v3.09a6,6,0,0,0-4.68,1.92A6.9,6.9,0,0,0,39.15,78v7.93Zm20.83.44a8.8,8.8,0,0,1-6.29-2.63,9.15,9.15,0,0,1,6.29-15.67,7.84,7.84,0,0,1,4.24,1.22,6.25,6.25,0,0,1,2.67,3.17h.07l.12-3.95h3.06V85.93H63.65l-.12-4h-.07a6.38,6.38,0,0,1-2.7,3.19A7.8,7.8,0,0,1,56.55,86.37Zm-3.78-4.83A6.12,6.12,0,1,0,51,77.22,5.91,5.91,0,0,0,52.77,81.54Zm28,1.72a8.59,8.59,0,0,0,2.81-.57v3a6.88,6.88,0,0,1-3.35.69,6.3,6.3,0,0,1-5-2,7.11,7.11,0,0,1-1.79-4.94V71.23H70V68.51h3.53V63.64h3.43v4.87h6.61v2.72H76.92v7.93a4.36,4.36,0,0,0,1,2.94A3.53,3.53,0,0,0,80.77,83.26Zm15.4.22a7.64,7.64,0,0,0,3.23-.68A3.91,3.91,0,0,0,101.46,81h3.39a7.92,7.92,0,0,1-3.42,3.93A10.27,10.27,0,0,1,96,86.37a9.53,9.53,0,0,1-6.82-2.63,8.69,8.69,0,0,1-2.76-6.57A8.84,8.84,0,0,1,89,70.71a9.15,9.15,0,0,1,6.78-2.64A8.7,8.7,0,0,1,102.71,71a10.66,10.66,0,0,1,2.57,7.31H89.84A6,6,0,0,0,92,82.06,6.37,6.37,0,0,0,96.17,83.48ZM95.82,71a6,6,0,0,0-4,1.32,5.62,5.62,0,0,0-1.94,3.39h11.88a5.92,5.92,0,0,0-2-3.45A6,6,0,0,0,95.82,71Zm22.41,23.26a10.43,10.43,0,0,1-5.84-1.64A8.15,8.15,0,0,1,109,88h3.64a5.18,5.18,0,0,0,2.2,2.51,6.51,6.51,0,0,0,3.39.9,6.24,6.24,0,0,0,4.5-1.71,5.77,5.77,0,0,0,1.79-4.41V81.29l0-.11a6.06,6.06,0,0,1-2.66,3.28,8.11,8.11,0,0,1-4.32,1.22,8.62,8.62,0,0,1-6.16-2.5,8.74,8.74,0,0,1,.05-12.55,8.72,8.72,0,0,1,6.22-2.56,8,8,0,0,1,4.26,1.2,6.23,6.23,0,0,1,2.68,3.19h.07l.1-3.95h3.06V84.89a8.82,8.82,0,0,1-2.73,6.79A9.7,9.7,0,0,1,118.23,94.21Zm.25-11.31a5.68,5.68,0,0,0,4.19-1.76,5.9,5.9,0,0,0,1.75-4.28,5.67,5.67,0,0,0-1.77-4.14A5.79,5.79,0,0,0,118.4,71a5.87,5.87,0,0,0-4.27,1.75,5.86,5.86,0,0,0,0,8.42A5.91,5.91,0,0,0,118.48,82.9ZM137,64.61a2.12,2.12,0,0,1-1.55.65,2.16,2.16,0,0,1-1.56-.65,2,2,0,0,1-.67-1.54,2.05,2.05,0,0,1,.67-1.55,2.15,2.15,0,0,1,1.56-.64,2.2,2.2,0,0,1,2.2,2.19A2.09,2.09,0,0,1,137,64.61Zm-3.27,21.32V68.51h3.43V85.93Zm26.31-6A7.67,7.67,0,0,1,157,84.53a9.3,9.3,0,0,1-5.67,1.84,9.53,9.53,0,0,1-6.79-2.69,8.8,8.8,0,0,1,0-12.93,9.52,9.52,0,0,1,6.79-2.68A9.25,9.25,0,0,1,157,69.89a7.65,7.65,0,0,1,3.06,4.56h-3.53a4.75,4.75,0,0,0-2-2.44,6.14,6.14,0,1,0-3.29,11.33,5.77,5.77,0,0,0,3.26-.94,5.22,5.22,0,0,0,2-2.45Zm12.84,13.91V68.51h3l.14,3.95h.07a6.18,6.18,0,0,1,2.68-3.19,8,8,0,0,1,4.25-1.2,8.63,8.63,0,0,1,6.25,2.63,9.28,9.28,0,0,1,0,13,8.5,8.5,0,0,1-6.14,2.63A7.53,7.53,0,0,1,179,85.12a6.31,6.31,0,0,1-2.6-3.15h-.07V93.86Zm5.22-12.32a5.85,5.85,0,0,0,4.31,1.8,6,6,0,0,0,4.34-1.8,5.83,5.83,0,0,0,1.82-4.32,6.14,6.14,0,1,0-10.47,4.32Zm26,4.83a9.12,9.12,0,0,1-9-9.15,9.12,9.12,0,0,1,9-9.15,7.84,7.84,0,0,1,4.24,1.22A6.29,6.29,0,0,1,211,72.46h.07l.12-3.95h3.06V85.93h-3.06l-.12-4H211a6.38,6.38,0,0,1-2.7,3.19A7.8,7.8,0,0,1,204.12,86.37Zm-3.78-4.83a6.1,6.1,0,1,0-1.8-4.32A5.89,5.89,0,0,0,200.34,81.54Zm19.9,4.39V68.51h3l.21,4.71h0a6.92,6.92,0,0,1,2.54-3.71,6.84,6.84,0,0,1,4-1.37v3.09a6,6,0,0,0-4.68,1.92A6.9,6.9,0,0,0,223.66,78v7.93Zm22.37-2.67a8.69,8.69,0,0,0,2.82-.57v3a6.89,6.89,0,0,1-3.36.69,6.3,6.3,0,0,1-4.95-2,7.1,7.1,0,0,1-1.78-4.94V71.23H231.8V68.51h3.54V63.64h3.42v4.87h6.61v2.72h-6.61v7.93a4.41,4.41,0,0,0,1,2.94A3.56,3.56,0,0,0,242.61,83.26Zm7.26,2.67V68.51h3l.21,4h0a6.86,6.86,0,0,1,2.49-3.24,6.5,6.5,0,0,1,3.82-1.22,7.21,7.21,0,0,1,5.65,2.4,8.65,8.65,0,0,1,2.16,6v9.44h-3.41V76.82a5.8,5.8,0,0,0-1.5-4,4.86,4.86,0,0,0-3.79-1.66,4.79,4.79,0,0,0-3.71,1.73A6,6,0,0,0,253.3,77v8.93Zm31.34-2.45a7.72,7.72,0,0,0,3.24-.68A4,4,0,0,0,286.51,81h3.39a8,8,0,0,1-3.42,3.93A10.32,10.32,0,0,1,281,86.37a9.51,9.51,0,0,1-6.82-2.63,8.69,8.69,0,0,1-2.76-6.57,8.8,8.8,0,0,1,2.63-6.46,9.14,9.14,0,0,1,6.77-2.64A8.69,8.69,0,0,1,287.75,71a10.66,10.66,0,0,1,2.57,7.31H274.89A6.07,6.07,0,0,0,277,82.06,6.37,6.37,0,0,0,281.21,83.48ZM280.86,71a6,6,0,0,0-4,1.32,5.72,5.72,0,0,0-1.94,3.39H286.8a5.87,5.87,0,0,0-2-3.45A6,6,0,0,0,280.86,71Zm13.73,15V68.51h3l.21,4.71h0a7,7,0,0,1,2.54-3.71,6.84,6.84,0,0,1,4.05-1.37v3.09a6,6,0,0,0-4.67,1.92A6.9,6.9,0,0,0,298,78v7.93Z"/></g></g></svg>