<svg xmlns="http://www.w3.org/2000/svg" viewBox="0 0 489.74 64.98"><defs><style>.cls-1{fill:#0c4384;}</style></defs><title>Ресурс 13</title><g id="Слой_2" data-name="Слой 2"><g id="Слой_4" data-name="Слой 4"><path class="cls-1" d="M.28,25.05V.93h3.6V11.87h0L15.22.93h4.43L7.56,12.71,19.72,25.05H15.26L3.92,13.61h0V25.05ZM38.55,7.63V25.05h-3l-.22-4h0a6.71,6.71,0,0,1-2.4,3.25,6.16,6.16,0,0,1-3.68,1.22,6.84,6.84,0,0,1-5.43-2.42,8.85,8.85,0,0,1-2.1-6V7.63h3.41v9.14a5.84,5.84,0,0,0,1.43,4,4.67,4.67,0,0,0,7.13-.07,6,6,0,0,0,1.5-4.13v-9Zm29.78,9A12.26,12.26,0,0,1,63.75,23,13,13,0,0,1,47,21.81,11.87,11.87,0,0,1,43.26,13,11.88,11.88,0,0,1,47,4.17,13,13,0,0,1,63.75,3a12.26,12.26,0,0,1,4.58,6.34H64.58a9.07,9.07,0,0,0-3.36-4A9.23,9.23,0,0,0,46.86,13a8.91,8.91,0,0,0,2.7,6.55,9.25,9.25,0,0,0,11.66,1.15,9.23,9.23,0,0,0,3.4-4ZM88,22.8a9.84,9.84,0,0,1-13.52,0,8.64,8.64,0,0,1-2.81-6.47,8.62,8.62,0,0,1,2.81-6.46A9.87,9.87,0,0,1,88,9.87a8.65,8.65,0,0,1,2.8,6.46A8.67,8.67,0,0,1,88,22.8ZM76.87,20.66a6.13,6.13,0,0,0,10.46-4.32A5.93,5.93,0,0,0,85.53,12a6.12,6.12,0,0,0-8.67,0,5.93,5.93,0,0,0-1.8,4.33A5.86,5.86,0,0,0,76.87,20.66ZM98.58,3.74A2.17,2.17,0,0,1,97,4.38a2.19,2.19,0,0,1-1.56-.64,2.07,2.07,0,0,1-.67-1.55A2.05,2.05,0,0,1,95.47.64,2.15,2.15,0,0,1,97,0a2.13,2.13,0,0,1,1.55.64,2.11,2.11,0,0,1,.65,1.55A2.12,2.12,0,0,1,98.58,3.74ZM95.31,25.05V7.63h3.43V25.05Zm9.39,0V7.63h3l.21,4h0a6.91,6.91,0,0,1,2.49-3.24,6.53,6.53,0,0,1,3.83-1.22,7.24,7.24,0,0,1,5.65,2.4,8.71,8.71,0,0,1,2.15,6v9.44h-3.41V15.94a5.84,5.84,0,0,0-1.49-4,4.89,4.89,0,0,0-3.8-1.66A4.82,4.82,0,0,0,109.67,12a6,6,0,0,0-1.55,4.14v8.93Zm40.51-10.27V17.7H135.07V14.78Zm37.64-2.69c0,.48.07.89.09,1.22a11.8,11.8,0,0,1-3.77,8.63A13.2,13.2,0,0,1,161,21.81,11.88,11.88,0,0,1,157.25,13,11.89,11.89,0,0,1,161,4.17,12.51,12.51,0,0,1,170.1.49a13,13,0,0,1,7,2A12.72,12.72,0,0,1,182,7.73L178.14,8a9.5,9.5,0,0,0-3.42-3.15,9.39,9.39,0,0,0-4.62-1.17,8.87,8.87,0,0,0-6.53,2.72A9,9,0,0,0,160.86,13a8.86,8.86,0,0,0,2.75,6.56,9.12,9.12,0,0,0,6.65,2.72,9.31,9.31,0,0,0,6.05-2.07,8.88,8.88,0,0,0,3.2-5.23H169.35V12.09Zm12.78,10.52a7.68,7.68,0,0,0,3.23-.69,4,4,0,0,0,2.06-1.85h3.39A7.92,7.92,0,0,1,200.89,24a10.3,10.3,0,0,1-5.44,1.49,9.51,9.51,0,0,1-6.82-2.63,8.69,8.69,0,0,1-2.76-6.57,8.84,8.84,0,0,1,2.63-6.46,9.15,9.15,0,0,1,6.78-2.64,8.7,8.7,0,0,1,6.89,2.92,10.65,10.65,0,0,1,2.56,7.31H189.3a6,6,0,0,0,2.13,3.76A6.34,6.34,0,0,0,195.63,22.61Zm-.35-12.54a6,6,0,0,0-4,1.32,5.68,5.68,0,0,0-1.95,3.39h11.89a5.92,5.92,0,0,0-2-3.45A6,6,0,0,0,195.28,10.07Zm21.83,12.31a8.69,8.69,0,0,0,2.81-.57v3a6.89,6.89,0,0,1-3.36.69,6.3,6.3,0,0,1-4.95-2,7.1,7.1,0,0,1-1.78-4.94V10.35H206.3V7.63h3.53V2.76h3.43V7.63h6.61v2.72h-6.61v7.93a4.45,4.45,0,0,0,1,2.95A3.59,3.59,0,0,0,217.11,22.38Zm15.4.23a7.71,7.71,0,0,0,3.23-.69,4,4,0,0,0,2.06-1.85h3.39A8,8,0,0,1,237.77,24a10.3,10.3,0,0,1-5.44,1.49,9.51,9.51,0,0,1-6.82-2.63,8.69,8.69,0,0,1-2.76-6.57,8.84,8.84,0,0,1,2.63-6.46,9.14,9.14,0,0,1,6.77-2.64A8.69,8.69,0,0,1,239,10.11a10.61,10.61,0,0,1,2.57,7.31H226.18a6.07,6.07,0,0,0,2.12,3.76A6.39,6.39,0,0,0,232.51,22.61Zm-.36-12.54a6,6,0,0,0-4,1.32,5.68,5.68,0,0,0-1.95,3.39H238.1a5.88,5.88,0,0,0-2-3.45A6,6,0,0,0,232.15,10.07Zm30.22,15h-3.92l-5.36-6.45-5.41,6.45h-3.92l7.38-8.86L244,7.63h3.94l5.15,6.15,5.13-6.15h3.94L255,16.19Zm19.41.44a10.83,10.83,0,0,1-5.65-1.39,4.71,4.71,0,0,1-2.46-4.1h3.68c.11,1.81,1.55,2.71,4.3,2.71,2.59,0,3.89-.75,3.91-2.27a2.27,2.27,0,0,0-.08-.59,1.79,1.79,0,0,0-.27-.51,3.56,3.56,0,0,0-.38-.39,2.71,2.71,0,0,0-.54-.33l-.61-.27a7.35,7.35,0,0,0-.73-.23l-.78-.2-.85-.2-.84-.19a15.73,15.73,0,0,1-2.24-.65,13.11,13.11,0,0,1-1.92-.95,4.12,4.12,0,0,1-2.07-3.73,4.22,4.22,0,0,1,2-3.69,9,9,0,0,1,5.09-1.32,10.33,10.33,0,0,1,5.22,1.28,4.47,4.47,0,0,1,2.34,3.94h-3.53a2.17,2.17,0,0,0-1.28-1.85,5.78,5.78,0,0,0-2.68-.59,5.58,5.58,0,0,0-2.54.53,1.77,1.77,0,0,0-1,1.66,1.7,1.7,0,0,0,.28,1,2.3,2.3,0,0,0,.61.66,4.28,4.28,0,0,0,1.1.5c.5.17.92.3,1.24.38l1.54.35a22.14,22.14,0,0,1,2.49.63,12,12,0,0,1,2.05.89A4.18,4.18,0,0,1,288.76,18a4.36,4.36,0,0,1,.54,2.23,4.31,4.31,0,0,1-2.13,3.86A9.77,9.77,0,0,1,281.78,25.49ZM302,22.38a8.69,8.69,0,0,0,2.81-.57v3a6.89,6.89,0,0,1-3.36.69,6.3,6.3,0,0,1-5-2,7.1,7.1,0,0,1-1.78-4.94V10.35h-3.53V7.63h3.53V2.76h3.43V7.63h6.61v2.72h-6.61v7.93a4.45,4.45,0,0,0,1,2.95A3.59,3.59,0,0,0,302,22.38Zm7.26,2.67V7.63h3l.21,4.71h0a6.92,6.92,0,0,1,2.54-3.71,6.84,6.84,0,0,1,4-1.37v3.09a6,6,0,0,0-4.68,1.92,6.9,6.9,0,0,0-1.76,4.85v7.93Zm20.83.44a9.12,9.12,0,0,1-9-9.15,8.69,8.69,0,0,1,2.71-6.52,8.79,8.79,0,0,1,6.29-2.63,7.84,7.84,0,0,1,4.24,1.22A6.33,6.33,0,0,1,337,11.58h.07l.12-3.95h3.06V25.05h-3.06l-.12-4H337a6.38,6.38,0,0,1-2.7,3.19A7.8,7.8,0,0,1,330.12,25.49Zm-3.78-4.83a6.13,6.13,0,0,0,10.47-4.32A6,6,0,0,0,335,12a6.14,6.14,0,0,0-8.69,0,6.1,6.1,0,0,0,0,8.65Zm28,1.72a8.64,8.64,0,0,0,2.81-.57v3a6.89,6.89,0,0,1-3.36.69,6.29,6.29,0,0,1-4.94-2,7.11,7.11,0,0,1-1.79-4.94V10.35h-3.53V7.63h3.53V2.76h3.43V7.63h6.61v2.72h-6.61v7.93a4.41,4.41,0,0,0,1,2.95A3.56,3.56,0,0,0,354.34,22.38Zm15.4.23a7.68,7.68,0,0,0,3.23-.69A3.91,3.91,0,0,0,375,20.07h3.39A7.92,7.92,0,0,1,375,24a10.3,10.3,0,0,1-5.44,1.49,9.53,9.53,0,0,1-6.82-2.63A8.69,8.69,0,0,1,360,16.29a8.84,8.84,0,0,1,2.63-6.46,9.15,9.15,0,0,1,6.78-2.64,8.7,8.7,0,0,1,6.89,2.92,10.65,10.65,0,0,1,2.56,7.31H363.41a6,6,0,0,0,2.13,3.76A6.38,6.38,0,0,0,369.74,22.61Zm-.35-12.54a6,6,0,0,0-4,1.32,5.62,5.62,0,0,0-1.94,3.39h11.88a5.92,5.92,0,0,0-2-3.45A6,6,0,0,0,369.39,10.07ZM391.8,33.33A10.43,10.43,0,0,1,386,31.69a8.15,8.15,0,0,1-3.39-4.62h3.64a5.18,5.18,0,0,0,2.2,2.51,6.46,6.46,0,0,0,3.39.9,6.31,6.31,0,0,0,4.5-1.7,5.85,5.85,0,0,0,1.79-4.42V20.41l0-.11a6,6,0,0,1-2.67,3.28,8,8,0,0,1-4.31,1.22,8.62,8.62,0,0,1-6.16-2.5A8.34,8.34,0,0,1,382.29,16,8.3,8.3,0,0,1,385,9.75a8.72,8.72,0,0,1,6.21-2.56,8,8,0,0,1,4.27,1.2,6.23,6.23,0,0,1,2.68,3.19h.07l.1-3.95h3.06V24a8.82,8.82,0,0,1-2.73,6.79A9.7,9.7,0,0,1,391.8,33.33ZM392,22a5.71,5.71,0,0,0,4.2-1.77A5.9,5.9,0,0,0,398,16a5.67,5.67,0,0,0-1.77-4.14A5.8,5.8,0,0,0,392,10.07a5.91,5.91,0,0,0-4.27,1.75,5.86,5.86,0,0,0,0,8.42A5.92,5.92,0,0,0,392,22ZM410.61,3.74a2.17,2.17,0,0,1-1.55.64,2.19,2.19,0,0,1-1.56-.64,2.07,2.07,0,0,1-.67-1.55A2.05,2.05,0,0,1,407.5.64,2.15,2.15,0,0,1,409.06,0a2.13,2.13,0,0,1,1.55.64,2.11,2.11,0,0,1,.65,1.55A2.12,2.12,0,0,1,410.61,3.74Zm-3.27,21.31V7.63h3.43V25.05Zm26.31-6a7.71,7.71,0,0,1-3.08,4.58,9.23,9.23,0,0,1-5.67,1.84,9.53,9.53,0,0,1-6.79-2.69,8.8,8.8,0,0,1,0-12.93,9.52,9.52,0,0,1,6.79-2.68A9.29,9.29,0,0,1,430.58,9a7.62,7.62,0,0,1,3.07,4.56h-3.53a4.72,4.72,0,0,0-2-2.43,6.11,6.11,0,0,0-7.64.86,6,6,0,0,0-1.8,4.34,5.86,5.86,0,0,0,1.81,4.32,6,6,0,0,0,4.34,1.8,5.77,5.77,0,0,0,3.26-.94,5.26,5.26,0,0,0,2-2.45ZM0,65V39.63H3l.14,3.95h.07a6.2,6.2,0,0,1,2.69-3.19,8,8,0,0,1,4.24-1.2,8.7,8.7,0,0,1,6.26,2.63,9.27,9.27,0,0,1,0,13,8.49,8.49,0,0,1-6.14,2.63,7.56,7.56,0,0,1-4.21-1.25A6.29,6.29,0,0,1,3.5,53.09H3.43V65ZM5.22,52.66a5.88,5.88,0,0,0,4.32,1.8,6,6,0,0,0,4.34-1.8,6.07,6.07,0,0,0,0-8.65,6,6,0,0,0-4.36-1.8A5.89,5.89,0,0,0,5.23,44a6.11,6.11,0,0,0,0,8.65Zm26,4.83a9.13,9.13,0,0,1-9-9.15,9.13,9.13,0,0,1,9-9.15,7.87,7.87,0,0,1,4.25,1.22,6.31,6.31,0,0,1,2.66,3.17h.07l.12-3.95h3.06V57.05H38.3l-.12-4h-.07a6.29,6.29,0,0,1-2.7,3.19A7.78,7.78,0,0,1,31.2,57.49Zm-3.78-4.83a6.12,6.12,0,1,0-1.79-4.32A5.93,5.93,0,0,0,27.42,52.66Zm19.9,4.39V39.63h3l.21,4.71h0a7,7,0,0,1,2.54-3.71,6.84,6.84,0,0,1,4-1.37v3.09a6,6,0,0,0-4.67,1.92,6.86,6.86,0,0,0-1.76,4.85v7.93ZM69.7,54.38a8.69,8.69,0,0,0,2.81-.57v3a6.89,6.89,0,0,1-3.36.69,6.3,6.3,0,0,1-5-2,7.1,7.1,0,0,1-1.78-4.94V42.35H58.89V39.63h3.53V34.76h3.43v4.87h6.61v2.72H65.85v7.93a4.45,4.45,0,0,0,1,2.95A3.59,3.59,0,0,0,69.7,54.38ZM77,57.05V39.63h3l.21,4h0a6.82,6.82,0,0,1,2.48-3.24,6.53,6.53,0,0,1,3.83-1.22,7.24,7.24,0,0,1,5.65,2.4,8.71,8.71,0,0,1,2.15,6v9.44H90.93V47.94a5.84,5.84,0,0,0-1.49-4,4.88,4.88,0,0,0-3.8-1.66A4.82,4.82,0,0,0,81.93,44a6,6,0,0,0-1.55,4.14v8.93Zm31.34-2.44a7.65,7.65,0,0,0,3.23-.69,3.91,3.91,0,0,0,2.06-1.85H117A7.92,7.92,0,0,1,113.56,56a10.27,10.27,0,0,1-5.44,1.49,9.53,9.53,0,0,1-6.82-2.63,8.69,8.69,0,0,1-2.76-6.57,8.84,8.84,0,0,1,2.63-6.46A9.15,9.15,0,0,1,108,39.19a8.7,8.7,0,0,1,6.89,2.92,10.65,10.65,0,0,1,2.56,7.31H102a6,6,0,0,0,2.13,3.76A6.38,6.38,0,0,0,108.3,54.61ZM108,42.07a6,6,0,0,0-4,1.32A5.62,5.62,0,0,0,102,46.78h11.88a5.92,5.92,0,0,0-2-3.45A6,6,0,0,0,108,42.07Zm13.73,15V39.63h3l.21,4.71h0a6.92,6.92,0,0,1,2.54-3.71,6.84,6.84,0,0,1,4-1.37v3.09a6,6,0,0,0-4.68,1.92,6.9,6.9,0,0,0-1.76,4.85v7.93Zm20.79.44a10.86,10.86,0,0,1-5.65-1.39,4.7,4.7,0,0,1-2.45-4.1H138c.12,1.81,1.55,2.71,4.31,2.71,2.59,0,3.89-.75,3.9-2.27a2.27,2.27,0,0,0-.08-.59,1.4,1.4,0,0,0-.27-.51,3.56,3.56,0,0,0-.38-.39,2.44,2.44,0,0,0-.54-.33l-.6-.27a7.71,7.71,0,0,0-.74-.23l-.77-.2-.86-.2-.84-.19a15.19,15.19,0,0,1-2.23-.65,13.2,13.2,0,0,1-1.93-1,4.31,4.31,0,0,1-1.53-1.53,4.42,4.42,0,0,1-.53-2.2,4.2,4.2,0,0,1,2-3.69A8.92,8.92,0,0,1,142,39.19a10.36,10.36,0,0,1,5.22,1.28,4.46,4.46,0,0,1,2.33,3.94H146a2.16,2.16,0,0,0-1.27-1.85,5.81,5.81,0,0,0-2.68-.59,5.52,5.52,0,0,0-2.54.53,1.75,1.75,0,0,0-1,1.66,1.69,1.69,0,0,0,.27,1,2.32,2.32,0,0,0,.62.66,4,4,0,0,0,1.09.5c.51.17.92.3,1.24.38l1.54.35a23,23,0,0,1,2.5.63,12.74,12.74,0,0,1,2.05.89A4.09,4.09,0,0,1,149.45,50a4.36,4.36,0,0,1,.54,2.23,4.3,4.3,0,0,1-2.12,3.86A9.83,9.83,0,0,1,142.47,57.49Zm12.15-.44V31.12H158V43.65h.08a6.44,6.44,0,0,1,2.37-3.24,6.2,6.2,0,0,1,3.71-1.22,7.24,7.24,0,0,1,5.65,2.4,8.71,8.71,0,0,1,2.15,6v9.44h-3.41V47.94a5.84,5.84,0,0,0-1.49-4,4.88,4.88,0,0,0-3.8-1.66A4.82,4.82,0,0,0,159.59,44,6,6,0,0,0,158,48.12v8.93Zm26.29-21.31a2.15,2.15,0,0,1-1.54.64,2.23,2.23,0,0,1-1.57-.64,2.13,2.13,0,0,1,0-3.1,2.19,2.19,0,0,1,1.57-.64,2.11,2.11,0,0,1,1.54.64,2.17,2.17,0,0,1,0,3.1Zm-3.27,21.31V39.63h3.43V57.05ZM187,65V39.63h3l.15,3.95h.07A6.18,6.18,0,0,1,193,40.39a8,8,0,0,1,4.24-1.2,9.08,9.08,0,0,1,8.95,9.15,8.82,8.82,0,0,1-2.66,6.52,8.53,8.53,0,0,1-6.15,2.63,7.56,7.56,0,0,1-4.21-1.25,6.29,6.29,0,0,1-2.59-3.15h-.07V65Zm5.22-12.32a5.89,5.89,0,0,0,4.32,1.8,6,6,0,0,0,4.34-1.8,6.12,6.12,0,1,0-8.66,0Zm34.3,4.83a9.12,9.12,0,0,1-9-9.15,8.69,8.69,0,0,1,2.71-6.52,8.79,8.79,0,0,1,6.29-2.63,7.84,7.84,0,0,1,4.24,1.22,6.33,6.33,0,0,1,2.67,3.17h.07l.12-3.95h3.06V57.05h-3.06l-.12-4h-.07a6.38,6.38,0,0,1-2.7,3.19A7.8,7.8,0,0,1,226.55,57.49Zm-3.78-4.83a6.1,6.1,0,1,0-1.8-4.32A5.89,5.89,0,0,0,222.77,52.66Zm19.9,4.39V39.63h3l.21,4h0a6.82,6.82,0,0,1,2.48-3.24,6.53,6.53,0,0,1,3.83-1.22,7.24,7.24,0,0,1,5.65,2.4,8.71,8.71,0,0,1,2.15,6v9.44h-3.41V47.94a5.84,5.84,0,0,0-1.49-4,4.89,4.89,0,0,0-3.8-1.66A4.82,4.82,0,0,0,247.64,44a6,6,0,0,0-1.55,4.14v8.93Zm23,0V39.63h3l.21,4h0a6.91,6.91,0,0,1,2.49-3.24,6.5,6.5,0,0,1,3.82-1.22,7.21,7.21,0,0,1,5.65,2.4,8.67,8.67,0,0,1,2.16,6v9.44h-3.41V47.94a5.8,5.8,0,0,0-1.5-4,5,5,0,0,0-7.5.07,6,6,0,0,0-1.55,4.14v8.93Zm37.92-2.25a9.84,9.84,0,0,1-13.52,0,8.84,8.84,0,0,1,0-12.93,9.87,9.87,0,0,1,13.52,0,8.89,8.89,0,0,1,0,12.93Zm-11.09-2.14a6.08,6.08,0,1,0-1.81-4.32A5.91,5.91,0,0,0,292.52,52.66Zm35-13V57.05h-3l-.21-4h0a6.71,6.71,0,0,1-2.4,3.25,6.16,6.16,0,0,1-3.69,1.22,6.87,6.87,0,0,1-5.43-2.42,8.9,8.9,0,0,1-2.09-6V39.63h3.41v9.14a5.88,5.88,0,0,0,1.42,4,4.68,4.68,0,0,0,7.14-.07,6,6,0,0,0,1.5-4.13v-9Zm6,17.42V39.63h3l.21,4h0a6.84,6.84,0,0,1,2.49-3.24,6.5,6.5,0,0,1,3.82-1.22,7.22,7.22,0,0,1,5.65,2.4,8.67,8.67,0,0,1,2.16,6v9.44h-3.41V47.94a5.8,5.8,0,0,0-1.5-4,4.86,4.86,0,0,0-3.79-1.66A4.81,4.81,0,0,0,338.47,44a6,6,0,0,0-1.55,4.14v8.93Zm40-6a7.68,7.68,0,0,1-3.09,4.58,9.19,9.19,0,0,1-5.67,1.84,9.5,9.5,0,0,1-6.78-2.69,8.8,8.8,0,0,1,0-12.93,9.49,9.49,0,0,1,6.78-2.68A9.3,9.3,0,0,1,370.38,41a7.67,7.67,0,0,1,3.07,4.56h-3.54a4.7,4.7,0,0,0-2-2.43,6.11,6.11,0,0,0-7.64.86,6,6,0,0,0-1.8,4.34,6.16,6.16,0,0,0,6.15,6.12,5.73,5.73,0,0,0,3.25-.94,5.22,5.22,0,0,0,2-2.45Zm12.83,3.54a7.65,7.65,0,0,0,3.23-.69,3.91,3.91,0,0,0,2.06-1.85H395A7.92,7.92,0,0,1,391.54,56a10.27,10.27,0,0,1-5.44,1.49,9.53,9.53,0,0,1-6.82-2.63,8.69,8.69,0,0,1-2.76-6.57,8.84,8.84,0,0,1,2.63-6.46,9.15,9.15,0,0,1,6.78-2.64,8.7,8.7,0,0,1,6.89,2.92,10.65,10.65,0,0,1,2.56,7.31H380a6,6,0,0,0,2.13,3.76A6.38,6.38,0,0,0,386.28,54.61Zm-.35-12.54a6,6,0,0,0-4,1.32A5.62,5.62,0,0,0,380,46.78h11.88a5.92,5.92,0,0,0-2-3.45A6,6,0,0,0,385.93,42.07ZM421,39.19a7.19,7.19,0,0,1,5.52,2.3,8.13,8.13,0,0,1,2.13,5.73v9.83h-3.47V47.4a5.38,5.38,0,0,0-1.3-3.66,4.41,4.41,0,0,0-6.67.07,5.51,5.51,0,0,0-1.38,3.76v9.48h-3.42V47.4a5.32,5.32,0,0,0-1.34-3.64,4.36,4.36,0,0,0-6.64.05,5.51,5.51,0,0,0-1.38,3.76v9.48h-3.42V39.63h3l.21,3.64h0a6.21,6.21,0,0,1,2.26-3,5.86,5.86,0,0,1,3.47-1.12,6.77,6.77,0,0,1,3.65,1,6.93,6.93,0,0,1,2.5,2.68A6.66,6.66,0,0,1,421,39.19ZM442.6,54.61a7.65,7.65,0,0,0,3.23-.69,3.91,3.91,0,0,0,2.06-1.85h3.39A7.92,7.92,0,0,1,447.86,56a10.27,10.27,0,0,1-5.44,1.49,9.53,9.53,0,0,1-6.82-2.63,8.69,8.69,0,0,1-2.76-6.57,8.84,8.84,0,0,1,2.63-6.46,9.15,9.15,0,0,1,6.78-2.64,8.7,8.7,0,0,1,6.89,2.92,10.66,10.66,0,0,1,2.57,7.31H436.27a6,6,0,0,0,2.13,3.76A6.38,6.38,0,0,0,442.6,54.61Zm-.35-12.54a6,6,0,0,0-4,1.32,5.62,5.62,0,0,0-1.94,3.39h11.88a5.92,5.92,0,0,0-2-3.45A6,6,0,0,0,442.25,42.07Zm13.73,15V39.63h3l.21,4h0a6.82,6.82,0,0,1,2.48-3.24,6.53,6.53,0,0,1,3.83-1.22,7.24,7.24,0,0,1,5.65,2.4,8.71,8.71,0,0,1,2.15,6v9.44H470V47.94a5.84,5.84,0,0,0-1.49-4,4.88,4.88,0,0,0-3.8-1.66A4.82,4.82,0,0,0,461,44a6,6,0,0,0-1.55,4.14v8.93Zm30.95-2.67a8.59,8.59,0,0,0,2.81-.57v3a6.88,6.88,0,0,1-3.35.69,6.3,6.3,0,0,1-4.95-2,7.11,7.11,0,0,1-1.79-4.94V42.35h-3.53V39.63h3.53V34.76h3.43v4.87h6.61v2.72h-6.61v7.93a4.41,4.41,0,0,0,1,2.95A3.56,3.56,0,0,0,486.93,54.38Z"/></g></g></svg>