<svg xmlns="http://www.w3.org/2000/svg" viewBox="0 0 379.53 89.49"><defs><style>.cls-1{fill:#0c4384;}</style></defs><title>Ресурс 12</title><g id="Слой_2" data-name="Слой 2"><g id="Слой_4" data-name="Слой 4"><path class="cls-1" d="M1.72,25.05V.93H5.33V11.87h0L16.66.93h4.43L9,12.71,21.16,25.05H16.7L5.36,13.61h0V25.05ZM40,7.63V25.05H37l-.21-4h0a6.71,6.71,0,0,1-2.4,3.25,6.16,6.16,0,0,1-3.68,1.22,6.84,6.84,0,0,1-5.43-2.42,8.85,8.85,0,0,1-2.09-6V7.63h3.41v9.14a5.83,5.83,0,0,0,1.42,4,4.68,4.68,0,0,0,7.14-.07,6,6,0,0,0,1.49-4.13v-9Zm29.78,9A12.26,12.26,0,0,1,65.19,23a13,13,0,0,1-16.73-1.19A11.9,11.9,0,0,1,44.7,13a11.92,11.92,0,0,1,3.76-8.82A13,13,0,0,1,65.19,3a12.26,12.26,0,0,1,4.58,6.34H66a9.07,9.07,0,0,0-3.36-4A9.25,9.25,0,0,0,51,6.44,8.91,8.91,0,0,0,48.3,13,8.91,8.91,0,0,0,51,19.54a9.27,9.27,0,0,0,11.67,1.15,9.27,9.27,0,0,0,3.39-4ZM89.4,22.8a9.38,9.38,0,0,1-6.75,2.69,9.48,9.48,0,0,1-6.77-2.69,8.64,8.64,0,0,1-2.81-6.47,8.62,8.62,0,0,1,2.81-6.46,9.47,9.47,0,0,1,6.77-2.68A9.37,9.37,0,0,1,89.4,9.87a8.61,8.61,0,0,1,2.8,6.46A8.63,8.63,0,0,1,89.4,22.8ZM78.31,20.66a6.13,6.13,0,0,0,10.46-4.32A5.93,5.93,0,0,0,87,12a6.12,6.12,0,0,0-8.67,0,5.93,5.93,0,0,0-1.8,4.33A5.86,5.86,0,0,0,78.31,20.66ZM100,3.74a2.15,2.15,0,0,1-1.55.64,2.21,2.21,0,0,1-1.56-.64,2.07,2.07,0,0,1-.67-1.55A2.05,2.05,0,0,1,96.91.64,2.17,2.17,0,0,1,98.47,0,2.11,2.11,0,0,1,100,.64a2.11,2.11,0,0,1,.65,1.55A2.12,2.12,0,0,1,100,3.74ZM96.75,25.05V7.63h3.43V25.05Zm9.39,0V7.63h3l.21,4h0a6.82,6.82,0,0,1,2.48-3.24,6.53,6.53,0,0,1,3.83-1.22,7.24,7.24,0,0,1,5.65,2.4,8.71,8.71,0,0,1,2.15,6v9.44h-3.41V15.94a5.84,5.84,0,0,0-1.49-4,4.88,4.88,0,0,0-3.8-1.66A4.82,4.82,0,0,0,111.11,12a6,6,0,0,0-1.55,4.14v8.93Zm40.51-10.27V17.7H136.51V14.78Zm37.64-2.69c.05.48.08.89.09,1.22a11.79,11.79,0,0,1-3.76,8.63,12.64,12.64,0,0,1-9.08,3.55,12.51,12.51,0,0,1-9.08-3.68A11.87,11.87,0,0,1,158.7,13a11.88,11.88,0,0,1,3.76-8.82A12.51,12.51,0,0,1,171.54.49a13,13,0,0,1,7,2,12.72,12.72,0,0,1,4.81,5.25L179.58,8a9.5,9.5,0,0,0-3.42-3.15,9.39,9.39,0,0,0-4.62-1.17A8.89,8.89,0,0,0,165,6.38,9,9,0,0,0,162.3,13a8.9,8.9,0,0,0,2.75,6.56,9.12,9.12,0,0,0,6.65,2.72,9.29,9.29,0,0,0,6.05-2.07,8.83,8.83,0,0,0,3.2-5.23H170.79V12.09Zm12.78,10.52a7.68,7.68,0,0,0,3.23-.69,3.91,3.91,0,0,0,2.06-1.85h3.39A7.92,7.92,0,0,1,202.33,24a10.3,10.3,0,0,1-5.44,1.49,9.53,9.53,0,0,1-6.82-2.63,8.69,8.69,0,0,1-2.76-6.57,8.84,8.84,0,0,1,2.63-6.46,9.15,9.15,0,0,1,6.78-2.64,8.7,8.7,0,0,1,6.89,2.92,10.65,10.65,0,0,1,2.56,7.31H190.74a6,6,0,0,0,2.13,3.76A6.38,6.38,0,0,0,197.07,22.61Zm-.35-12.54a6,6,0,0,0-4,1.32,5.62,5.62,0,0,0-1.94,3.39h11.88a5.92,5.92,0,0,0-2-3.45A6,6,0,0,0,196.72,10.07Zm21.83,12.31a8.64,8.64,0,0,0,2.81-.57v3a6.89,6.89,0,0,1-3.36.69,6.28,6.28,0,0,1-4.94-2,7.11,7.11,0,0,1-1.79-4.94V10.35h-3.53V7.63h3.53V2.76h3.43V7.63h6.61v2.72H214.7v7.93a4.41,4.41,0,0,0,1,2.95A3.56,3.56,0,0,0,218.55,22.38Zm15.4.23a7.68,7.68,0,0,0,3.23-.69,3.91,3.91,0,0,0,2.06-1.85h3.39A7.92,7.92,0,0,1,239.21,24a10.3,10.3,0,0,1-5.44,1.49A9.51,9.51,0,0,1,227,22.86a8.69,8.69,0,0,1-2.76-6.57,8.84,8.84,0,0,1,2.63-6.46,9.15,9.15,0,0,1,6.78-2.64,8.7,8.7,0,0,1,6.89,2.92,10.65,10.65,0,0,1,2.56,7.31H227.62a6,6,0,0,0,2.13,3.76A6.34,6.34,0,0,0,234,22.61Zm-.35-12.54a6,6,0,0,0-4,1.32,5.68,5.68,0,0,0-1.95,3.39h11.89a5.92,5.92,0,0,0-2-3.45A6,6,0,0,0,233.6,10.07Zm30.21,15h-3.92l-5.36-6.45-5.41,6.45H245.2l7.38-8.86-7.14-8.56h3.94l5.15,6.15,5.13-6.15h3.94l-7.14,8.56ZM8.68,57.49A10.88,10.88,0,0,1,3,56.1,4.72,4.72,0,0,1,.58,52H4.25q.18,2.72,4.31,2.71c2.59,0,3.89-.75,3.9-2.27a1.91,1.91,0,0,0-.08-.59,1.4,1.4,0,0,0-.27-.51,2.83,2.83,0,0,0-.38-.39,2.59,2.59,0,0,0-.53-.33l-.61-.27a7.71,7.71,0,0,0-.74-.23l-.77-.2-.85-.2-.85-.19a15.56,15.56,0,0,1-2.23-.65,13.11,13.11,0,0,1-1.92-1A4.16,4.16,0,0,1,1.7,46.4a4.32,4.32,0,0,1-.54-2.2,4.2,4.2,0,0,1,2-3.69,9,9,0,0,1,5.09-1.32,10.36,10.36,0,0,1,5.22,1.28,4.47,4.47,0,0,1,2.34,3.94H12.23A2.16,2.16,0,0,0,11,42.56,5.78,5.78,0,0,0,8.28,42a5.52,5.52,0,0,0-2.54.53,1.75,1.75,0,0,0-1,1.66,1.69,1.69,0,0,0,.27,1,2.47,2.47,0,0,0,.62.66,4.12,4.12,0,0,0,1.1.5c.5.17.91.3,1.24.38s.83.2,1.53.35a21.84,21.84,0,0,1,2.5.63,12.37,12.37,0,0,1,2,.89A4.09,4.09,0,0,1,15.66,50a4.26,4.26,0,0,1,.55,2.23,4.31,4.31,0,0,1-2.13,3.86A9.83,9.83,0,0,1,8.68,57.49Zm20.25-3.11a8.69,8.69,0,0,0,2.82-.57v3a6.89,6.89,0,0,1-3.36.69,6.3,6.3,0,0,1-4.95-2,7.1,7.1,0,0,1-1.78-4.94V42.35H18.12V39.63h3.54V34.76h3.42v4.87h6.61v2.72H25.08v7.93a4.46,4.46,0,0,0,1,2.95A3.59,3.59,0,0,0,28.93,54.38Zm7.26,2.67V39.63h3l.21,4.71h0A7,7,0,0,1,42,40.63a6.88,6.88,0,0,1,4-1.37v3.09a6,6,0,0,0-4.67,1.92,6.9,6.9,0,0,0-1.76,4.85v7.93ZM57,57.49a9.13,9.13,0,0,1-9-9.15,9.13,9.13,0,0,1,9-9.15,7.87,7.87,0,0,1,4.25,1.22,6.31,6.31,0,0,1,2.66,3.17H64l.12-3.95h3.06V57.05H64.12l-.12-4h-.07a6.29,6.29,0,0,1-2.7,3.19A7.75,7.75,0,0,1,57,57.49Zm-3.78-4.83a6.12,6.12,0,1,0-1.79-4.32A5.93,5.93,0,0,0,53.24,52.66Zm28,1.72a8.69,8.69,0,0,0,2.81-.57v3a6.89,6.89,0,0,1-3.36.69,6.3,6.3,0,0,1-5-2A7.1,7.1,0,0,1,74,50.56V42.35H70.44V39.63H74V34.76H77.4v4.87H84v2.72H77.4v7.93a4.45,4.45,0,0,0,1,2.95A3.59,3.59,0,0,0,81.25,54.38Zm15.39.23a7.72,7.72,0,0,0,3.24-.69,4,4,0,0,0,2.06-1.85h3.39A8,8,0,0,1,101.91,56a10.32,10.32,0,0,1-5.44,1.49,9.51,9.51,0,0,1-6.82-2.63,8.69,8.69,0,0,1-2.76-6.57,8.8,8.8,0,0,1,2.63-6.46,9.14,9.14,0,0,1,6.77-2.64,8.69,8.69,0,0,1,6.89,2.92,10.66,10.66,0,0,1,2.57,7.31H90.32a6,6,0,0,0,2.12,3.76A6.38,6.38,0,0,0,96.64,54.61Zm-.35-12.54a6,6,0,0,0-4,1.32,5.72,5.72,0,0,0-1.94,3.39h11.88a5.87,5.87,0,0,0-2-3.45A6,6,0,0,0,96.29,42.07Zm22.42,23.26a10.41,10.41,0,0,1-5.84-1.64,8.11,8.11,0,0,1-3.39-4.62h3.64a5.11,5.11,0,0,0,2.19,2.51,6.52,6.52,0,0,0,3.4.9,6.31,6.31,0,0,0,4.5-1.7A5.85,5.85,0,0,0,125,56.36v-4l0-.11a6,6,0,0,1-2.66,3.28A8,8,0,0,1,118,56.8a8.66,8.66,0,0,1-6.16-2.5,8.75,8.75,0,0,1,.06-12.55,8.68,8.68,0,0,1,6.21-2.56,8,8,0,0,1,4.26,1.2A6.18,6.18,0,0,1,125,43.58h.07l.11-3.95h3.06V56a8.79,8.79,0,0,1-2.74,6.79A9.67,9.67,0,0,1,118.71,65.33ZM119,54a5.67,5.67,0,0,0,4.19-1.77A5.86,5.86,0,0,0,124.89,48a5.7,5.7,0,0,0-1.76-4.14,5.81,5.81,0,0,0-4.26-1.77,5.87,5.87,0,0,0-4.26,1.75,5.75,5.75,0,0,0-1.78,4.23,5.69,5.69,0,0,0,1.81,4.19A5.92,5.92,0,0,0,119,54Zm18.56-18.29a2.15,2.15,0,0,1-1.54.64,2.23,2.23,0,0,1-1.57-.64,2.13,2.13,0,0,1,0-3.1A2.19,2.19,0,0,1,136,32a2.11,2.11,0,0,1,1.54.64,2.17,2.17,0,0,1,0,3.1Zm-3.27,21.31V39.63h3.43V57.05Zm26.32-6a7.68,7.68,0,0,1-3.09,4.58,9.19,9.19,0,0,1-5.67,1.84A9.52,9.52,0,0,1,145,54.8a8.8,8.8,0,0,1,0-12.93,9.51,9.51,0,0,1,6.78-2.68A9.3,9.3,0,0,1,157.49,41a7.62,7.62,0,0,1,3.07,4.56H157a4.72,4.72,0,0,0-2-2.43,6.11,6.11,0,0,0-7.64.86,6,6,0,0,0-1.8,4.34,6.16,6.16,0,0,0,6.15,6.12,5.73,5.73,0,0,0,3.25-.94,5.22,5.22,0,0,0,2-2.45ZM173.39,65V39.63h3l.14,3.95h.07a6.25,6.25,0,0,1,2.69-3.19,8,8,0,0,1,4.24-1.2,9.08,9.08,0,0,1,8.95,9.15,8.79,8.79,0,0,1-2.67,6.52,8.49,8.49,0,0,1-6.14,2.63,7.56,7.56,0,0,1-4.21-1.25,6.29,6.29,0,0,1-2.59-3.15h-.07V65Zm5.22-12.32a5.89,5.89,0,0,0,4.32,1.8,6,6,0,0,0,4.34-1.8,6.07,6.07,0,0,0,0-8.65,6,6,0,0,0-4.35-1.8,6.12,6.12,0,0,0-4.33,10.45Zm26,4.83a9.13,9.13,0,0,1-9-9.15,9.13,9.13,0,0,1,9-9.15,7.87,7.87,0,0,1,4.25,1.22,6.31,6.31,0,0,1,2.66,3.17h.07l.12-3.95h3.06V57.05h-3.06l-.12-4h-.07a6.29,6.29,0,0,1-2.7,3.19A7.78,7.78,0,0,1,204.59,57.49Zm-3.78-4.83a5.93,5.93,0,0,0,4.35,1.8,5.86,5.86,0,0,0,4.34-1.8,6.12,6.12,0,0,0,0-8.65,5.86,5.86,0,0,0-4.34-1.8,6.12,6.12,0,0,0-4.35,10.45Zm19.9,4.39V39.63h3l.22,4.71h0a7,7,0,0,1,2.54-3.71,6.84,6.84,0,0,1,4-1.37v3.09a6,6,0,0,0-4.67,1.92,6.86,6.86,0,0,0-1.76,4.85v7.93Zm22.38-2.67a8.69,8.69,0,0,0,2.81-.57v3a6.89,6.89,0,0,1-3.36.69,6.3,6.3,0,0,1-4.95-2,7.15,7.15,0,0,1-1.78-4.94V42.35h-3.53V39.63h3.53V34.76h3.43v4.87h6.61v2.72h-6.61v7.93a4.41,4.41,0,0,0,1,2.95A3.56,3.56,0,0,0,243.09,54.38Zm7.26,2.67V39.63h3l.21,4h0a6.82,6.82,0,0,1,2.48-3.24,6.53,6.53,0,0,1,3.83-1.22,7.24,7.24,0,0,1,5.65,2.4,8.71,8.71,0,0,1,2.15,6v9.44h-3.41V47.94a5.84,5.84,0,0,0-1.49-4,4.88,4.88,0,0,0-3.8-1.66A4.82,4.82,0,0,0,255.32,44a6,6,0,0,0-1.54,4.14v8.93Zm31.34-2.44a7.65,7.65,0,0,0,3.23-.69A3.91,3.91,0,0,0,287,52.07h3.39A7.92,7.92,0,0,1,287,56a10.27,10.27,0,0,1-5.44,1.49,9.53,9.53,0,0,1-6.82-2.63,8.69,8.69,0,0,1-2.76-6.57,8.84,8.84,0,0,1,2.63-6.46,9.15,9.15,0,0,1,6.78-2.64,8.7,8.7,0,0,1,6.89,2.92,10.65,10.65,0,0,1,2.56,7.31H275.36a6,6,0,0,0,2.13,3.76A6.38,6.38,0,0,0,281.69,54.61Zm-.35-12.54a6,6,0,0,0-4,1.32,5.62,5.62,0,0,0-1.94,3.39h11.88a5.92,5.92,0,0,0-2-3.45A6,6,0,0,0,281.34,42.07Zm13.73,15V39.63h3l.21,4.71h0a6.92,6.92,0,0,1,2.54-3.71,6.84,6.84,0,0,1,4.05-1.37v3.09a6,6,0,0,0-4.68,1.92,6.9,6.9,0,0,0-1.76,4.85v7.93Zm20.79.44a10.86,10.86,0,0,1-5.65-1.39,4.72,4.72,0,0,1-2.45-4.1h3.67c.12,1.81,1.55,2.71,4.31,2.71,2.59,0,3.89-.75,3.9-2.27a2.27,2.27,0,0,0-.08-.59,1.4,1.4,0,0,0-.27-.51,3.56,3.56,0,0,0-.38-.39,2.59,2.59,0,0,0-.53-.33l-.61-.27a7.71,7.71,0,0,0-.74-.23l-.77-.2-.86-.2-.84-.19a15.19,15.19,0,0,1-2.23-.65,13.71,13.71,0,0,1-1.93-1,4.31,4.31,0,0,1-1.53-1.53,4.42,4.42,0,0,1-.53-2.2,4.2,4.2,0,0,1,2-3.69,8.92,8.92,0,0,1,5.09-1.32,10.36,10.36,0,0,1,5.22,1.28A4.47,4.47,0,0,1,323,44.41h-3.54a2.16,2.16,0,0,0-1.27-1.85,5.81,5.81,0,0,0-2.68-.59,5.52,5.52,0,0,0-2.54.53,1.75,1.75,0,0,0-1,1.66,1.69,1.69,0,0,0,.27,1,2.32,2.32,0,0,0,.62.66,4,4,0,0,0,1.1.5c.5.17.91.3,1.23.38l1.54.35a22.4,22.4,0,0,1,2.5.63,12.74,12.74,0,0,1,2.05.89A4.09,4.09,0,0,1,322.84,50a4.36,4.36,0,0,1,.54,2.23,4.3,4.3,0,0,1-2.12,3.86A9.83,9.83,0,0,1,315.86,57.49ZM328,57.05V31.12h3.43V43.65h.07a6.44,6.44,0,0,1,2.37-3.24,6.2,6.2,0,0,1,3.71-1.22,7.24,7.24,0,0,1,5.65,2.4,8.71,8.71,0,0,1,2.15,6v9.44H342V47.94a5.84,5.84,0,0,0-1.49-4,4.88,4.88,0,0,0-3.8-1.66A4.82,4.82,0,0,0,333,44a6,6,0,0,0-1.54,4.14v8.93ZM354.3,35.74a2.13,2.13,0,0,1-1.54.64,2.23,2.23,0,0,1-1.57-.64,2.15,2.15,0,0,1,0-3.1,2.19,2.19,0,0,1,1.57-.64,2.18,2.18,0,0,1,1.54,3.74ZM351,57.05V39.63h3.42V57.05ZM360.42,65V39.63h3l.14,3.95h.07a6.18,6.18,0,0,1,2.68-3.19,8,8,0,0,1,4.24-1.2,9.08,9.08,0,0,1,8.95,9.15,8.82,8.82,0,0,1-2.66,6.52,8.53,8.53,0,0,1-6.15,2.63,7.56,7.56,0,0,1-4.21-1.25,6.29,6.29,0,0,1-2.59-3.15h-.07V65Zm5.22-12.32a5.89,5.89,0,0,0,4.32,1.8,6,6,0,0,0,4.34-1.8,6.12,6.12,0,1,0-8.66,0ZM9,89.49a8.77,8.77,0,0,1-6.28-2.63,9.17,9.17,0,0,1,0-13A8.77,8.77,0,0,1,9,71.19a7.87,7.87,0,0,1,4.25,1.22,6.31,6.31,0,0,1,2.66,3.17H16l.12-4h3.06V89.05H16.1l-.12-4h-.07a6.38,6.38,0,0,1-2.7,3.19A7.78,7.78,0,0,1,9,89.49ZM5.22,84.66a5.93,5.93,0,0,0,4.35,1.8,5.87,5.87,0,0,0,4.34-1.8,6.12,6.12,0,0,0,0-8.65,5.87,5.87,0,0,0-4.34-1.8,6.13,6.13,0,0,0-6.14,6.13A5.92,5.92,0,0,0,5.22,84.66Zm19.9,4.39V71.63h3l.21,4h0a6.78,6.78,0,0,1,2.49-3.24,6.48,6.48,0,0,1,3.82-1.22,7.22,7.22,0,0,1,5.65,2.4,8.66,8.66,0,0,1,2.15,6v9.44H39.09V79.94a5.79,5.79,0,0,0-1.49-4,4.88,4.88,0,0,0-3.8-1.66A4.82,4.82,0,0,0,30.09,76a6,6,0,0,0-1.54,4.14v8.93Zm23,0V71.63h3l.21,4h0a6.82,6.82,0,0,1,2.48-3.24,6.53,6.53,0,0,1,3.83-1.22,7.24,7.24,0,0,1,5.65,2.4,8.71,8.71,0,0,1,2.15,6v9.44H62.12V79.94a5.84,5.84,0,0,0-1.49-4,4.88,4.88,0,0,0-3.8-1.66A4.82,4.82,0,0,0,53.12,76a6,6,0,0,0-1.55,4.14v8.93ZM86.06,86.8a9.38,9.38,0,0,1-6.75,2.69,9.48,9.48,0,0,1-6.77-2.69,8.84,8.84,0,0,1,0-12.93,9.47,9.47,0,0,1,6.77-2.68,9.37,9.37,0,0,1,6.75,2.68,8.86,8.86,0,0,1,0,12.93ZM75,84.66a6.08,6.08,0,1,0-1.81-4.32A5.86,5.86,0,0,0,75,84.66Zm35-13V89.05h-3l-.22-4h0a6.71,6.71,0,0,1-2.4,3.25,6.16,6.16,0,0,1-3.68,1.22,6.84,6.84,0,0,1-5.43-2.42,8.85,8.85,0,0,1-2.1-6V71.63H96.5v9.14a5.84,5.84,0,0,0,1.43,4,4.67,4.67,0,0,0,7.13-.07,6,6,0,0,0,1.5-4.13v-9Zm6,17.42V71.63h3l.21,4h0a6.91,6.91,0,0,1,2.49-3.24,6.53,6.53,0,0,1,3.83-1.22,7.24,7.24,0,0,1,5.65,2.4,8.71,8.71,0,0,1,2.15,6v9.44h-3.41V79.94a5.84,5.84,0,0,0-1.49-4,4.89,4.89,0,0,0-3.8-1.66A4.82,4.82,0,0,0,120.92,76a6,6,0,0,0-1.55,4.14v8.93Zm40-6a7.71,7.71,0,0,1-3.08,4.58,9.23,9.23,0,0,1-5.67,1.84,9.53,9.53,0,0,1-6.79-2.69,8.8,8.8,0,0,1,0-12.93,9.52,9.52,0,0,1,6.79-2.68A9.29,9.29,0,0,1,152.83,73a7.62,7.62,0,0,1,3.07,4.56h-3.53a4.72,4.72,0,0,0-2-2.43,6.11,6.11,0,0,0-7.64.86,6,6,0,0,0-1.8,4.34,5.86,5.86,0,0,0,1.81,4.32,5.94,5.94,0,0,0,4.34,1.8,5.73,5.73,0,0,0,3.25-.94,5.22,5.22,0,0,0,2-2.45Zm12.83,3.54a7.72,7.72,0,0,0,3.24-.69A3.92,3.92,0,0,0,174,84.07h3.4A8,8,0,0,1,174,88a10.32,10.32,0,0,1-5.44,1.49,9.51,9.51,0,0,1-6.82-2.63A8.69,8.69,0,0,1,159,80.29a8.83,8.83,0,0,1,2.62-6.46,9.18,9.18,0,0,1,6.78-2.64,8.7,8.7,0,0,1,6.89,2.92,10.66,10.66,0,0,1,2.57,7.31H162.4a6,6,0,0,0,2.13,3.76A6.38,6.38,0,0,0,168.73,86.61Zm-.35-12.54a6,6,0,0,0-4,1.32,5.67,5.67,0,0,0-1.94,3.39h11.88a5.87,5.87,0,0,0-2-3.45A6,6,0,0,0,168.38,74.07Zm35.1-2.88a7.16,7.16,0,0,1,5.52,2.3,8.13,8.13,0,0,1,2.13,5.73v9.83h-3.46V79.4a5.39,5.39,0,0,0-1.31-3.66A4.24,4.24,0,0,0,203,74.25a4.29,4.29,0,0,0-3.33,1.56,5.51,5.51,0,0,0-1.38,3.76v9.48h-3.43V79.4a5.32,5.32,0,0,0-1.34-3.64,4.35,4.35,0,0,0-6.63,0,5.51,5.51,0,0,0-1.38,3.76v9.48h-3.43V71.63h3l.21,3.64h0a6.23,6.23,0,0,1,2.27-3,5.83,5.83,0,0,1,3.46-1.12,6.83,6.83,0,0,1,3.66,1,7,7,0,0,1,2.49,2.68A6.67,6.67,0,0,1,203.48,71.19Zm21.57,15.42a7.72,7.72,0,0,0,3.24-.69,3.92,3.92,0,0,0,2.05-1.85h3.4A8,8,0,0,1,230.32,88a10.32,10.32,0,0,1-5.44,1.49,9.51,9.51,0,0,1-6.82-2.63,8.69,8.69,0,0,1-2.76-6.57,8.83,8.83,0,0,1,2.62-6.46,9.18,9.18,0,0,1,6.78-2.64,8.7,8.7,0,0,1,6.89,2.92,10.66,10.66,0,0,1,2.57,7.31H218.72a6,6,0,0,0,2.13,3.76A6.38,6.38,0,0,0,225.05,86.61Zm-.35-12.54a6,6,0,0,0-4,1.32,5.72,5.72,0,0,0-1.94,3.39h11.88a5.87,5.87,0,0,0-2-3.45A6,6,0,0,0,224.7,74.07Zm13.73,15V71.63h3l.21,4h0a6.78,6.78,0,0,1,2.49-3.24A6.5,6.5,0,0,1,248,71.19a7.22,7.22,0,0,1,5.65,2.4,8.66,8.66,0,0,1,2.15,6v9.44H252.4V79.94a5.79,5.79,0,0,0-1.49-4,5,5,0,0,0-7.51.07,6,6,0,0,0-1.54,4.14v8.93Zm30.95-2.67a8.69,8.69,0,0,0,2.82-.57v3a6.89,6.89,0,0,1-3.36.69,6.3,6.3,0,0,1-4.95-2,7.1,7.1,0,0,1-1.78-4.94V74.35h-3.54V71.63h3.54V66.76h3.43v4.87h6.6v2.72h-6.6v7.93a4.45,4.45,0,0,0,1,3A3.59,3.59,0,0,0,269.38,86.38Z"/></g></g></svg>