<svg xmlns="http://www.w3.org/2000/svg" viewBox="0 0 935.95 34.21"><defs><style>.cls-1{fill:#0c4384;}</style></defs><title>Ресурс 14</title><g id="Слой_2" data-name="Слой 2"><g id="Слой_4" data-name="Слой 4"><path class="cls-1" d="M0,25.93V1.81H3.6V12.74h0L14.94,1.81h4.43L7.28,13.59,19.44,25.93H15L3.64,14.48h0V25.93ZM38.27,8.51V25.93h-3l-.21-4h0a6.71,6.71,0,0,1-2.4,3.25,6.16,6.16,0,0,1-3.68,1.22A6.87,6.87,0,0,1,23.48,24a8.9,8.9,0,0,1-2.09-6V8.51H24.8v9.14a5.85,5.85,0,0,0,1.43,4,4.67,4.67,0,0,0,7.13-.07,6,6,0,0,0,1.5-4.13v-9Zm29.77,9a12.18,12.18,0,0,1-4.57,6.34,13,13,0,0,1-16.73-1.19A11.88,11.88,0,0,1,43,13.87,11.9,11.9,0,0,1,46.74,5,13,13,0,0,1,63.47,3.86,12.18,12.18,0,0,1,68,10.2H64.3a9.1,9.1,0,0,0-3.37-4A9.24,9.24,0,0,0,49.28,7.32a8.91,8.91,0,0,0-2.7,6.55,8.91,8.91,0,0,0,2.7,6.55,9.25,9.25,0,0,0,11.66,1.15,9.23,9.23,0,0,0,3.4-4Zm19.64,6.14a9.84,9.84,0,0,1-13.52,0,8.66,8.66,0,0,1-2.81-6.47,8.62,8.62,0,0,1,2.81-6.46,9.87,9.87,0,0,1,13.52,0,8.64,8.64,0,0,1,2.79,6.46A8.68,8.68,0,0,1,87.68,23.68ZM76.59,21.54a6.13,6.13,0,0,0,10.46-4.32,6.14,6.14,0,1,0-10.46,4.32ZM98.3,4.61a2.14,2.14,0,0,1-1.55.65,2.16,2.16,0,0,1-1.56-.65,2,2,0,0,1-.67-1.54,2.05,2.05,0,0,1,.67-1.55A2.15,2.15,0,0,1,96.75.88a2.13,2.13,0,0,1,1.55.64A2.11,2.11,0,0,1,99,3.07,2.09,2.09,0,0,1,98.3,4.61ZM95,25.93V8.51h3.43V25.93Zm9.38,0V8.51h3l.21,4h0a6.86,6.86,0,0,1,2.49-3.24A6.53,6.53,0,0,1,114,8.07a7.24,7.24,0,0,1,5.66,2.4,8.69,8.69,0,0,1,2.15,6v9.44h-3.41V16.82a5.8,5.8,0,0,0-1.5-4,4.86,4.86,0,0,0-3.79-1.66,4.79,4.79,0,0,0-3.71,1.73A6,6,0,0,0,107.84,17v8.93Zm40.52-10.27v2.92H134.79V15.66ZM182.57,13c0,.48.07.89.08,1.22a11.76,11.76,0,0,1-3.76,8.63,13.21,13.21,0,0,1-18.16-.13A11.92,11.92,0,0,1,157,13.87,11.94,11.94,0,0,1,160.73,5a12.58,12.58,0,0,1,9.09-3.67,13,13,0,0,1,7,2,12.72,12.72,0,0,1,4.81,5.25l-3.81.25a9.61,9.61,0,0,0-3.42-3.16,9.41,9.41,0,0,0-4.62-1.16,8.87,8.87,0,0,0-6.53,2.72,9,9,0,0,0-2.71,6.57,8.87,8.87,0,0,0,2.75,6.57A9.12,9.12,0,0,0,170,23.12,9.31,9.31,0,0,0,176,21.05a8.88,8.88,0,0,0,3.2-5.23H169.07V13Zm12.78,10.51a7.7,7.7,0,0,0,3.23-.68A4,4,0,0,0,200.64,21H204a8,8,0,0,1-3.42,3.93,10.3,10.3,0,0,1-5.44,1.49,9.51,9.51,0,0,1-6.82-2.63,8.69,8.69,0,0,1-2.76-6.57,8.84,8.84,0,0,1,2.63-6.46A9.14,9.14,0,0,1,195,8.07,8.69,8.69,0,0,1,201.88,11a10.61,10.61,0,0,1,2.57,7.31H189a6.07,6.07,0,0,0,2.12,3.76A6.38,6.38,0,0,0,195.35,23.48ZM195,11a6,6,0,0,0-4,1.32,5.68,5.68,0,0,0-1.95,3.39h11.89a5.88,5.88,0,0,0-2-3.45A6,6,0,0,0,195,11Zm21.84,12.31a8.69,8.69,0,0,0,2.81-.57v3a6.89,6.89,0,0,1-3.36.69,6.3,6.3,0,0,1-4.95-2,7.1,7.1,0,0,1-1.78-4.94V11.23H206V8.51h3.53V3.64H213V8.51h6.61v2.72H213v7.93a4.41,4.41,0,0,0,1,2.94A3.57,3.57,0,0,0,216.83,23.26Zm15.39.22a7.72,7.72,0,0,0,3.24-.68A4,4,0,0,0,237.52,21h3.39a8,8,0,0,1-3.42,3.93,10.32,10.32,0,0,1-5.44,1.49,9.51,9.51,0,0,1-6.82-2.63,8.69,8.69,0,0,1-2.76-6.57,8.8,8.8,0,0,1,2.63-6.46,9.14,9.14,0,0,1,6.77-2.64A8.69,8.69,0,0,1,238.76,11a10.66,10.66,0,0,1,2.57,7.31H225.9A6.07,6.07,0,0,0,228,22.06,6.37,6.37,0,0,0,232.22,23.48ZM231.87,11a6,6,0,0,0-4,1.32,5.72,5.72,0,0,0-1.94,3.39h11.88a5.87,5.87,0,0,0-2-3.45A6,6,0,0,0,231.87,11Zm30.22,15h-3.92l-5.36-6.45-5.42,6.45h-3.92l7.39-8.86-7.14-8.56h3.94l5.15,6.15,5.13-6.15h3.94l-7.14,8.56Zm19.41.44A11,11,0,0,1,275.84,25a4.72,4.72,0,0,1-2.45-4.1h3.68c.11,1.81,1.55,2.71,4.3,2.71q3.88,0,3.91-2.27a2.27,2.27,0,0,0-.08-.59,1.6,1.6,0,0,0-.28-.51,3.54,3.54,0,0,0-.37-.39,2.54,2.54,0,0,0-.54-.33l-.61-.27a5.39,5.39,0,0,0-.73-.23l-.78-.2-.85-.2c-.38-.08-.66-.15-.84-.2a14.27,14.27,0,0,1-2.24-.64,12.27,12.27,0,0,1-1.92-1,4.21,4.21,0,0,1-1.53-1.52,4.35,4.35,0,0,1-.54-2.2,4.22,4.22,0,0,1,2-3.69A9,9,0,0,1,281,8.07a10.36,10.36,0,0,1,5.22,1.28,4.47,4.47,0,0,1,2.34,3.94h-3.53a2.19,2.19,0,0,0-1.28-1.86,5.9,5.9,0,0,0-2.68-.58,5.43,5.43,0,0,0-2.54.53,1.77,1.77,0,0,0-1,1.66,1.62,1.62,0,0,0,.28,1,2.3,2.3,0,0,0,.61.66,4.65,4.65,0,0,0,1.1.5c.5.17.92.3,1.24.38s.83.2,1.54.35a24.93,24.93,0,0,1,2.49.62,13,13,0,0,1,2.05.9,4.09,4.09,0,0,1,1.64,1.51,4.26,4.26,0,0,1,.55,2.23A4.31,4.31,0,0,1,286.89,25,9.8,9.8,0,0,1,281.5,26.37Zm20.25-3.11a8.69,8.69,0,0,0,2.81-.57v3a6.89,6.89,0,0,1-3.36.69,6.3,6.3,0,0,1-4.95-2,7.1,7.1,0,0,1-1.78-4.94V11.23h-3.53V8.51h3.53V3.64h3.43V8.51h6.61v2.72H297.9v7.93a4.41,4.41,0,0,0,1,2.94A3.57,3.57,0,0,0,301.75,23.26ZM309,25.93V8.51h3l.21,4.71h0a6.92,6.92,0,0,1,2.54-3.71,6.84,6.84,0,0,1,4.05-1.37v3.09a6,6,0,0,0-4.68,1.92A6.9,6.9,0,0,0,312.43,18v7.93Zm20.83.44a9.12,9.12,0,0,1-9-9.15,8.69,8.69,0,0,1,2.71-6.52,8.75,8.75,0,0,1,6.29-2.63,7.84,7.84,0,0,1,4.24,1.22,6.22,6.22,0,0,1,2.66,3.17h.07l.13-4H340V25.93h-3.06l-.13-4h-.07a6.31,6.31,0,0,1-2.69,3.19A7.8,7.8,0,0,1,329.84,26.37Zm-3.78-4.83a6.13,6.13,0,0,0,10.47-4.32,6.14,6.14,0,1,0-10.47,4.32Zm28,1.72a8.64,8.64,0,0,0,2.81-.57v3a6.89,6.89,0,0,1-3.36.69,6.26,6.26,0,0,1-4.94-2,7.11,7.11,0,0,1-1.79-4.94V11.23h-3.53V8.51h3.53V3.64h3.43V8.51h6.61v2.72h-6.61v7.93a4.36,4.36,0,0,0,1,2.94A3.53,3.53,0,0,0,354.06,23.26Zm15.4.22a7.67,7.67,0,0,0,3.23-.68A4,4,0,0,0,374.75,21h3.39a7.92,7.92,0,0,1-3.42,3.93,10.3,10.3,0,0,1-5.44,1.49,9.51,9.51,0,0,1-6.82-2.63,8.69,8.69,0,0,1-2.76-6.57,8.84,8.84,0,0,1,2.63-6.46,9.15,9.15,0,0,1,6.78-2.64A8.7,8.7,0,0,1,376,11a10.65,10.65,0,0,1,2.56,7.31H363.13a6,6,0,0,0,2.13,3.76A6.34,6.34,0,0,0,369.46,23.48ZM369.11,11a6,6,0,0,0-4,1.32,5.68,5.68,0,0,0-1.95,3.39h11.89a5.92,5.92,0,0,0-2-3.45A6,6,0,0,0,369.11,11Zm22.41,23.26a10.43,10.43,0,0,1-5.84-1.64A8.15,8.15,0,0,1,382.29,28h3.64a5.16,5.16,0,0,0,2.19,2.51,6.52,6.52,0,0,0,3.4.9,6.28,6.28,0,0,0,4.5-1.71,5.81,5.81,0,0,0,1.79-4.41V21.29l0-.11a6,6,0,0,1-2.67,3.28,8.08,8.08,0,0,1-4.31,1.22,8.62,8.62,0,0,1-6.16-2.5A8.3,8.3,0,0,1,382,16.89a8.3,8.3,0,0,1,2.68-6.26,8.72,8.72,0,0,1,6.21-2.56,8,8,0,0,1,4.27,1.2,6.23,6.23,0,0,1,2.68,3.19h.07l.1-4h3.06V24.89a8.82,8.82,0,0,1-2.73,6.79A9.71,9.71,0,0,1,391.52,34.21Zm.24-11.31a5.7,5.7,0,0,0,4.2-1.76,5.9,5.9,0,0,0,1.75-4.28,5.67,5.67,0,0,0-1.77-4.14,6,6,0,0,0-8.52,0,5.86,5.86,0,0,0,0,8.42A5.91,5.91,0,0,0,391.76,22.9ZM410.33,4.61a2.14,2.14,0,0,1-1.55.65,2.2,2.2,0,0,1-1.57-.65,2.06,2.06,0,0,1-.66-1.54,2.08,2.08,0,0,1,.66-1.55,2.19,2.19,0,0,1,1.57-.64,2.13,2.13,0,0,1,1.55.64A2.11,2.11,0,0,1,411,3.07,2.09,2.09,0,0,1,410.33,4.61Zm-3.27,21.32V8.51h3.42V25.93Zm26.31-6a7.71,7.71,0,0,1-3.08,4.58,9.3,9.3,0,0,1-5.67,1.84,9.53,9.53,0,0,1-6.79-2.69,8.8,8.8,0,0,1,0-12.93,9.52,9.52,0,0,1,6.79-2.68,9.23,9.23,0,0,1,5.68,1.82,7.62,7.62,0,0,1,3.07,4.56h-3.53a4.75,4.75,0,0,0-2-2.44,6.17,6.17,0,0,0-9.44,5.21,5.86,5.86,0,0,0,1.81,4.32,5.94,5.94,0,0,0,4.34,1.8,5.73,5.73,0,0,0,3.25-.94,5.22,5.22,0,0,0,2-2.45ZM446.2,33.86V8.51h3l.14,4h.07a6.18,6.18,0,0,1,2.68-3.19,8,8,0,0,1,4.24-1.2,8.65,8.65,0,0,1,6.26,2.63,8.75,8.75,0,0,1,2.69,6.52,8.82,8.82,0,0,1-2.66,6.52,8.53,8.53,0,0,1-6.15,2.63,7.58,7.58,0,0,1-4.21-1.25A6.29,6.29,0,0,1,449.7,22h-.07V33.86Zm5.22-12.32a5.89,5.89,0,0,0,4.32,1.8,6,6,0,0,0,4.34-1.8,6.07,6.07,0,0,0,0-8.65,6.14,6.14,0,0,0-10.47,4.33A5.92,5.92,0,0,0,451.42,21.54Zm26,4.83a8.78,8.78,0,0,1-6.28-2.63,8.72,8.72,0,0,1-2.72-6.52,8.7,8.7,0,0,1,2.72-6.52,8.74,8.74,0,0,1,6.28-2.63,7.87,7.87,0,0,1,4.25,1.22,6.27,6.27,0,0,1,2.66,3.17h.07l.13-4h3.05V25.93h-3.05l-.13-4h-.07a6.29,6.29,0,0,1-2.7,3.19A7.75,7.75,0,0,1,477.4,26.37Zm-3.78-4.83a6.13,6.13,0,0,0,10.48-4.32,6.14,6.14,0,1,0-10.48,4.32Zm19.9,4.39V8.51h3l.21,4.71h0a7,7,0,0,1,2.54-3.71,6.88,6.88,0,0,1,4.05-1.37v3.09a6,6,0,0,0-4.67,1.92A6.9,6.9,0,0,0,497,18v7.93Zm22.38-2.67a8.64,8.64,0,0,0,2.81-.57v3a6.88,6.88,0,0,1-3.35.69,6.3,6.3,0,0,1-4.95-2,7.11,7.11,0,0,1-1.79-4.94V11.23h-3.53V8.51h3.53V3.64h3.43V8.51h6.61v2.72h-6.61v7.93a4.36,4.36,0,0,0,1,2.94A3.53,3.53,0,0,0,515.9,23.26Zm7.26,2.67V8.51h3l.21,4h0a6.74,6.74,0,0,1,2.49-3.24,6.5,6.5,0,0,1,3.82-1.22,7.22,7.22,0,0,1,5.65,2.4,8.64,8.64,0,0,1,2.15,6v9.44h-3.41V16.82a5.79,5.79,0,0,0-1.49-4,4.88,4.88,0,0,0-3.8-1.66,4.8,4.8,0,0,0-3.71,1.73A6,6,0,0,0,526.59,17v8.93Zm31.34-2.45a7.72,7.72,0,0,0,3.24-.68,3.92,3.92,0,0,0,2-1.85h3.4a8,8,0,0,1-3.42,3.93,10.32,10.32,0,0,1-5.44,1.49,9.51,9.51,0,0,1-6.82-2.63,8.69,8.69,0,0,1-2.76-6.57,8.83,8.83,0,0,1,2.62-6.46,9.16,9.16,0,0,1,6.78-2.64A8.7,8.7,0,0,1,561,11a10.66,10.66,0,0,1,2.57,7.31H548.17a6,6,0,0,0,2.13,3.76A6.37,6.37,0,0,0,554.5,23.48ZM554.15,11a6,6,0,0,0-4,1.32,5.67,5.67,0,0,0-1.94,3.39h11.88a5.87,5.87,0,0,0-2-3.45A6,6,0,0,0,554.15,11Zm13.73,15V8.51h3l.21,4.71h0a7,7,0,0,1,2.54-3.71,6.84,6.84,0,0,1,4-1.37v3.09a6,6,0,0,0-4.68,1.92A6.9,6.9,0,0,0,571.31,18v7.93Zm20.79.44A11,11,0,0,1,583,25a4.72,4.72,0,0,1-2.45-4.1h3.67q.18,2.72,4.31,2.71,3.88,0,3.9-2.27a1.91,1.91,0,0,0-.08-.59,1.4,1.4,0,0,0-.27-.51,2.83,2.83,0,0,0-.38-.39,2.22,2.22,0,0,0-.53-.33l-.61-.27a5.16,5.16,0,0,0-.74-.23l-.77-.2-.85-.2-.85-.2a14.44,14.44,0,0,1-2.23-.64,12.27,12.27,0,0,1-1.92-1,4.06,4.06,0,0,1-1.53-1.52,4.35,4.35,0,0,1-.54-2.2,4.2,4.2,0,0,1,2-3.69,9,9,0,0,1,5.09-1.32,10.36,10.36,0,0,1,5.22,1.28,4.47,4.47,0,0,1,2.34,3.94h-3.54A2.18,2.18,0,0,0,591,11.43a5.9,5.9,0,0,0-2.68-.58,5.43,5.43,0,0,0-2.54.53,1.75,1.75,0,0,0-1,1.66,1.69,1.69,0,0,0,.27,1,2.47,2.47,0,0,0,.62.66,4.46,4.46,0,0,0,1.1.5c.5.17.91.3,1.24.38s.83.2,1.53.35a24.53,24.53,0,0,1,2.5.62,13.39,13.39,0,0,1,2,.9,4.09,4.09,0,0,1,1.64,1.51,4.26,4.26,0,0,1,.55,2.23A4.31,4.31,0,0,1,594.07,25,9.83,9.83,0,0,1,588.67,26.37Zm12.15-.44V0h3.43V12.53h.07a6.51,6.51,0,0,1,2.37-3.24,6.22,6.22,0,0,1,3.71-1.22,7.22,7.22,0,0,1,5.65,2.4,8.65,8.65,0,0,1,2.16,6v9.44h-3.42V16.82a5.79,5.79,0,0,0-1.49-4,4.88,4.88,0,0,0-3.8-1.66,4.8,4.8,0,0,0-3.71,1.73A6,6,0,0,0,604.25,17v8.93Zm26.3-21.32a2.14,2.14,0,0,1-1.55.65A2.16,2.16,0,0,1,624,4.61a2,2,0,0,1-.67-1.54A2.05,2.05,0,0,1,624,1.52a2.15,2.15,0,0,1,1.56-.64,2.13,2.13,0,0,1,1.55.64,2.11,2.11,0,0,1,.65,1.55A2.09,2.09,0,0,1,627.12,4.61Zm-3.27,21.32V8.51h3.43V25.93Zm9.38,7.93V8.51h3l.14,4h.07a6.18,6.18,0,0,1,2.68-3.19,8,8,0,0,1,4.24-1.2,8.65,8.65,0,0,1,6.26,2.63,8.71,8.71,0,0,1,2.69,6.52,8.82,8.82,0,0,1-2.66,6.52,8.5,8.5,0,0,1-6.14,2.63,7.53,7.53,0,0,1-4.21-1.25,6.26,6.26,0,0,1-2.6-3.15h-.07V33.86Zm5.23-12.32a5.85,5.85,0,0,0,4.31,1.8,6,6,0,0,0,4.34-1.8,5.83,5.83,0,0,0,1.82-4.32,6.14,6.14,0,1,0-10.47,4.32Zm34.29,4.83a8.77,8.77,0,0,1-6.28-2.63,8.72,8.72,0,0,1-2.72-6.52,8.7,8.7,0,0,1,2.72-6.52,8.72,8.72,0,0,1,6.28-2.63A7.87,7.87,0,0,1,677,9.29a6.27,6.27,0,0,1,2.66,3.17h.07l.12-4h3.06V25.93h-3.06l-.12-4h-.07a6.38,6.38,0,0,1-2.7,3.19A7.78,7.78,0,0,1,672.75,26.37ZM669,21.54a6.14,6.14,0,0,0,10.48-4.32,5.94,5.94,0,0,0-1.79-4.33,6.14,6.14,0,0,0-8.69,0,6.12,6.12,0,0,0,0,8.65Zm19.9,4.39V8.51h3l.21,4h0a6.74,6.74,0,0,1,2.49-3.24,6.48,6.48,0,0,1,3.82-1.22,7.22,7.22,0,0,1,5.65,2.4,8.64,8.64,0,0,1,2.15,6v9.44h-3.41V16.82a5.79,5.79,0,0,0-1.49-4,4.88,4.88,0,0,0-3.8-1.66,4.8,4.8,0,0,0-3.71,1.73A6,6,0,0,0,692.3,17v8.93Zm23,0V8.51h3l.21,4h0a6.78,6.78,0,0,1,2.48-3.24,6.53,6.53,0,0,1,3.83-1.22,7.24,7.24,0,0,1,5.65,2.4,8.69,8.69,0,0,1,2.15,6v9.44h-3.41V16.82a5.84,5.84,0,0,0-1.49-4,4.88,4.88,0,0,0-3.8-1.66,4.79,4.79,0,0,0-3.71,1.73A6,6,0,0,0,715.32,17v8.93Zm37.91-2.25a9.38,9.38,0,0,1-6.75,2.69,9.48,9.48,0,0,1-6.77-2.69,8.66,8.66,0,0,1-2.81-6.47,8.62,8.62,0,0,1,2.81-6.46,9.47,9.47,0,0,1,6.77-2.68,9.37,9.37,0,0,1,6.75,2.68,8.61,8.61,0,0,1,2.8,6.46A8.65,8.65,0,0,1,749.81,23.68Zm-11.09-2.14a6.13,6.13,0,0,0,10.46-4.32,6.14,6.14,0,1,0-10.46,4.32Zm35-13V25.93h-3l-.21-4h0a6.71,6.71,0,0,1-2.4,3.25,6.16,6.16,0,0,1-3.68,1.22A6.84,6.84,0,0,1,758.94,24a8.85,8.85,0,0,1-2.1-6V8.51h3.41v9.14a5.85,5.85,0,0,0,1.43,4,4.68,4.68,0,0,0,7.14-.07,6,6,0,0,0,1.49-4.13v-9Zm6,17.42V8.51h3l.21,4h0a6.78,6.78,0,0,1,2.48-3.24,6.53,6.53,0,0,1,3.83-1.22,7.24,7.24,0,0,1,5.65,2.4,8.69,8.69,0,0,1,2.15,6v9.44h-3.41V16.82a5.84,5.84,0,0,0-1.49-4,4.88,4.88,0,0,0-3.8-1.66,4.79,4.79,0,0,0-3.71,1.73A6,6,0,0,0,783.12,17v8.93Zm39.95-6a7.71,7.71,0,0,1-3.08,4.58,9.3,9.3,0,0,1-5.67,1.84,9.53,9.53,0,0,1-6.79-2.69,8.8,8.8,0,0,1,0-12.93,9.52,9.52,0,0,1,6.79-2.68,9.23,9.23,0,0,1,5.68,1.82,7.62,7.62,0,0,1,3.07,4.56h-3.53a4.75,4.75,0,0,0-2-2.44,6.17,6.17,0,0,0-9.44,5.21,5.86,5.86,0,0,0,1.81,4.32,5.94,5.94,0,0,0,4.34,1.8,5.71,5.71,0,0,0,3.25-.94,5.22,5.22,0,0,0,2-2.45Zm12.83,3.53a7.72,7.72,0,0,0,3.24-.68,3.88,3.88,0,0,0,2-1.85h3.4a8,8,0,0,1-3.42,3.93,10.32,10.32,0,0,1-5.44,1.49,9.51,9.51,0,0,1-6.82-2.63,8.69,8.69,0,0,1-2.76-6.57,8.8,8.8,0,0,1,2.63-6.46,9.14,9.14,0,0,1,6.77-2.64A8.7,8.7,0,0,1,839,11a10.66,10.66,0,0,1,2.57,7.31H826.16a6,6,0,0,0,2.12,3.76A6.37,6.37,0,0,0,832.48,23.48ZM832.13,11a6,6,0,0,0-4,1.32,5.72,5.72,0,0,0-1.94,3.39h11.88a5.87,5.87,0,0,0-2-3.45A6,6,0,0,0,832.13,11Zm35.11-2.88a7.15,7.15,0,0,1,5.51,2.3,8.13,8.13,0,0,1,2.13,5.73v9.83h-3.46V16.28a5.39,5.39,0,0,0-1.31-3.66,4.21,4.21,0,0,0-3.33-1.49,4.29,4.29,0,0,0-3.33,1.56,5.49,5.49,0,0,0-1.38,3.76v9.48h-3.43V16.28a5.32,5.32,0,0,0-1.34-3.64,4.35,4.35,0,0,0-6.63,0,5.49,5.49,0,0,0-1.38,3.76v9.48h-3.43V8.51h3l.21,3.64h0a6.23,6.23,0,0,1,2.27-3,5.83,5.83,0,0,1,3.46-1.12,6.83,6.83,0,0,1,3.66,1A6.91,6.91,0,0,1,861,11.74,6.68,6.68,0,0,1,867.24,8.07ZM888.8,23.48A7.72,7.72,0,0,0,892,22.8,3.88,3.88,0,0,0,894.09,21h3.4a8,8,0,0,1-3.42,3.93,10.32,10.32,0,0,1-5.44,1.49,9.51,9.51,0,0,1-6.82-2.63,8.69,8.69,0,0,1-2.76-6.57,8.8,8.8,0,0,1,2.63-6.46,9.14,9.14,0,0,1,6.77-2.64A8.7,8.7,0,0,1,895.34,11a10.66,10.66,0,0,1,2.57,7.31H882.48a6,6,0,0,0,2.12,3.76A6.37,6.37,0,0,0,888.8,23.48ZM888.45,11a6,6,0,0,0-4,1.32,5.72,5.72,0,0,0-1.94,3.39h11.88a5.87,5.87,0,0,0-2-3.45A6,6,0,0,0,888.45,11Zm13.73,15V8.51h3l.22,4h0a6.74,6.74,0,0,1,2.49-3.24,6.5,6.5,0,0,1,3.82-1.22,7.22,7.22,0,0,1,5.65,2.4,8.65,8.65,0,0,1,2.16,6v9.44h-3.41V16.82a5.8,5.8,0,0,0-1.5-4,4.86,4.86,0,0,0-3.8-1.66,4.77,4.77,0,0,0-3.7,1.73A6,6,0,0,0,905.61,17v8.93Zm31-2.67a8.69,8.69,0,0,0,2.81-.57v3a6.89,6.89,0,0,1-3.36.69,6.3,6.3,0,0,1-5-2,7.1,7.1,0,0,1-1.78-4.94V11.23h-3.53V8.51h3.53V3.64h3.43V8.51h6.61v2.72h-6.61v7.93a4.41,4.41,0,0,0,1,2.94A3.57,3.57,0,0,0,933.14,23.26Z"/></g></g></svg>