<svg xmlns="http://www.w3.org/2000/svg" viewBox="0 0 1046.97 34.21"><defs><style>.cls-1{fill:#0c4384;}</style></defs><title>Ресурс 11</title><g id="Слой_2" data-name="Слой 2"><g id="Слой_4" data-name="Слой 4"><path class="cls-1" d="M19.92,1.81v3H11.78v21.1H8.17V4.83H0v-3Zm1,24.12V8.51h3l.21,4.71h0a7,7,0,0,1,2.54-3.71,6.84,6.84,0,0,1,4.05-1.37v3.09a6,6,0,0,0-4.67,1.92A6.86,6.86,0,0,0,24.33,18v7.93Zm20.83.44a8.77,8.77,0,0,1-6.28-2.63,8.72,8.72,0,0,1-2.72-6.52,8.7,8.7,0,0,1,2.72-6.52,8.77,8.77,0,0,1,6.28-2.63A7.87,7.87,0,0,1,46,9.29a6.31,6.31,0,0,1,2.66,3.17h.07l.12-4h3.06V25.93H48.83l-.12-4h-.07a6.33,6.33,0,0,1-2.7,3.19A7.78,7.78,0,0,1,41.73,26.37ZM38,21.54a6.14,6.14,0,0,0,10.48-4.32,6,6,0,0,0-1.79-4.33,6.14,6.14,0,0,0-8.69,0,6.12,6.12,0,0,0,0,8.65ZM72.11,0h3.42V25.93h-3l-.16-4h-.07a6.27,6.27,0,0,1-2.7,3.18,8,8,0,0,1-4.24,1.22,8.66,8.66,0,0,1-6.27-2.63,8.86,8.86,0,0,1-2.66-6.57,8.73,8.73,0,0,1,2.66-6.49A8.62,8.62,0,0,1,65.3,8.07a7.56,7.56,0,0,1,4.14,1.22A6.19,6.19,0,0,1,72,12.46h.07ZM61.63,21.54a6.14,6.14,0,0,0,10.48-4.32,6,6,0,0,0-1.79-4.33,6.14,6.14,0,0,0-10.48,4.33A5.88,5.88,0,0,0,61.63,21.54Zm28.18,1.94A7.67,7.67,0,0,0,93,22.8,4,4,0,0,0,95.1,21h3.39a7.92,7.92,0,0,1-3.42,3.93,10.3,10.3,0,0,1-5.44,1.49,9.51,9.51,0,0,1-6.82-2.63,8.69,8.69,0,0,1-2.76-6.57,8.84,8.84,0,0,1,2.63-6.46,9.15,9.15,0,0,1,6.78-2.64A8.72,8.72,0,0,1,96.35,11a10.65,10.65,0,0,1,2.56,7.31H83.48a6,6,0,0,0,2.13,3.76A6.34,6.34,0,0,0,89.81,23.48ZM89.46,11a6,6,0,0,0-4,1.32,5.68,5.68,0,0,0-1.95,3.39H95.4a5.92,5.92,0,0,0-2-3.45A6,6,0,0,0,89.46,11Zm45.84,6.59a12.2,12.2,0,0,1-4.58,6.34A13,13,0,0,1,114,22.69a11.92,11.92,0,0,1-3.76-8.82A11.94,11.94,0,0,1,114,5a13,13,0,0,1,16.73-1.18,12.2,12.2,0,0,1,4.58,6.34h-3.75a9.07,9.07,0,0,0-3.36-4,9.25,9.25,0,0,0-11.66,1.15,8.94,8.94,0,0,0-2.69,6.55,8.94,8.94,0,0,0,2.69,6.55,9.27,9.27,0,0,0,11.67,1.15,9.27,9.27,0,0,0,3.39-4ZM140,25.93V8.51h3l.21,4.71h0a7,7,0,0,1,2.54-3.71,6.89,6.89,0,0,1,4.06-1.37v3.09a6,6,0,0,0-4.68,1.92A6.9,6.9,0,0,0,143.47,18v7.93Zm13.72,7.93,5.5-10.45-7.7-14.9h3.74L161,20.09l5.76-11.58h3.75L157.38,33.86Zm20,0V8.51h3l.14,4H177a6.18,6.18,0,0,1,2.68-3.19A8,8,0,0,1,184,8.07a8.68,8.68,0,0,1,6.25,2.63,8.71,8.71,0,0,1,2.69,6.52,8.82,8.82,0,0,1-2.66,6.52,8.5,8.5,0,0,1-6.14,2.63,7.53,7.53,0,0,1-4.21-1.25,6.26,6.26,0,0,1-2.6-3.15h-.07V33.86ZM179,21.54a5.85,5.85,0,0,0,4.31,1.8,6,6,0,0,0,4.34-1.8,5.83,5.83,0,0,0,1.82-4.32A6.14,6.14,0,1,0,179,21.54Zm26.52,1.72a8.59,8.59,0,0,0,2.81-.57v3a6.88,6.88,0,0,1-3.35.69,6.3,6.3,0,0,1-4.95-2,7.11,7.11,0,0,1-1.79-4.94V11.23h-3.53V8.51h3.53V3.64h3.43V8.51h6.61v2.72h-6.61v7.93a4.41,4.41,0,0,0,1,2.95A3.56,3.56,0,0,0,205.54,23.26Zm22,.42a9.83,9.83,0,0,1-13.51,0,8.63,8.63,0,0,1-2.82-6.47A8.6,8.6,0,0,1,214,10.75a9.85,9.85,0,0,1,13.51,0,8.61,8.61,0,0,1,2.8,6.46A8.65,8.65,0,0,1,227.51,23.68Zm-11.09-2.14a6.13,6.13,0,0,0,10.46-4.32,6.14,6.14,0,0,0-12.27,0A5.86,5.86,0,0,0,216.42,21.54Zm17,.4h3.42l-2.19,9.89h-2.41ZM266.71,4.83H253.63v7.91H266.2v2.85H253.63V25.93H250V1.81h16.68Zm8.41-.21a2.17,2.17,0,0,1-1.55.64A2.23,2.23,0,0,1,272,4.62a2.1,2.1,0,0,1-.66-1.55A2.08,2.08,0,0,1,272,1.52a2.19,2.19,0,0,1,1.57-.64,2.13,2.13,0,0,1,1.55.64,2.11,2.11,0,0,1,.65,1.55A2.12,2.12,0,0,1,275.12,4.62Zm-3.27,21.31V8.51h3.42V25.93Zm16.94.44a8.77,8.77,0,0,1-6.28-2.63,8.72,8.72,0,0,1-2.72-6.52,8.7,8.7,0,0,1,2.72-6.52,8.77,8.77,0,0,1,6.28-2.63A7.87,7.87,0,0,1,293,9.29a6.31,6.31,0,0,1,2.66,3.17h.07l.12-4H299V25.93h-3.06l-.12-4h-.07a6.29,6.29,0,0,1-2.7,3.19A7.78,7.78,0,0,1,288.79,26.37ZM285,21.54a6.14,6.14,0,0,0,10.48-4.32,6,6,0,0,0-1.79-4.33,6.14,6.14,0,0,0-8.69,0,6.12,6.12,0,0,0,0,8.65Zm28,1.72a8.69,8.69,0,0,0,2.82-.57v3a6.89,6.89,0,0,1-3.36.69,6.3,6.3,0,0,1-5-2,7.1,7.1,0,0,1-1.78-4.94V11.23H302.2V8.51h3.54V3.64h3.42V8.51h6.61v2.72h-6.61v7.93a4.46,4.46,0,0,0,1,2.95A3.59,3.59,0,0,0,313,23.26Zm23.14,3.11a9.12,9.12,0,0,1-9-9.15,8.69,8.69,0,0,1,2.71-6.52,8.79,8.79,0,0,1,6.29-2.63,7.84,7.84,0,0,1,4.24,1.22,6.26,6.26,0,0,1,2.66,3.17h.07l.13-4h3.06V25.93h-3.06l-.13-4h-.07a6.31,6.31,0,0,1-2.69,3.19A7.8,7.8,0,0,1,336.15,26.37Zm-3.78-4.83a6.13,6.13,0,0,0,10.47-4.32,6,6,0,0,0-1.78-4.33,6.15,6.15,0,0,0-10.49,4.33A5.89,5.89,0,0,0,332.37,21.54Zm19.9,4.39V8.51h3l.21,4h0A6.82,6.82,0,0,1,358,9.29a6.53,6.53,0,0,1,3.83-1.22,7.24,7.24,0,0,1,5.65,2.4,8.69,8.69,0,0,1,2.15,6v9.44h-3.41V16.82a5.84,5.84,0,0,0-1.49-4,4.89,4.89,0,0,0-3.8-1.66,4.82,4.82,0,0,0-3.71,1.73A6,6,0,0,0,355.69,17v8.93ZM389.55,0H393V25.93h-3l-.16-4h-.07A6.3,6.3,0,0,1,387,25.15a8,8,0,0,1-4.25,1.22,8.66,8.66,0,0,1-6.27-2.63,8.86,8.86,0,0,1-2.66-6.57,8.73,8.73,0,0,1,2.66-6.49,8.65,8.65,0,0,1,6.24-2.61,7.61,7.61,0,0,1,4.14,1.22,6.17,6.17,0,0,1,2.59,3.17h.07ZM379.07,21.54a5.93,5.93,0,0,0,4.35,1.8,5.86,5.86,0,0,0,4.34-1.8,6.12,6.12,0,0,0,0-8.65,5.86,5.86,0,0,0-4.34-1.8,6.13,6.13,0,0,0-6.14,6.13A5.92,5.92,0,0,0,379.07,21.54Zm43.07,2.14a9.84,9.84,0,0,1-13.52,0,8.66,8.66,0,0,1-2.81-6.47,8.62,8.62,0,0,1,2.81-6.46,9.87,9.87,0,0,1,13.52,0,8.64,8.64,0,0,1,2.79,6.46A8.68,8.68,0,0,1,422.14,23.68Zm-11.09-2.14a6.14,6.14,0,0,0,10.46-4.32,6.14,6.14,0,1,0-10.46,4.32Zm26.54,1.72a8.64,8.64,0,0,0,2.81-.57v3a6.89,6.89,0,0,1-3.36.69,6.29,6.29,0,0,1-4.94-2,7.11,7.11,0,0,1-1.79-4.94V11.23h-3.53V8.51h3.53V3.64h3.43V8.51h6.61v2.72h-6.61v7.93a4.41,4.41,0,0,0,1,2.95A3.56,3.56,0,0,0,437.59,23.26Zm7.26,2.67V0h3.43V12.53h.07a6.49,6.49,0,0,1,2.37-3.24,6.22,6.22,0,0,1,3.71-1.22,7.22,7.22,0,0,1,5.65,2.4,8.64,8.64,0,0,1,2.15,6v9.44h-3.41V16.82a5.79,5.79,0,0,0-1.49-4,5,5,0,0,0-7.51.07A6,6,0,0,0,448.28,17v8.93Zm31.34-2.45a7.72,7.72,0,0,0,3.24-.68A3.92,3.92,0,0,0,481.48,21h3.4a8,8,0,0,1-3.42,3.93A10.32,10.32,0,0,1,476,26.37a9.51,9.51,0,0,1-6.82-2.63,8.69,8.69,0,0,1-2.76-6.57,8.83,8.83,0,0,1,2.62-6.46,9.16,9.16,0,0,1,6.78-2.64A8.7,8.7,0,0,1,482.73,11a10.66,10.66,0,0,1,2.57,7.31H469.86A6,6,0,0,0,472,22.06,6.37,6.37,0,0,0,476.19,23.48ZM475.84,11a6,6,0,0,0-4,1.32,5.67,5.67,0,0,0-1.94,3.39h11.88a5.92,5.92,0,0,0-2-3.45A6,6,0,0,0,475.84,11Zm13.73,15V8.51h3l.21,4.71h0a7,7,0,0,1,2.54-3.71,6.84,6.84,0,0,1,4.05-1.37v3.09a6,6,0,0,0-4.68,1.92A6.9,6.9,0,0,0,493,18v7.93ZM526.17,0h3.42V25.93h-3l-.16-4h-.07a6.27,6.27,0,0,1-2.7,3.18,7.94,7.94,0,0,1-4.24,1.22,8.66,8.66,0,0,1-6.27-2.63,8.86,8.86,0,0,1-2.66-6.57,8.73,8.73,0,0,1,2.66-6.49,8.62,8.62,0,0,1,6.23-2.61,7.56,7.56,0,0,1,4.14,1.22,6.19,6.19,0,0,1,2.6,3.17h.07ZM515.69,21.54a6.14,6.14,0,0,0,10.48-4.32,6,6,0,0,0-1.79-4.33,6.14,6.14,0,0,0-8.69,0,5.92,5.92,0,0,0-1.79,4.33A5.88,5.88,0,0,0,515.69,21.54ZM538.82,4.62a2.15,2.15,0,0,1-1.54.64,2.23,2.23,0,0,1-1.57-.64,2.13,2.13,0,0,1,0-3.1,2.19,2.19,0,0,1,1.57-.64,2.11,2.11,0,0,1,1.54.64,2.07,2.07,0,0,1,.65,1.55A2.09,2.09,0,0,1,538.82,4.62Zm-3.27,21.31V8.51H539V25.93Zm18.07,8.28a10.4,10.4,0,0,1-5.83-1.64,8.12,8.12,0,0,1-3.4-4.62H548a5.18,5.18,0,0,0,2.2,2.51,6.51,6.51,0,0,0,3.39.9,6.24,6.24,0,0,0,4.5-1.71,5.78,5.78,0,0,0,1.8-4.41V21.29l0-.11a6,6,0,0,1-2.66,3.28,8,8,0,0,1-4.32,1.22,8.64,8.64,0,0,1-6.16-2.5,8.34,8.34,0,0,1-2.63-6.29,8.33,8.33,0,0,1,2.68-6.26A8.72,8.72,0,0,1,553,8.07a8,8,0,0,1,4.26,1.2A6.18,6.18,0,0,1,560,12.46H560l.11-4h3.06V24.89a8.82,8.82,0,0,1-2.74,6.79A9.7,9.7,0,0,1,553.62,34.21Zm.25-11.31a5.66,5.66,0,0,0,4.19-1.76,5.86,5.86,0,0,0,1.75-4.28A5.67,5.67,0,0,0,558,12.72,5.77,5.77,0,0,0,553.79,11a5.87,5.87,0,0,0-4.26,1.75,5.85,5.85,0,0,0,0,8.42A5.91,5.91,0,0,0,553.87,22.9ZM572.43,4.62a2.15,2.15,0,0,1-1.55.64,2.23,2.23,0,0,1-1.56-.64,2.13,2.13,0,0,1,0-3.1,2.19,2.19,0,0,1,1.56-.64,2.11,2.11,0,0,1,1.55.64,2.07,2.07,0,0,1,.65,1.55A2.09,2.09,0,0,1,572.43,4.62Zm-3.27,21.31V8.51h3.43V25.93Zm17.49-2.67a8.59,8.59,0,0,0,2.81-.57v3a6.85,6.85,0,0,1-3.35.69,6.3,6.3,0,0,1-5-2,7.1,7.1,0,0,1-1.78-4.94V11.23h-3.54V8.51h3.54V3.64h3.42V8.51h6.61v2.72H582.8v7.93a4.41,4.41,0,0,0,1,2.95A3.57,3.57,0,0,0,586.65,23.26Zm14.64,3.11A8.78,8.78,0,0,1,595,23.74a8.72,8.72,0,0,1-2.72-6.52A8.7,8.7,0,0,1,595,10.7a8.78,8.78,0,0,1,6.28-2.63,7.85,7.85,0,0,1,4.25,1.22,6.31,6.31,0,0,1,2.66,3.17h.07l.13-4h3.06V25.93H608.4l-.13-4h-.07a6.29,6.29,0,0,1-2.7,3.19A7.75,7.75,0,0,1,601.29,26.37Zm-3.77-4.83A6.13,6.13,0,0,0,608,17.22a6,6,0,0,0-1.78-4.33,6.15,6.15,0,0,0-10.49,4.33A5.89,5.89,0,0,0,597.52,21.54Zm19.89,4.39V0h3.43V25.93Zm25.26.44a8.77,8.77,0,0,1-6.28-2.63,8.72,8.72,0,0,1-2.72-6.52,8.7,8.7,0,0,1,2.72-6.52,8.77,8.77,0,0,1,6.28-2.63,7.87,7.87,0,0,1,4.25,1.22,6.31,6.31,0,0,1,2.66,3.17h.07l.13-4h3.05V25.93h-3.05l-.13-4h-.07a6.29,6.29,0,0,1-2.7,3.19A7.75,7.75,0,0,1,642.67,26.37Zm-3.78-4.83a6.13,6.13,0,0,0,10.48-4.32,6,6,0,0,0-1.78-4.33,6.16,6.16,0,0,0-8.7,0,6.12,6.12,0,0,0,0,8.65ZM666,26.37A11,11,0,0,1,660.38,25a4.72,4.72,0,0,1-2.45-4.1h3.68c.11,1.81,1.55,2.71,4.3,2.71q3.89,0,3.9-2.27a2.27,2.27,0,0,0-.07-.59,1.6,1.6,0,0,0-.28-.51,2.83,2.83,0,0,0-.38-.39,2.59,2.59,0,0,0-.53-.33l-.61-.27a5.16,5.16,0,0,0-.74-.23l-.77-.2-.85-.2-.85-.2a14.44,14.44,0,0,1-2.23-.64,12.27,12.27,0,0,1-1.92-1,4.21,4.21,0,0,1-1.53-1.52,4.35,4.35,0,0,1-.54-2.2,4.22,4.22,0,0,1,2-3.69,9,9,0,0,1,5.09-1.32,10.36,10.36,0,0,1,5.22,1.28,4.47,4.47,0,0,1,2.34,3.94h-3.53a2.17,2.17,0,0,0-1.28-1.85,5.78,5.78,0,0,0-2.68-.59,5.55,5.55,0,0,0-2.54.53,1.77,1.77,0,0,0-1,1.66,1.69,1.69,0,0,0,.27,1,2.47,2.47,0,0,0,.62.66,4.46,4.46,0,0,0,1.1.5c.5.17.92.3,1.24.38s.83.2,1.54.35a22.14,22.14,0,0,1,2.49.63,12,12,0,0,1,2,.89A4.09,4.09,0,0,1,673,18.92a4.26,4.26,0,0,1,.55,2.23A4.31,4.31,0,0,1,671.43,25,9.82,9.82,0,0,1,666,26.37Zm19.38,0A11,11,0,0,1,679.77,25a4.72,4.72,0,0,1-2.45-4.1H681q.18,2.72,4.31,2.71,3.88,0,3.9-2.27a1.91,1.91,0,0,0-.08-.59,1.4,1.4,0,0,0-.27-.51,2.83,2.83,0,0,0-.38-.39,2.59,2.59,0,0,0-.53-.33l-.61-.27a5.16,5.16,0,0,0-.74-.23l-.77-.2-.85-.2-.85-.2a14.44,14.44,0,0,1-2.23-.64,12.27,12.27,0,0,1-1.92-1,4.06,4.06,0,0,1-1.53-1.52,4.35,4.35,0,0,1-.54-2.2,4.2,4.2,0,0,1,2-3.69A9,9,0,0,1,685,8.07a10.36,10.36,0,0,1,5.22,1.28,4.47,4.47,0,0,1,2.34,3.94H689a2.16,2.16,0,0,0-1.27-1.85,5.78,5.78,0,0,0-2.68-.59,5.55,5.55,0,0,0-2.54.53,1.75,1.75,0,0,0-1,1.66,1.69,1.69,0,0,0,.27,1,2.47,2.47,0,0,0,.62.66,4.46,4.46,0,0,0,1.1.5c.5.17.91.3,1.24.38s.83.2,1.53.35a21.84,21.84,0,0,1,2.5.63,12.37,12.37,0,0,1,2,.89,4.09,4.09,0,0,1,1.64,1.51,4.26,4.26,0,0,1,.55,2.23A4.31,4.31,0,0,1,690.82,25,9.83,9.83,0,0,1,685.42,26.37Zm20.46-2.89a7.72,7.72,0,0,0,3.24-.68A4,4,0,0,0,711.18,21h3.39a8,8,0,0,1-3.42,3.93,10.32,10.32,0,0,1-5.44,1.49,9.51,9.51,0,0,1-6.82-2.63,8.69,8.69,0,0,1-2.76-6.57,8.8,8.8,0,0,1,2.63-6.46,9.14,9.14,0,0,1,6.77-2.64A8.69,8.69,0,0,1,712.42,11,10.66,10.66,0,0,1,715,18.3H699.56a6.07,6.07,0,0,0,2.12,3.76A6.37,6.37,0,0,0,705.88,23.48ZM705.53,11a6,6,0,0,0-4,1.32,5.72,5.72,0,0,0-1.94,3.39h11.88a5.87,5.87,0,0,0-2-3.45A6,6,0,0,0,705.53,11Zm21.84,12.31a8.69,8.69,0,0,0,2.81-.57v3a6.89,6.89,0,0,1-3.36.69,6.3,6.3,0,0,1-5-2,7.1,7.1,0,0,1-1.78-4.94V11.23h-3.54V8.51h3.54V3.64h3.43V8.51h6.6v2.72h-6.6v7.93a4.45,4.45,0,0,0,1,2.95A3.59,3.59,0,0,0,727.37,23.26Zm14.32,3.11A11,11,0,0,1,736,25a4.72,4.72,0,0,1-2.45-4.1h3.67c.12,1.81,1.55,2.71,4.31,2.71q3.88,0,3.9-2.27a2.27,2.27,0,0,0-.08-.59,1.4,1.4,0,0,0-.27-.51,3.56,3.56,0,0,0-.38-.39,2.59,2.59,0,0,0-.53-.33l-.61-.27a5.62,5.62,0,0,0-.74-.23l-.77-.2-.86-.2-.84-.2a14.12,14.12,0,0,1-2.23-.64,12.8,12.8,0,0,1-1.93-1,4.21,4.21,0,0,1-1.53-1.52,4.45,4.45,0,0,1-.53-2.2,4.2,4.2,0,0,1,2-3.69,8.92,8.92,0,0,1,5.09-1.32,10.36,10.36,0,0,1,5.22,1.28,4.47,4.47,0,0,1,2.34,3.94h-3.54A2.16,2.16,0,0,0,744,11.44a5.78,5.78,0,0,0-2.68-.59,5.52,5.52,0,0,0-2.54.53,1.75,1.75,0,0,0-1,1.66,1.69,1.69,0,0,0,.27,1,2.32,2.32,0,0,0,.62.66,4.29,4.29,0,0,0,1.1.5c.5.17.91.3,1.23.38l1.54.35a22.4,22.4,0,0,1,2.5.63,12.74,12.74,0,0,1,2,.89,4.09,4.09,0,0,1,1.64,1.51,4.36,4.36,0,0,1,.55,2.23A4.31,4.31,0,0,1,747.09,25,9.83,9.83,0,0,1,741.69,26.37Zm29.64-10.71v2.92H761.19V15.66Zm20.86,10.71a8.78,8.78,0,0,1-6.28-2.63,8.72,8.72,0,0,1-2.72-6.52,8.7,8.7,0,0,1,2.72-6.52,8.78,8.78,0,0,1,6.28-2.63,7.87,7.87,0,0,1,4.25,1.22,6.31,6.31,0,0,1,2.66,3.17h.07l.13-4h3.05V25.93H799.3l-.13-4h-.07a6.29,6.29,0,0,1-2.7,3.19A7.75,7.75,0,0,1,792.19,26.37Zm-3.77-4.83a6.13,6.13,0,0,0,10.47-4.32,6,6,0,0,0-1.78-4.33,6.15,6.15,0,0,0-10.49,4.33A5.89,5.89,0,0,0,788.42,21.54Zm19.89,4.39V0h3.43V25.93Zm9.39,0V0h3.43V25.93Zm21-21.31a2.15,2.15,0,0,1-1.55.64,2.21,2.21,0,0,1-1.56-.64,2.07,2.07,0,0,1-.67-1.55,2.05,2.05,0,0,1,.67-1.55,2.17,2.17,0,0,1,1.56-.64,2.11,2.11,0,0,1,1.55.64,2.11,2.11,0,0,1,.65,1.55A2.12,2.12,0,0,1,838.67,4.62ZM835.4,25.93V8.51h3.43V25.93Zm9.39,0V8.51h3l.21,4h0a6.82,6.82,0,0,1,2.48-3.24,6.53,6.53,0,0,1,3.83-1.22,7.24,7.24,0,0,1,5.65,2.4,8.64,8.64,0,0,1,2.15,6v9.44h-3.41V16.82a5.84,5.84,0,0,0-1.49-4,4.88,4.88,0,0,0-3.8-1.66,4.82,4.82,0,0,0-3.71,1.73A6,6,0,0,0,848.22,17v8.93ZM891,23.68a9.84,9.84,0,0,1-13.52,0,8.66,8.66,0,0,1-2.81-6.47,8.62,8.62,0,0,1,2.81-6.46,9.87,9.87,0,0,1,13.52,0,8.64,8.64,0,0,1,2.79,6.46A8.68,8.68,0,0,1,891,23.68Zm-11.09-2.14a6.14,6.14,0,0,0,10.46-4.32,6.14,6.14,0,1,0-10.46,4.32Zm18.44,4.39V8.51h3l.21,4h0a6.82,6.82,0,0,1,2.48-3.24A6.53,6.53,0,0,1,908,8.07a7.24,7.24,0,0,1,5.65,2.4,8.69,8.69,0,0,1,2.15,6v9.44h-3.41V16.82a5.84,5.84,0,0,0-1.49-4,4.89,4.89,0,0,0-3.8-1.66,4.82,4.82,0,0,0-3.71,1.73A6,6,0,0,0,901.79,17v8.93Zm31.34-2.45a7.67,7.67,0,0,0,3.23-.68A3.91,3.91,0,0,0,935,21h3.39A7.92,7.92,0,0,1,935,24.88a10.3,10.3,0,0,1-5.44,1.49,9.53,9.53,0,0,1-6.82-2.63A8.69,8.69,0,0,1,920,17.17a8.84,8.84,0,0,1,2.63-6.46,9.15,9.15,0,0,1,6.78-2.64A8.7,8.7,0,0,1,936.25,11a10.65,10.65,0,0,1,2.56,7.31H923.38a6,6,0,0,0,2.13,3.76A6.37,6.37,0,0,0,929.71,23.48ZM929.36,11a6,6,0,0,0-4,1.32,5.62,5.62,0,0,0-1.94,3.39H935.3a5.92,5.92,0,0,0-2-3.45A6,6,0,0,0,929.36,11Zm22,22.91V8.51h3l.14,4h.07a6.23,6.23,0,0,1,2.68-3.19,8,8,0,0,1,4.25-1.2,8.7,8.7,0,0,1,6.26,2.63,8.75,8.75,0,0,1,2.69,6.52,8.79,8.79,0,0,1-2.67,6.52,8.49,8.49,0,0,1-6.14,2.63,7.56,7.56,0,0,1-4.21-1.25A6.24,6.24,0,0,1,954.9,22h-.07V33.86Zm5.22-12.32a5.88,5.88,0,0,0,4.32,1.8,6,6,0,0,0,4.34-1.8,6.06,6.06,0,0,0,0-8.65,6.13,6.13,0,0,0-10.46,4.33A5.88,5.88,0,0,0,956.62,21.54ZM975,25.93V0h3.43V25.93Zm17,.44a9.12,9.12,0,0,1-9-9.15,8.69,8.69,0,0,1,2.71-6.52A8.79,8.79,0,0,1,992,8.07a7.84,7.84,0,0,1,4.24,1.22,6.29,6.29,0,0,1,2.67,3.17H999l.12-4h3.06V25.93h-3.06L999,22h-.07a6.38,6.38,0,0,1-2.7,3.19A7.8,7.8,0,0,1,992,26.37Zm-3.78-4.83a6.13,6.13,0,0,0,10.47-4.32,6,6,0,0,0-1.78-4.33,6.14,6.14,0,0,0-10.48,4.33A5.88,5.88,0,0,0,988.21,21.54ZM1025,20a7.67,7.67,0,0,1-3.08,4.58,9.23,9.23,0,0,1-5.67,1.84,9.49,9.49,0,0,1-6.78-2.69,8.61,8.61,0,0,1-2.83-6.47,8.57,8.57,0,0,1,2.83-6.46,9.48,9.48,0,0,1,6.78-2.68A9.32,9.32,0,0,1,1022,9.89a7.65,7.65,0,0,1,3.06,4.56h-3.53a4.69,4.69,0,0,0-2-2.43,5.84,5.84,0,0,0-3.28-1,5.91,5.91,0,0,0-4.36,1.82,6.1,6.1,0,0,0,0,8.66,6,6,0,0,0,4.35,1.8,5.76,5.76,0,0,0,3.25-.94,5.22,5.22,0,0,0,2-2.45Zm12.84,3.53a7.7,7.7,0,0,0,3.23-.68,4,4,0,0,0,2.06-1.85h3.39a7.92,7.92,0,0,1-3.42,3.93,10.3,10.3,0,0,1-5.44,1.49,9.51,9.51,0,0,1-6.82-2.63,8.69,8.69,0,0,1-2.76-6.57,8.84,8.84,0,0,1,2.63-6.46,9.14,9.14,0,0,1,6.77-2.64,8.72,8.72,0,0,1,6.9,2.92A10.65,10.65,0,0,1,1047,18.3h-15.43a6,6,0,0,0,2.13,3.76A6.34,6.34,0,0,0,1037.87,23.48ZM1037.51,11a6,6,0,0,0-4,1.32,5.68,5.68,0,0,0-2,3.39h11.89a5.88,5.88,0,0,0-2-3.45A6,6,0,0,0,1037.51,11Z"/></g></g></svg>